<?xml version="1.0" encoding="utf-8"?>
<!-- Generator: Adobe Illustrator 20.1.0, SVG Export Plug-In . SVG Version: 6.00 Build 0)  -->
<svg version="1.1" id="Layer_1" xmlns="http://www.w3.org/2000/svg" xmlns:xlink="http://www.w3.org/1999/xlink" x="0px" y="0px"
	 width="960px" height="560px" viewBox="0 0 960 560" enable-background="new 0 0 960 560" xml:space="preserve">
<rect fill="#F1637D" width="960" height="560"/>
<polygon fill="#F4A861" points="960,0 960,560 478,560 478,350.4 429,383.5 379,354.6 379,232.5 391.4,160 429.9,170.6 451.4,176.5 
	457,91.8 463,0 635.4,0 634.9,-6.9 636.7,0 "/>
<polygon fill="#FFFFFF" points="720.3,131.3 821.9,69 958.5,69 811.6,36.4 732.9,68.8 "/>
<polygon fill="#FFFFFF" points="647.9,43.7 638.8,41.8 538.3,20.7 465.7,39.4 517.9,0 635.4,0 634.9,-6.9 636.7,0 "/>
<polygon fill="#FFFFFF" points="870.5,560 589.2,560 649.2,428.2 649.3,428.1 745.3,394.1 745.3,394.1 745.4,394 "/>
<polygon fill="#F0892A" points="745.4,393.9 745.3,394 745.3,394 745.3,394.1 732.5,431.6 668.6,468.4 649,428.1 649,428.1 
	649.1,428 668.7,416.7 649.9,181 646.2,135 638.8,41.8 635.4,0 634.9,-6.9 636.7,0 741.7,0 736.9,67.1 734.8,95.6 732.9,123.6 
	727,205.6 715.3,369 "/>
<polygon fill="#F4A861" points="829.5,560 716.8,560 721.5,541 807.5,541 "/>
<polygon fill="#035057" points="584.6,560 459.9,560 478,354.5 478.4,350.6 550.8,390 "/>
<polygon fill="#F0892A" points="436.4,207.7 407,196.2 407,302.8 427.6,318.4 447.1,307.1 442.1,234.5 424.5,239.7 "/>
<polygon fill="#F0892A" points="605.6,154 582.9,236.8 530.9,267 478.3,267 456.1,228 469,135.3 "/>
<polygon fill="#F0892A" points="960,135 960,237.6 947.2,266.6 801.4,277 747.4,214.5 758.8,135 "/>
<polygon fill="#035057" points="910.9,389.9 960,363.2 960,560 877.1,560 "/>
<text transform="matrix(0.7219 0.692 -0.692 0.7219 759.4171 172.2766)" fill="#FFFFFF" font-family="'Dreadful-Regular'" font-size="173.452px">404</text>
<g>
	<path fill="#FFFFFF" d="M510.5,221.9l-4.5,0.6l2.9,9.1l-8.3,2.2l-2.1-10.2l-6.4,0.9l-12.5,3.9l3.7-21.4l4.2-26.1l7.7-2l5.1,24.9
		l3.2,10.3l4.7-1.3L510.5,221.9z M497,216.1l-1.1-5.5l-4.9-17.9l-1.1,12.6l-2.1,13.5L497,216.1z"/>
	<path fill="#FFFFFF" d="M534.1,196.6l5.3,17.3c0,0-2.9,10.5-11.6,12.8s-15.1-12.3-15.1-12.3l-3.4-13.2c0,0-7-24.1,4.9-27.2
		c11.9-3.1,16.9,7.6,16.9,7.6L534.1,196.6z M530.5,210.6l-3.7-12.1l-4-15.6c0,0-1.7-3.3-5.2-2.4c0,0-4.6,2.3-2.9,9.1
		c1.8,6.8,4.7,20.5,4.7,20.5s3.4,10.6,8.2,9.3C527.7,219.4,531.6,214.8,530.5,210.6z"/>
	<path fill="#FFFFFF" d="M573.7,205.5l-4.5,0.6l2.9,9.1l-8.3,2.2l-2.1-10.2l-6.4,0.9l-12.5,3.9l3.7-21.4l4.2-26.1l7.7-2l5.1,24.9
		l3.2,10.3l4.7-1.3L573.7,205.5z M560.2,199.7l-1.1-5.5l-4.9-17.9l-1.1,12.6l-2.1,13.5L560.2,199.7z"/>
</g>
<path fill="#035057" d="M960,135V88.4L781.2,94h-0.4l0,0l-45.9,1.6l-4.8,0.3V135h-86.8l-1.9-23l-25.5-2.8L457,91.8l-52.1-5.7
	L392.5,121h41.4l-4,49.6l-2.7,33.5l-3.6,45.1l21.5,28.7l11.1,14.7l9.6,1.4l90.2,13l39.7-30.7l24.5-19l26.8-76.9l3,0.6l0,0l77.1,9v59
	l54.7,58l32.4-1.9l145.9-8.4v-59.1l-12.8,29L801.4,277l-54-62.4l11.4-79.5H960V135z M582.9,236.8l-52,30.2h-52.5l-22.2-39l12.9-92.7
	L605.6,154L582.9,236.8z"/>
<g>
	<path fill="#FFFFFF" d="M60.2,353.2l4.5-16.2h4.5l4.4,16.2H70l-0.9-3.6h-4.6l-0.9,3.6H60.2z M66.8,340.1L66.8,340.1l-1.6,7h3.2
		L66.8,340.1z"/>
	<path fill="#FFFFFF" d="M78.5,353.2h-3.4V337h6.3c2.3,0,3.8,1.5,3.8,4.2c0,2.1-0.8,3.6-3,4l0,0c0.7,0.1,2.9,0.3,2.9,3.2
		c0,1,0.1,4.1,0.4,4.8h-3.3c-0.4-1-0.4-2.1-0.4-3.1c0-1.9,0.2-3.6-2.4-3.6h-0.9V353.2z M78.5,344H80c1.3,0,1.7-1.3,1.7-2.4
		c0-1.5-0.7-2.1-1.7-2.1h-1.5V344z"/>
	<path fill="#FFFFFF" d="M97.3,337v2.7h-3.8v13.5h-3.4v-13.5h-3.8V337H97.3z"/>
	<path fill="#FFFFFF" d="M104,337h5.7c4.4,0,5.3,3,5.3,8c0,2.5,0.4,8.2-5.4,8.2H104V337z M107.4,350.7h1.6c2.1,0,2.5-1.5,2.5-5.6
		c0-3,0-5.6-2.4-5.6h-1.8v11.2H107.4z"/>
	<path fill="#FFFFFF" d="M117.6,353.2V337h3.4v16.2H117.6z"/>
	<path fill="#FFFFFF" d="M127.2,353.2h-3.4V337h6.3c2.3,0,3.8,1.5,3.8,4.2c0,2.1-0.8,3.6-3,4l0,0c0.7,0.1,2.9,0.3,2.9,3.2
		c0,1,0.1,4.1,0.4,4.8h-3.3c-0.4-1-0.4-2.1-0.4-3.1c0-1.9,0.2-3.6-2.4-3.6h-0.9C127.2,346.5,127.2,353.2,127.2,353.2z M127.2,344
		h1.5c1.3,0,1.7-1.3,1.7-2.4c0-1.5-0.7-2.1-1.7-2.1h-1.5V344z"/>
	<path fill="#FFFFFF" d="M136.4,353.2V337h8.8v2.5h-5.5v4h5v2.5h-5v4.7h5.6v2.5H136.4z"/>
	<path fill="#FFFFFF" d="M147.5,345.1c0-4.3,0-8.4,5.6-8.4c3.5,0,4.9,1.9,4.7,5.4h-3.3c0-2.2-0.4-3-1.4-3c-1.9,0-2.2,1.8-2.2,6
		s0.2,6,2.2,6c1.6,0,1.5-2,1.5-3.3h3.3c0,4.3-1.7,5.7-4.9,5.7C147.5,353.5,147.5,349.3,147.5,345.1z"/>
	<path fill="#FFFFFF" d="M169.8,337v2.7H166v13.5h-3.4v-13.5h-3.8V337H169.8z"/>
	<path fill="#FFFFFF" d="M171.2,345.1c0-4.3,0-8.4,5.6-8.4s5.6,4.1,5.6,8.4c0,4.2,0,8.4-5.6,8.4S171.2,349.3,171.2,345.1z
		 M178.9,345.1c0-4.2-0.2-6-2.2-6s-2.2,1.8-2.2,6s0.2,6,2.2,6S178.9,349.3,178.9,345.1z"/>
	<path fill="#FFFFFF" d="M188.4,353.2H185V337h6.3c2.3,0,3.8,1.5,3.8,4.2c0,2.1-0.8,3.6-3,4l0,0c0.7,0.1,2.9,0.3,2.9,3.2
		c0,1,0.1,4.1,0.4,4.8h-3.3c-0.4-1-0.4-2.1-0.4-3.1c0-1.9,0.2-3.6-2.4-3.6h-0.9L188.4,353.2L188.4,353.2z M188.4,344h1.5
		c1.3,0,1.7-1.3,1.7-2.4c0-1.5-0.7-2.1-1.7-2.1h-1.5V344z"/>
	<path fill="#FFFFFF" d="M202.6,353.2V337h4.6l4.3,11.2l0,0V337h3.2v16.2h-4.5l-4.4-11.9l0,0v11.9H202.6z"/>
	<path fill="#FFFFFF" d="M217.4,345.1c0-4.3,0-8.4,5.6-8.4s5.6,4.1,5.6,8.4c0,4.2,0,8.4-5.6,8.4S217.4,349.3,217.4,345.1z
		 M225.1,345.1c0-4.2-0.2-6-2.2-6s-2.2,1.8-2.2,6s0.2,6,2.2,6S225.1,349.3,225.1,345.1z"/>
	<path fill="#FFFFFF" d="M234.6,353.2h-3.4V337h6.3c2.3,0,3.8,1.5,3.8,4.2c0,2.1-0.8,3.6-3,4l0,0c0.7,0.1,2.9,0.3,2.9,3.2
		c0,1,0.1,4.1,0.4,4.8h-3.3c-0.4-1-0.4-2.1-0.4-3.1c0-1.9,0.2-3.6-2.4-3.6h-0.9L234.6,353.2L234.6,353.2z M234.6,344h1.5
		c1.3,0,1.7-1.3,1.7-2.4c0-1.5-0.7-2.1-1.7-2.1h-1.5V344z"/>
	<path fill="#FFFFFF" d="M243.7,353.2V337h5.5l2.5,11l0,0l2.7-11h5.3v16.2h-3.3v-12.5l0,0l-3.1,12.5H250l-3-12.5l0,0v12.5H243.7z"/>
	<path fill="#FFFFFF" d="M261.2,353.2l4.5-16.2h4.5l4.4,16.2H271l-0.9-3.6h-4.6l-0.9,3.6H261.2z M267.8,340.1L267.8,340.1l-1.6,7
		h3.2L267.8,340.1z"/>
	<path fill="#FFFFFF" d="M276.2,353.2V337h4.6l4.3,11.2l0,0V337h3.2v16.2h-4.5l-4.4-11.9l0,0v11.9H276.2z"/>
	<path fill="#FFFFFF" d="M300.6,353.5c-4.2,0-5-2.5-4.8-5.3h3.4c0,1.5,0.1,2.9,1.9,2.9c1.1,0,1.7-0.7,1.7-1.8c0-2.9-6.8-3.1-6.8-7.9
		c0-2.5,1.2-4.6,5.3-4.6c3.3,0,4.9,1.5,4.7,4.9h-3.3c0-1.2-0.2-2.4-1.6-2.4c-1.1,0-1.8,0.6-1.8,1.7c0,3.1,6.8,2.8,6.8,7.9
		C306.2,353,303.2,353.5,300.6,353.5z"/>
	<path fill="#FFFFFF" d="M307.4,353.2l4.5-16.2h4.5l4.4,16.2h-3.6l-0.9-3.6h-4.6l-0.9,3.6H307.4z M314,340.1L314,340.1l-1.6,7h3.2
		L314,340.1z"/>
	<path fill="#FFFFFF" d="M324.1,347.6l-4.2-10.6h3.7l2.4,6.9l2.6-6.9h3.5l-4.5,10.6v5.6h-3.4v-5.6H324.1z"/>
	<path fill="#FFFFFF" d="M338,353.5c-4.2,0-5-2.5-4.8-5.3h3.4c0,1.5,0.1,2.9,1.9,2.9c1.1,0,1.7-0.7,1.7-1.8c0-2.9-6.8-3.1-6.8-7.9
		c0-2.5,1.2-4.6,5.3-4.6c3.3,0,4.9,1.5,4.7,4.9h-3.3c0-1.2-0.2-2.4-1.6-2.4c-1.1,0-1.8,0.6-1.8,1.7c0,3.1,6.8,2.8,6.8,7.9
		C343.7,353,340.6,353.5,338,353.5z"/>
	<path fill="#FFFFFF" d="M348.6,341.9v3h-2.7v-3H348.6z M348.6,353.2h-2.7v-3h2.7V353.2z"/>
</g>
<path fill="#FFFFFF" d="M61,396.8v-30.3h10.2l4.7,20.6H76l5-20.6h10v30.3h-6.2v-23.4h-0.1l-5.8,23.4h-6l-5.5-23.4h-0.1v23.4H61z"/>
<path fill="#FFFFFF" d="M93.8,396.8l8.4-30.3h8.3l8.2,30.3H112l-1.7-6.7h-8.6l-1.7,6.7H93.8z M106,372.3L106,372.3l-3,13.1h6
	L106,372.3z"/>
<path fill="#FFFFFF" d="M135.2,366.5h7l-8.5,13.6l8.5,16.7H135l-7.3-15.5h-0.1v15.5h-6.3v-30.3h6.3v13h0.1L135.2,366.5z"/>
<path fill="#FFFFFF" d="M145.1,396.8v-30.3h16.5v4.7h-10.2v7.5h9.4v4.7h-9.4v8.9h10.5v4.7h-16.8V396.8z"/>
<path fill="#FFFFFF" d="M193.4,366.5v5h-7v25.3H180v-25.3h-7v-5H193.4z"/>
<path fill="#FFFFFF" d="M210.1,378.6v-12.1h6.3v30.3h-6.3v-13.5h-7.3v13.5h-6.3v-30.3h6.3v12.1H210.1z"/>
<path fill="#FFFFFF" d="M222,396.8v-30.3h6.3v30.3H222z"/>
<path fill="#FFFFFF" d="M241.9,397.3c-7.8,0-9.3-4.6-9-9.9h6.3c0,2.9,0.1,5.3,3.6,5.3c2.1,0,3.2-1.4,3.2-3.4
	c0-5.5-12.8-5.8-12.8-14.8c0-4.7,2.3-8.5,10-8.5c6.2,0,9.2,2.8,8.8,9.1h-6.2c0-2.3-0.4-4.6-2.9-4.6c-2.1,0-3.3,1.1-3.3,3.2
	c0,5.7,12.8,5.2,12.8,14.8C252.4,396.4,246.7,397.3,241.9,397.3z"/>
<path fill="#FFFFFF" d="M274.5,397.3c-7.8,0-9.3-4.6-9-9.9h6.3c0,2.9,0.1,5.3,3.6,5.3c2.1,0,3.2-1.4,3.2-3.4
	c0-5.5-12.8-5.8-12.8-14.8c0-4.7,2.3-8.5,10-8.5c6.2,0,9.2,2.8,8.8,9.1h-6.2c0-2.3-0.4-4.6-2.9-4.6c-2.1,0-3.3,1.1-3.3,3.2
	c0,5.7,12.8,5.2,12.8,14.8C285.1,396.4,279.3,397.3,274.5,397.3z"/>
<path fill="#FFFFFF" d="M289.6,396.8v-30.3h6.3v30.3H289.6z"/>
<path fill="#FFFFFF" d="M319.3,366.5v5h-7v25.3H306v-25.3h-7v-5H319.3z"/>
<path fill="#FFFFFF" d="M322.2,396.8v-30.3h16.5v4.7h-10.2v7.5h9.4v4.7h-9.4v8.9H339v4.7h-16.8V396.8z"/>
<path fill="#035057" d="M64.9,410.8h6.5L70.9,432H71l9.3-21.3h7.5V432h0.1l8.3-21.3h6.2L89.1,441h-7v-22.1H82L72.1,441h-6.9
	L64.9,410.8z"/>
<path fill="#035057" d="M101.4,425.9c1.7-8,3.3-15.6,13.8-15.6c10.4,0,8.8,7.6,7.1,15.6c-1.7,7.9-3.4,15.6-13.8,15.6
	C98,441.5,99.7,433.8,101.4,425.9z M115.9,425.9c1.6-7.8,1.9-11.1-1.7-11.1s-4.7,3.4-6.4,11.1c-1.7,7.8-1.9,11.1,1.6,11.1
	C113,437,114.2,433.7,115.9,425.9z"/>
<path fill="#035057" d="M130.3,441H124l6.4-30.3h11.7c4.3,0,6.5,2.8,5.4,7.9c-0.8,3.9-2.9,6.8-7.2,7.4v0.1c1.3,0.2,5.4,0.5,4.2,6
	c-0.4,1.9-1.5,7.6-1.2,8.9h-6.2c-0.5-1.8,0.2-3.9,0.6-5.9c0.8-3.6,1.8-6.7-3.1-6.7H133L130.3,441z M134,423.8h2.8
	c2.5,0,3.8-2.5,4.2-4.4c0.6-2.9-0.4-4-2.4-4h-2.8L134,423.8z"/>
<path fill="#035057" d="M167.3,410.8h7L163,424.4l4.9,16.7h-7.1l-3.9-15.5h-0.1l-3.3,15.5H147l6.4-30.3h6.3l-2.7,13h0.1L167.3,410.8
	z"/>
<path fill="#035057" d="M170.7,441l6.4-30.3h6.3L177,441H170.7z"/>
<path fill="#035057" d="M182.4,441l6.4-30.3h16.5l-1,4.7h-10.2l-1.6,7.5h9.4l-1,4.7h-9.4l-1.8,8.9h10.5l-1,4.7h-16.8V441z"/>
<path fill="#035057" d="M209.6,441h-6.3l6.4-30.3h11.7c4.3,0,6.5,2.8,5.4,7.9c-0.8,3.9-2.9,6.8-7.2,7.4v0.1c1.3,0.2,5.4,0.5,4.2,6
	c-0.4,1.9-1.5,7.6-1.2,8.9h-6.2c-0.5-1.8,0.2-3.9,0.6-5.9c0.8-3.6,1.8-6.7-3.1-6.7h-1.6L209.6,441z M213.2,423.8h2.8
	c2.5,0,3.8-2.5,4.2-4.4c0.6-2.9-0.4-4-2.4-4H215L213.2,423.8z"/>
<path fill="#FFFFFF" d="M233.7,441l8.4-30.3h8.3l8.2,30.3H252l-1.7-6.7h-8.6L240,441H233.7z M245.9,416.6L245.9,416.6l-3,13.1h6
	L245.9,416.6z"/>
<path fill="#FFFFFF" d="M261.7,441v-30.3h8.6l8.1,21h0.1v-21h5.9V441H276l-8.3-22.1h-0.1V441H261.7z"/>
<path fill="#FFFFFF" d="M289.8,410.8h10.6c8.3,0,9.9,5.5,9.9,15c0,4.7,0.7,15.3-10.1,15.3h-10.3v-30.3H289.8z M296.1,436.4h3.1
	c3.9,0,4.6-2.9,4.6-10.5c0-5.6,0-10.5-4.4-10.5h-3.3L296.1,436.4L296.1,436.4z"/>
<path fill="#FFFFFF" d="M322.3,441l8.4-30.3h8.3l8.2,30.3h-6.7l-1.7-6.7h-8.6l-1.7,6.7H322.3z M334.5,416.6L334.5,416.6l-3,13.1h6
	L334.5,416.6z"/>
<path fill="#035057" d="M69.3,485.8c-7.8,0-8.3-4.6-6.9-9.9h6.3c-0.6,2.9-1,5.3,2.5,5.3c2.1,0,3.5-1.4,3.9-3.4
	c1.1-5.5-11.5-5.8-9.6-14.8c1-4.7,4.1-8.5,11.8-8.5c6.2,0,8.6,2.8,6.9,9.1H78c0.5-2.3,0.6-4.6-2-4.6c-2.1,0-3.5,1.1-3.9,3.2
	c-1.2,5.7,11.6,5.2,9.6,14.8C80,484.9,74.1,485.8,69.3,485.8z"/>
<path fill="#035057" d="M84.4,485.3l6.4-30.3H101l0.4,20.6h0.1l9.4-20.6h9.9l-6.4,30.3h-6.2l4.9-23.4H113l-10.8,23.4h-6l-0.6-23.4
	h-0.1l-4.9,23.4H84.4z"/>
<path fill="#035057" d="M119.4,485.3l6.4-30.3h6.3l-6.4,30.3H119.4z"/>
<path fill="#035057" d="M131.1,485.3l6.4-30.3h8.6l3.6,21h0.1l4.4-21h5.9l-6.4,30.3h-8.3l-3.6-22.1h-0.1l-4.7,22.1H131.1z"/>
<path fill="#035057" d="M162,470.1c1.7-8,3.3-15.6,13.8-15.6c6.5,0,8.3,3.6,6.7,10.1h-6.2c0.8-4,0.5-5.5-1.4-5.5
	c-3.6,0-4.7,3.4-6.4,11.1c-1.7,7.8-1.9,11.1,1.6,11.1c2.9,0,3.6-3.8,4.2-6.2h6.2c-1.7,8.1-5.5,10.7-11.5,10.7
	C158.7,485.8,160.3,478.1,162,470.1z"/>
<path fill="#035057" d="M200.1,467.1l2.6-12.1h6.3l-6.4,30.3h-6.3l2.9-13.5h-7.3l-2.9,13.5h-6.3L189,455h6.3l-2.6,12.1H200.1z"/>
<path fill="#035057" d="M217.4,485.3l6.4-30.3h6.3l-5.3,25.3h9.5l-1.1,5H217.4z"/>
<path fill="#035057" d="M236,485.3l6.4-30.3h16.5l-1,4.7h-10.2l-1.6,7.5h9.4l-1,4.7h-9.4l-1.8,8.9h10.5l-1,4.7H236V485.3z"/>
<path fill="#035057" d="M265,485.8c-7.8,0-8.3-4.6-6.9-9.9h6.3c-0.6,2.9-1,5.3,2.5,5.3c2.1,0,3.5-1.4,3.9-3.4
	c1.1-5.5-11.5-5.8-9.6-14.8c1-4.7,4.1-8.5,11.8-8.5c6.2,0,8.6,2.8,6.9,9.1h-6.2c0.5-2.3,0.6-4.6-2-4.6c-2.1,0-3.5,1.1-3.9,3.2
	c-1.2,5.7,11.6,5.2,9.6,14.8C275.8,484.9,269.9,485.8,265,485.8z"/>
<path fill="#035057" d="M288.4,485.8c-7.8,0-8.3-4.6-6.9-9.9h6.3c-0.6,2.9-1,5.3,2.5,5.3c2.1,0,3.5-1.4,3.9-3.4
	c1.1-5.5-11.5-5.8-9.6-14.8c1-4.7,4.1-8.5,11.8-8.5c6.2,0,8.6,2.8,6.9,9.1h-6.2c0.5-2.3,0.6-4.6-2-4.6c-2.1,0-3.5,1.1-3.9,3.2
	c-1.2,5.7,11.6,5.2,9.6,14.8C299.2,484.9,293.2,485.8,288.4,485.8z"/>
<path fill="#035057" d="M313,485.3l6.4-30.3h6.3l-5.3,25.3h9.5l-1.1,5H313z"/>
<path fill="#035057" d="M334.5,470.1c1.7-8,3.3-15.6,13.8-15.6c10.4,0,8.8,7.6,7.1,15.6c-1.7,7.9-3.4,15.6-13.8,15.6
	C331.1,485.8,332.8,478.1,334.5,470.1z M348.9,470.1c1.6-7.8,1.9-11.1-1.7-11.1s-4.7,3.4-6.4,11.1c-1.7,7.8-1.9,11.1,1.6,11.1
	C346.1,481.3,347.3,477.9,348.9,470.1z"/>
<path fill="#035057" d="M365.3,485.8c-7.8,0-8.3-4.6-6.9-9.9h6.3c-0.6,2.9-1,5.3,2.5,5.3c2.1,0,3.5-1.4,3.9-3.4
	c1.1-5.5-11.5-5.8-9.6-14.8c1-4.7,4.1-8.5,11.8-8.5c6.2,0,8.6,2.8,6.9,9.1H374c0.5-2.3,0.6-4.6-2-4.6c-2.1,0-3.5,1.1-3.9,3.2
	c-1.2,5.7,11.6,5.2,9.6,14.8C376,484.9,370.1,485.8,365.3,485.8z"/>
<path fill="#035057" d="M380.5,485.3l6.4-30.3h16.5l-1,4.7h-10.2l-1.6,7.5h9.4l-1,4.7h-9.4l-1.8,8.9h10.5l-1,4.7h-16.8V485.3z"/>
<path fill="#035057" d="M409.3,474.8l-3.7-19.8h6.9l1.8,12.8l7.5-12.8h6.5l-12.7,19.8l-2.2,10.5h-6.3L409.3,474.8z"/>
<path fill="#035057" d="M425.9,479.7l-1.2,5.5h-5l1.2-5.5H425.9z"/>
<g>
	<g>
		<path fill="#FFFFFF" d="M45.9,373h-5.6l3.1-8.3h4L45.9,373z M53.4,373h-5.6l3.1-8.3h4L53.4,373z"/>
	</g>
</g>
<g>
	<g>
		<path fill="#035057" d="M435,452.8h5.6l-3.1,8.3h-4L435,452.8z M442.4,452.8h5.6l-3,8.2h-4L442.4,452.8z"/>
	</g>
</g>
</svg>
