<?xml version="1.0" encoding="utf-8"?>
<!-- Generator: Adobe Illustrator 20.1.0, SVG Export Plug-In . SVG Version: 6.00 Build 0)  -->
<svg version="1.1" id="Layer_1" xmlns="http://www.w3.org/2000/svg" xmlns:xlink="http://www.w3.org/1999/xlink" x="0px" y="0px"
	 width="166.6px" height="162.7px" viewBox="0 0 166.6 162.7" enable-background="new 0 0 166.6 162.7" xml:space="preserve">
<g>
	<linearGradient id="SVGID_1_" gradientUnits="userSpaceOnUse" x1="11.4672" y1="9.8778" x2="155.4257" y2="153.8363">
		<stop  offset="0" style="stop-color:#52325D"/>
		<stop  offset="1" style="stop-color:#352A41"/>
	</linearGradient>
	<rect x="10.4" y="11" opacity="0.95" fill="url(#SVGID_1_)" width="146.1" height="141.8"/>
	<g>
		
			<image overflow="visible" opacity="0.4" width="694" height="678" xlink:href="78A9A80A67925FD7.png"  transform="matrix(0.24 0 0 0.24 0.1186 1.3461)">
		</image>
		<g>
			<g>
				<linearGradient id="SVGID_2_" gradientUnits="userSpaceOnUse" x1="4.0945" y1="3.9967" x2="162.4656" y2="158.7233">
					<stop  offset="0" style="stop-color:#BC8EC0"/>
					<stop  offset="1" style="stop-color:#9E59A4"/>
				</linearGradient>
				<path fill="url(#SVGID_2_)" d="M4.1,4v154.7h158.4V4H4.1z M149.9,146.5H17V16.6h132.9V146.5z"/>
			</g>
		</g>
	</g>
	<linearGradient id="SVGID_3_" gradientUnits="userSpaceOnUse" x1="45.8409" y1="80.3014" x2="126.0215" y2="80.3014">
		<stop  offset="0" style="stop-color:#BC8EC0"/>
		<stop  offset="1" style="stop-color:#9E59A4"/>
	</linearGradient>
	<path fill="url(#SVGID_3_)" d="M45.6,48c4.4-0.8,10.4-1.4,18.7-1.4c8.9,0,15.5,1.9,19.7,5.5c4,3.3,6.6,8.5,6.6,14.8
		c0,6.4-2,11.6-5.8,15.2c-4.9,4.9-12.5,7.1-21.1,7.1c-2.3,0-4.4-0.1-6-0.4V114H45.6V48z M57.7,79.2c1.5,0.4,3.5,0.5,6,0.5
		c9.1,0,14.7-4.5,14.7-12.3c0-7.4-5.2-11.4-13.6-11.4c-3.4,0-5.8,0.3-7,0.6V79.2z"/>
	<linearGradient id="SVGID_4_" gradientUnits="userSpaceOnUse" x1="45.8438" y1="89.2817" x2="126.0205" y2="89.2817">
		<stop  offset="0" style="stop-color:#BC8EC0"/>
		<stop  offset="1" style="stop-color:#9E59A4"/>
	</linearGradient>
	<path fill="url(#SVGID_4_)" d="M99.4,81.2c0-6.5-0.1-11.2-0.4-15.6h10.6l0.4,9.2h0.4c2.4-6.8,8-10.3,13.2-10.3
		c1.2,0,1.9,0.1,2.9,0.3v11.5c-1-0.2-2.1-0.4-3.6-0.4c-5.9,0-9.8,3.8-10.9,9.2c-0.2,1.1-0.4,2.4-0.4,3.8v25H99.4V81.2z"/>
</g>
</svg>
