<?xml version="1.0" encoding="utf-8"?>
<!-- Generator: Adobe Illustrator 20.1.0, SVG Export Plug-In . SVG Version: 6.00 Build 0)  -->
<svg version="1.1" id="Layer_1" xmlns="http://www.w3.org/2000/svg" xmlns:xlink="http://www.w3.org/1999/xlink" x="0px" y="0px"
	 width="166.6px" height="162.7px" viewBox="0 0 166.6 162.7" enable-background="new 0 0 166.6 162.7" xml:space="preserve">
<g>
	<linearGradient id="SVGID_1_" gradientUnits="userSpaceOnUse" x1="11.3478" y1="8.5317" x2="155.3063" y2="152.4902">
		<stop  offset="0" style="stop-color:#2F2965"/>
		<stop  offset="1" style="stop-color:#2D2B53"/>
	</linearGradient>
	<rect x="10.3" y="9.6" opacity="0.95" fill="url(#SVGID_1_)" width="146.1" height="141.8"/>
	<g>
		
			<image overflow="visible" opacity="0.4" width="694" height="678" xlink:href="91EBA282A63FA6A8.png"  transform="matrix(0.24 0 0 0.24 0 0)">
		</image>
		<g>
			<g>
				<linearGradient id="SVGID_2_" gradientUnits="userSpaceOnUse" x1="3.9759" y1="2.6506" x2="162.347" y2="157.3772">
					<stop  offset="0" style="stop-color:#BC9CC9"/>
					<stop  offset="1" style="stop-color:#A27EB9"/>
				</linearGradient>
				<path fill="url(#SVGID_2_)" d="M4,2.7v154.7h158.4V2.7H4z M149.8,145.1H16.9V15.2h132.9V145.1z"/>
			</g>
		</g>
	</g>
	<g>
		<g opacity="0.1">
			<path fill="#010101" d="M47,94.4l-5.8,19H28.7l21.4-66.9h15.6l21.7,66.9H74.3l-6.1-19H47z M66.2,85.1l-5.3-16.5
				c-1.3-4.1-2.4-8.6-3.4-12.5h-0.2c-1,3.9-2,8.5-3.2,12.5L49,85.1H66.2z"/>
		</g>
		<g>
			<linearGradient id="SVGID_3_" gradientUnits="userSpaceOnUse" x1="29.1565" y1="78.5405" x2="135.5101" y2="78.5405">
				<stop  offset="0" style="stop-color:#BC9CC9"/>
				<stop  offset="1" style="stop-color:#A27EB9"/>
			</linearGradient>
			<path fill="url(#SVGID_3_)" d="M47,93l-5.8,19H28.7l21.4-66.9h15.6L87.4,112H74.3l-6.1-19H47z M66.2,83.8l-5.3-16.5
				c-1.3-4.1-2.4-8.6-3.4-12.5h-0.2c-1,3.9-2,8.5-3.2,12.5L49,83.8H66.2z"/>
		</g>
	</g>
	<g>
		<g opacity="0.1">
			<path fill="#010101" d="M103.6,92.6c0.3,8.7,7.1,12.5,14.9,12.5c5.7,0,9.7-0.8,13.4-2.2l1.8,8.4c-4.2,1.7-9.9,3.1-16.9,3.1
				c-15.7,0-24.9-9.7-24.9-24.5c0-13.4,8.1-26,23.6-26c15.8,0,20.8,12.9,20.8,23.5c0,2.3-0.2,4.1-0.4,5.2H103.6z M124.8,84
				c0.1-4.5-1.9-11.8-10-11.8c-7.5,0-10.7,6.8-11.2,11.8H124.8z"/>
		</g>
		<g>
			<linearGradient id="SVGID_4_" gradientUnits="userSpaceOnUse" x1="29.1568" y1="87.8191" x2="135.5102" y2="87.8191">
				<stop  offset="0" style="stop-color:#BC9CC9"/>
				<stop  offset="1" style="stop-color:#A27EB9"/>
			</linearGradient>
			<path fill="url(#SVGID_4_)" d="M103.6,91.2c0.3,8.7,7.1,12.5,14.9,12.5c5.7,0,9.7-0.8,13.4-2.2l1.8,8.4
				c-4.2,1.7-9.9,3.1-16.9,3.1c-15.7,0-24.9-9.7-24.9-24.5c0-13.4,8.1-26,23.6-26c15.8,0,20.8,12.9,20.8,23.5c0,2.3-0.2,4.1-0.4,5.2
				H103.6z M124.8,82.7c0.1-4.5-1.9-11.8-10-11.8c-7.5,0-10.7,6.8-11.2,11.8H124.8z"/>
		</g>
	</g>
</g>
</svg>
