<?xml version="1.0" encoding="utf-8"?>
<!-- Generator: Adobe Illustrator 20.1.0, SVG Export Plug-In . SVG Version: 6.00 Build 0)  -->
<svg version="1.1" id="Layer_1" xmlns="http://www.w3.org/2000/svg" xmlns:xlink="http://www.w3.org/1999/xlink" x="0px" y="0px"
	 width="166.6px" height="162.7px" viewBox="0 0 166.6 162.7" enable-background="new 0 0 166.6 162.7" xml:space="preserve">
<g>
	<linearGradient id="SVGID_1_" gradientUnits="userSpaceOnUse" x1="11.3481" y1="8.5318" x2="155.3063" y2="152.4901">
		<stop  offset="0" style="stop-color:#324665"/>
		<stop  offset="1" style="stop-color:#303F58"/>
	</linearGradient>
	<rect x="10.3" y="9.6" opacity="0.95" fill="url(#SVGID_1_)" width="146.1" height="141.8"/>
	<g>
		
			<image overflow="visible" opacity="0.4" width="694" height="678" xlink:href="B375CC759C3A47D6.png"  transform="matrix(0.24 0 0 0.24 0 0)">
		</image>
		<g>
			<g>
				<linearGradient id="SVGID_2_" gradientUnits="userSpaceOnUse" x1="3.9759" y1="2.6506" x2="162.347" y2="157.3772">
					<stop  offset="0" style="stop-color:#87D1D6"/>
					<stop  offset="1" style="stop-color:#66C8C7"/>
				</linearGradient>
				<path fill="url(#SVGID_2_)" d="M4,2.7v154.7h158.4V2.7H4z M149.8,145.1H16.9V15.2h132.9V145.1z"/>
			</g>
		</g>
	</g>
	<g>
		<g opacity="0.1">
			<path fill="#010101" d="M44.8,94.7l-5.8,19H26.4l21.4-66.9h15.6l21.7,66.9H72.1l-6.1-19H44.8z M63.9,85.5L58.7,69
				c-1.3-4.1-2.4-8.6-3.4-12.5h-0.2c-1,3.9-2,8.5-3.2,12.5l-5.2,16.5H63.9z"/>
		</g>
		<g>
			<linearGradient id="SVGID_3_" gradientUnits="userSpaceOnUse" x1="25.8425" y1="78.8717" x2="127.89" y2="78.8717">
				<stop  offset="0" style="stop-color:#87D1D6"/>
				<stop  offset="1" style="stop-color:#66C8C7"/>
			</linearGradient>
			<path fill="url(#SVGID_3_)" d="M44.8,93.4l-5.8,19H26.4l21.4-66.9h15.6l21.7,66.9H72.1l-6.1-19H44.8z M63.9,84.1l-5.3-16.5
				c-1.3-4.1-2.4-8.6-3.4-12.5h-0.2c-1,3.9-2,8.5-3.2,12.5l-5.2,16.5H63.9z"/>
		</g>
	</g>
	<g>
		<g opacity="0.1">
			<path fill="#010101" d="M135.9,99.1c0,5.8,0.2,10.5,0.4,14.5h-10.7l-0.6-7.3h-0.2c-2.1,3.5-6.8,8.4-15.5,8.4
				c-8.8,0-16.9-5.3-16.9-21V65.3h12.2v26.3c0,8,2.6,13.2,9,13.2c4.9,0,8-3.5,9.3-6.5c0.4-1.1,0.7-2.4,0.7-3.8V65.3h12.2V99.1z"/>
		</g>
		<g>
			<linearGradient id="SVGID_4_" gradientUnits="userSpaceOnUse" x1="25.8427" y1="88.696" x2="127.8891" y2="88.696">
				<stop  offset="0" style="stop-color:#87D1D6"/>
				<stop  offset="1" style="stop-color:#66C8C7"/>
			</linearGradient>
			<path fill="url(#SVGID_4_)" d="M135.9,97.8c0,5.8,0.2,10.5,0.4,14.5h-10.7L125,105h-0.2c-2.1,3.5-6.8,8.4-15.5,8.4
				c-8.8,0-16.9-5.3-16.9-21V64h12.2v26.3c0,8,2.6,13.2,9,13.2c4.9,0,8-3.5,9.3-6.5c0.4-1.1,0.7-2.4,0.7-3.8V64h12.2V97.8z"/>
		</g>
	</g>
</g>
</svg>
