<?xml version="1.0" encoding="utf-8"?>
<!-- Generator: Adobe Illustrator 20.1.0, SVG Export Plug-In . SVG Version: 6.00 Build 0)  -->
<svg version="1.1" id="Layer_1" xmlns="http://www.w3.org/2000/svg" xmlns:xlink="http://www.w3.org/1999/xlink" x="0px" y="0px"
	 width="166.6px" height="162.7px" viewBox="0 0 166.6 162.7" enable-background="new 0 0 166.6 162.7" xml:space="preserve">
<g>
	<linearGradient id="SVGID_1_" gradientUnits="userSpaceOnUse" x1="11.3477" y1="8.5312" x2="155.3058" y2="152.4892">
		<stop  offset="0" style="stop-color:#5F4522"/>
		<stop  offset="1" style="stop-color:#373316"/>
	</linearGradient>
	<rect x="10.3" y="9.6" opacity="0.95" fill="url(#SVGID_1_)" width="146.1" height="141.8"/>
	<g>
		
			<image overflow="visible" opacity="0.4" width="694" height="678" xlink:href="3B605E41F22D399B.png"  transform="matrix(0.24 0 0 0.24 0 0)">
		</image>
		<g>
			<g>
				<linearGradient id="SVGID_2_" gradientUnits="userSpaceOnUse" x1="3.9761" y1="2.6504" x2="162.3474" y2="157.3773">
					<stop  offset="0" style="stop-color:#FEC55F"/>
					<stop  offset="1" style="stop-color:#F99C1C"/>
				</linearGradient>
				<path fill="url(#SVGID_2_)" d="M4,2.7v154.7h158.4V2.7H4z M149.8,145.1H16.9V15.2h132.9V145.1z"/>
			</g>
		</g>
	</g>
	<g>
		<g opacity="0.1">
			<path fill="#010101" d="M61.7,94.5L56,113H43.7l21-65.5h15.2l21.3,65.5H88.4l-5.9-18.6H61.7z M80.4,85.4l-5.1-16.1
				c-1.3-4-2.3-8.5-3.3-12.2h-0.2c-1,3.8-1.9,8.4-3.1,12.2l-5.1,16.1H80.4z"/>
		</g>
		<g>
			<linearGradient id="SVGID_3_" gradientUnits="userSpaceOnUse" x1="42.5746" y1="78.9616" x2="117.6185" y2="78.9616">
				<stop  offset="0" style="stop-color:#FEC55F"/>
				<stop  offset="1" style="stop-color:#F99C1C"/>
			</linearGradient>
			<path fill="url(#SVGID_3_)" d="M61.7,93.1L56,111.7H43.7l21-65.5h15.2l21.3,65.5H88.4l-5.9-18.6H61.7z M80.4,84.1L75.3,68
				c-1.3-4-2.3-8.5-3.3-12.2h-0.2c-1,3.8-1.9,8.4-3.1,12.2l-5.1,16.1H80.4z"/>
		</g>
	</g>
	<g>
		<g opacity="0.1">
			<path fill="#010101" d="M118.6,52.5c0,3.6-2.6,6.4-6.8,6.4c-4,0-6.6-2.8-6.6-6.4c0-3.7,2.7-6.5,6.7-6.5
				C116,46,118.5,48.8,118.6,52.5z M105.9,113V65.7h12V113H105.9z"/>
		</g>
		<g>
			<linearGradient id="SVGID_4_" gradientUnits="userSpaceOnUse" x1="42.5731" y1="78.1843" x2="117.6191" y2="78.1843">
				<stop  offset="0" style="stop-color:#FEC55F"/>
				<stop  offset="1" style="stop-color:#F99C1C"/>
			</linearGradient>
			<path fill="url(#SVGID_4_)" d="M118.6,51.2c0,3.6-2.6,6.4-6.8,6.4c-4,0-6.6-2.8-6.6-6.4c0-3.7,2.7-6.5,6.7-6.5
				C116,44.7,118.5,47.5,118.6,51.2z M105.9,111.7V64.4h12v47.3H105.9z"/>
		</g>
	</g>
</g>
</svg>
