<?xml version="1.0" encoding="utf-8"?>
<!-- Generator: Adobe Illustrator 20.1.0, SVG Export Plug-In . SVG Version: 6.00 Build 0)  -->
<svg version="1.1" id="Layer_1" xmlns="http://www.w3.org/2000/svg" xmlns:xlink="http://www.w3.org/1999/xlink" x="0px" y="0px"
	 width="166.6px" height="162.7px" viewBox="0 0 166.6 162.7" enable-background="new 0 0 166.6 162.7" xml:space="preserve">
<g>
	<linearGradient id="SVGID_1_" gradientUnits="userSpaceOnUse" x1="11.3477" y1="8.5317" x2="155.3062" y2="152.4902">
		<stop  offset="0" style="stop-color:#322E7C"/>
		<stop  offset="1" style="stop-color:#272861"/>
	</linearGradient>
	<rect x="10.3" y="9.6" opacity="0.95" fill="url(#SVGID_1_)" width="146.1" height="141.8"/>
	<g>
		
			<image overflow="visible" opacity="0.4" width="694" height="678" xlink:href="5B6F572A7802018C.png"  transform="matrix(0.24 0 0 0.24 0 0)">
		</image>
		<g>
			<g>
				<linearGradient id="SVGID_2_" gradientUnits="userSpaceOnUse" x1="3.9758" y1="2.6507" x2="162.3466" y2="157.377">
					<stop  offset="0" style="stop-color:#9BC5E9"/>
					<stop  offset="1" style="stop-color:#7CB2E0"/>
				</linearGradient>
				<path fill="url(#SVGID_2_)" d="M4,2.7v154.7h158.4V2.7H4z M149.8,145.1H16.9V15.2h132.9V145.1z"/>
			</g>
		</g>
	</g>
	<g>
		<g opacity="0.1">
			<path fill="#010101" d="M45.6,48.3c4.3-0.8,10.2-1.4,18.3-1.4c8.7,0,15.2,1.8,19.3,5.3c3.9,3.2,6.4,8.4,6.4,14.5
				c0,6.2-1.9,11.4-5.6,14.9c-4.8,4.8-12.2,7-20.7,7c-2.2,0-4.3-0.1-5.8-0.4v24.7H45.6V48.3z M57.5,78.8c1.5,0.4,3.4,0.5,5.8,0.5
				c8.9,0,14.4-4.4,14.4-12c0-7.3-5.1-11.2-13.3-11.2c-3.3,0-5.6,0.3-6.9,0.6V78.8z"/>
		</g>
		<g>
			<linearGradient id="SVGID_3_" gradientUnits="userSpaceOnUse" x1="45.1848" y1="78.5471" x2="124.0385" y2="78.5471">
				<stop  offset="0" style="stop-color:#9BC5E9"/>
				<stop  offset="1" style="stop-color:#7CB2E0"/>
			</linearGradient>
			<path fill="url(#SVGID_3_)" d="M45.6,46.9c4.3-0.8,10.2-1.4,18.3-1.4c8.7,0,15.2,1.8,19.3,5.3c3.9,3.2,6.4,8.4,6.4,14.5
				c0,6.2-1.9,11.4-5.6,14.9c-4.8,4.8-12.2,7-20.7,7c-2.2,0-4.3-0.1-5.8-0.4v24.7H45.6V46.9z M57.5,77.4c1.5,0.4,3.4,0.5,5.8,0.5
				c8.9,0,14.4-4.4,14.4-12c0-7.3-5.1-11.2-13.3-11.2c-3.3,0-5.6,0.3-6.9,0.6V77.4z"/>
		</g>
	</g>
	<g>
		<g opacity="0.1">
			<path fill="#010101" d="M93.3,101.9c2.7,1.7,7.9,3.4,12.1,3.4c5.2,0,7.6-2.1,7.6-5.2c0-3.2-1.9-4.9-7.8-6.9
				c-9.2-3.2-13.1-8.3-13-13.8c0-8.4,6.9-14.9,17.9-14.9c5.2,0,9.8,1.4,12.5,2.8l-2.3,8.4c-2-1.2-5.8-2.7-10-2.7c-4.3,0-6.6,2-6.6,5
				c0,3,2.2,4.5,8.3,6.6c8.5,3.1,12.5,7.5,12.6,14.5c0,8.5-6.7,14.9-19.2,14.9c-5.7,0-10.9-1.5-14.4-3.4L93.3,101.9z"/>
		</g>
		<g>
			<linearGradient id="SVGID_4_" gradientUnits="userSpaceOnUse" x1="45.1847" y1="87.8715" x2="124.0402" y2="87.8715">
				<stop  offset="0" style="stop-color:#9BC5E9"/>
				<stop  offset="1" style="stop-color:#7CB2E0"/>
			</linearGradient>
			<path fill="url(#SVGID_4_)" d="M93.3,100.5c2.7,1.7,7.9,3.4,12.1,3.4c5.2,0,7.6-2.1,7.6-5.2c0-3.2-1.9-4.9-7.8-6.9
				c-9.2-3.2-13.1-8.3-13-13.8c0-8.4,6.9-14.9,17.9-14.9c5.2,0,9.8,1.4,12.5,2.8l-2.3,8.4c-2-1.2-5.8-2.7-10-2.7c-4.3,0-6.6,2-6.6,5
				c0,3,2.2,4.5,8.3,6.6c8.5,3.1,12.5,7.5,12.6,14.5c0,8.5-6.7,14.9-19.2,14.9c-5.7,0-10.9-1.5-14.4-3.4L93.3,100.5z"/>
		</g>
	</g>
</g>
</svg>
