<?xml version="1.0" encoding="utf-8"?>
<!-- Generator: Adobe Illustrator 20.1.0, SVG Export Plug-In . SVG Version: 6.00 Build 0)  -->
<svg version="1.1" id="Layer_1" xmlns="http://www.w3.org/2000/svg" xmlns:xlink="http://www.w3.org/1999/xlink" x="0px" y="0px"
	 width="166.6px" height="162.7px" viewBox="0 0 166.6 162.7" enable-background="new 0 0 166.6 162.7" xml:space="preserve">
<g>
	<linearGradient id="SVGID_1_" gradientUnits="userSpaceOnUse" x1="11.3471" y1="8.5315" x2="155.3061" y2="152.4905">
		<stop  offset="0" style="stop-color:#59233B"/>
		<stop  offset="1" style="stop-color:#412834"/>
	</linearGradient>
	<rect x="10.3" y="9.6" opacity="0.95" fill="url(#SVGID_1_)" width="146.1" height="141.8"/>
	<g>
		
			<image overflow="visible" opacity="0.4" width="694" height="678" xlink:href="1B0B682636EB87F.png"  transform="matrix(0.24 0 0 0.24 0 0)">
		</image>
		<g>
			<g>
				<linearGradient id="SVGID_2_" gradientUnits="userSpaceOnUse" x1="3.9757" y1="2.6508" x2="162.3463" y2="157.377">
					<stop  offset="0" style="stop-color:#E15AA1"/>
					<stop  offset="1" style="stop-color:#E23A95"/>
				</linearGradient>
				<path fill="url(#SVGID_2_)" d="M4,2.7v154.7h158.4V2.7H4z M149.8,145.1H16.9V15.2h132.9V145.1z"/>
			</g>
		</g>
	</g>
	<g>
		<g opacity="0.1">
			<path fill="#010101" d="M62.8,47.3v65.5H50.8V47.3H62.8z"/>
		</g>
		<g>
			<g>
				<linearGradient id="SVGID_3_" gradientUnits="userSpaceOnUse" x1="50.7195" y1="78.7549" x2="115.3377" y2="78.7549">
					<stop  offset="0" style="stop-color:#E15AA1"/>
					<stop  offset="1" style="stop-color:#E23A95"/>
				</linearGradient>
				<path fill="url(#SVGID_3_)" d="M62.8,46v65.5H50.8V46H62.8z"/>
			</g>
		</g>
	</g>
	<g>
		<g opacity="0.1">
			<path fill="#010101" d="M114.8,43.9v55.7c0,4.9,0.2,10.1,0.4,13.3h-9.8l-0.4-7.5h-0.2c-2.6,5.2-7.8,8.5-14.1,8.5
				c-10.3,0-18.5-9.6-18.5-24.2c-0.1-15.8,9-25.3,19.4-25.3c6,0,10.2,2.7,12.2,6.2h0.2V43.9H114.8z M103.9,85.2c0-1-0.1-2.1-0.3-3.1
				c-1-4.7-4.4-8.5-9.4-8.5c-7,0-10.9,6.8-10.9,15.6c0,8.6,3.9,15,10.8,15c4.4,0,8.4-3.3,9.4-8.4c0.3-1.1,0.4-2.2,0.4-3.5V85.2z"/>
		</g>
		<g>
			<linearGradient id="SVGID_4_" gradientUnits="userSpaceOnUse" x1="50.7202" y1="77.541" x2="115.3401" y2="77.541">
				<stop  offset="0" style="stop-color:#E15AA1"/>
				<stop  offset="1" style="stop-color:#E23A95"/>
			</linearGradient>
			<path fill="url(#SVGID_4_)" d="M114.8,42.5v55.7c0,4.9,0.2,10.1,0.4,13.3h-9.8l-0.4-7.5h-0.2c-2.6,5.2-7.8,8.5-14.1,8.5
				c-10.3,0-18.5-9.6-18.5-24.2c-0.1-15.8,9-25.3,19.4-25.3c6,0,10.2,2.7,12.2,6.2h0.2V42.5H114.8z M103.9,83.9c0-1-0.1-2.1-0.3-3.1
				c-1-4.7-4.4-8.5-9.4-8.5c-7,0-10.9,6.8-10.9,15.6c0,8.6,3.9,15,10.8,15c4.4,0,8.4-3.3,9.4-8.4c0.3-1.1,0.4-2.2,0.4-3.5V83.9z"/>
		</g>
	</g>
</g>
</svg>
