<?xml version="1.0" encoding="utf-8"?>
<!-- Generator: Adobe Illustrator 20.1.0, SVG Export Plug-In . SVG Version: 6.00 Build 0)  -->
<svg version="1.1" id="Layer_1" xmlns="http://www.w3.org/2000/svg" xmlns:xlink="http://www.w3.org/1999/xlink" x="0px" y="0px"
	 width="166.6px" height="162.7px" viewBox="0 0 166.6 162.7" enable-background="new 0 0 166.6 162.7" xml:space="preserve">
<g>
	<linearGradient id="SVGID_1_" gradientUnits="userSpaceOnUse" x1="10.2709" y1="9.6085" x2="156.383" y2="151.4133">
		<stop  offset="0" style="stop-color:#2D354B"/>
		<stop  offset="1" style="stop-color:#303042"/>
	</linearGradient>
	<rect x="10.3" y="9.6" fill="url(#SVGID_1_)" width="146.1" height="141.8"/>
	<g>
		
			<image overflow="visible" opacity="0.4" width="694" height="678" xlink:href="E226B9854C94A5A3.png"  transform="matrix(0.24 0 0 0.24 0 0)">
		</image>
		<g>
			<g>
				<linearGradient id="SVGID_2_" gradientUnits="userSpaceOnUse" x1="3.9757" y1="2.6508" x2="162.3463" y2="157.3769">
					<stop  offset="0" style="stop-color:#C1E1EC"/>
					<stop  offset="1" style="stop-color:#9AC1CD"/>
				</linearGradient>
				<path fill="url(#SVGID_2_)" d="M4,2.7v154.7h158.4V2.7H4z M149.8,145.1H16.9V15.2h132.9V145.1z"/>
			</g>
		</g>
	</g>
	<g>
		
			<image overflow="visible" opacity="0.1" width="199" height="312" xlink:href="E226B9854C94A5A1.png"  transform="matrix(0.24 0 0 0.24 45.8956 40.9911)">
		</image>
		<g>
			<linearGradient id="SVGID_3_" gradientUnits="userSpaceOnUse" x1="48.7028" y1="78.4074" x2="123.3584" y2="78.4074">
				<stop  offset="0" style="stop-color:#C1E1EC"/>
				<stop  offset="1" style="stop-color:#9AC1CD"/>
			</linearGradient>
			<path fill="url(#SVGID_3_)" d="M48.5,45h12.2v56.7h27.5v10.2H48.5V45z"/>
		</g>
	</g>
	<g>
		
			<image overflow="visible" opacity="0.1" width="148" height="240" xlink:href="E226B9854C94A5A7.png"  transform="matrix(0.24 0 0 0.24 93.9229 58.455)">
		</image>
		<g>
			<linearGradient id="SVGID_4_" gradientUnits="userSpaceOnUse" x1="48.7006" y1="87.1394" x2="123.3593" y2="87.1394">
				<stop  offset="0" style="stop-color:#C1E1EC"/>
				<stop  offset="1" style="stop-color:#9AC1CD"/>
			</linearGradient>
			<path fill="url(#SVGID_4_)" d="M97,79.1c0-6.5-0.1-11.2-0.4-15.6h10.6l0.4,9.2h0.4c2.4-6.8,8-10.3,13.2-10.3
				c1.2,0,1.9,0.1,2.9,0.3v11.5c-1-0.2-2.1-0.4-3.6-0.4c-5.9,0-9.8,3.8-10.9,9.2c-0.2,1.1-0.4,2.4-0.4,3.8v25H97V79.1z"/>
		</g>
	</g>
</g>
</svg>
