<svg xmlns="http://www.w3.org/2000/svg" width="182.38" height="200.29" viewBox="0 0 182.38 200.29">
  <defs>
    <style>
      .a, .h {
        fill: #fff;
      }

      .b {
        fill: #f29ac1;
      }

      .c {
        fill: #c07c9c;
      }

      .d {
        opacity: 0.21;
      }

      .e {
        fill: #f9d0e2;
      }

      .f {
        fill: #c680a0;
      }

      .g {
        fill: #faddea;
      }

      .h {
        opacity: 0.36;
      }

      .i {
        fill: #12352e;
      }

      .j {
        fill: none;
        stroke: #002e26;
        stroke-miterlimit: 10;
        stroke-width: 1.81px;
      }

      .k {
        fill: #df8fb4;
      }
    </style>
  </defs>
  <title>teeth</title>
  <g>
    <path class="a" d="M21.23,102.83a8.5,8.5,0,0,0-7.4-.47c-1.1.56-2.68,2.46-1.67,3.76,1.22.76,2,.66,2.91-.29a14.94,14.94,0,0,1,1.39-1.77A4.79,4.79,0,0,1,18.79,103a16.68,16.68,0,0,0,2.14-.14Z" transform="translate(-11.84 -20.92)"/>
    <path class="b" d="M101,30.65,117.56,29s10.38-.57,7,14.56c0,0-3.5,6.1,3.36,13S110.55,56,110.55,56L94.19,41.91Z" transform="translate(-11.84 -20.92)"/>
    <path class="c" d="M146.3,97.49s8.47-19.41-8.07-32c0,0-13.91-30.12-33.9-25C104.32,40.52,122.53,92.69,146.3,97.49Z" transform="translate(-11.84 -20.92)"/>
    <path class="a" d="M135.14,105.26a5.81,5.81,0,0,1,5.75.93,22.62,22.62,0,0,0,6.94,3.14l.29.1a7.39,7.39,0,0,1-.64,1.15l-3,2.55-.3.23a5.41,5.41,0,0,1-7.32-.91L133,110a2.81,2.81,0,0,1,.26-2Z" transform="translate(-11.84 -20.92)"/>
    <g class="d">
      <path class="e" d="M133.26,108c.12,1.44,1.27,2.74,3,2.09s3.35,1.21,4.86,2a26.27,26.27,0,0,0,3,1.28l.3-.23,3-2.55a7.39,7.39,0,0,0,.64-1.15l-.29-.1a22.61,22.61,0,0,1-6.94-3.14,5.81,5.81,0,0,0-5.75-.93l-.21.07A2.57,2.57,0,0,0,133.26,108Z" transform="translate(-11.84 -20.92)"/>
    </g>
    <path class="a" d="M121.73,105.43a5.1,5.1,0,0,0,0,.53,4.22,4.22,0,0,0,2.61,3.4,4.48,4.48,0,0,0,6.38,2.08c.75-.45,1.53-1,2.3-1.51,1.38-1,2.74-2.06,4-3.1,2.86-2.43,5-4.61,5-4.61l-11.68-5.6c-2.35,1.67-4.19,3.1-5.65,4.33-.61.51-1.13,1-1.61,1.41A4.16,4.16,0,0,0,121.73,105.43Z" transform="translate(-11.84 -20.92)"/>
    <path class="e" d="M121.73,105.43a5.1,5.1,0,0,0,0,.53,2.11,2.11,0,0,0,1.55-.08c1.29-.52,3.91,2.22,5,2.76a7.2,7.2,0,0,0,2.41.65c.55,0,1.09.06,1.63.07l.28.08a3.6,3.6,0,0,0,.44.5c1.38-1,2.74-2.06,4-3.1-.74-1.59-3.3-2.29-5.08-2.45-2.45-.22-4.71-2.78-7.24-3.43-.61.51-1.13,1-1.61,1.41A4.16,4.16,0,0,0,121.73,105.43Z" transform="translate(-11.84 -20.92)"/>
    <path class="b" d="M138.43,107s27.34,14.15,28.18.4-22.39-15.82-22.39-15.82,2.47-10.53-8.47-10.55c-5,0-5.87-1-5.33-2a12.76,12.76,0,0,0,.89-10.32c-3.07-8.35-9.39-20.86-20.39-23.84,0,0-3.62-.77-4.84.27s3.5-6.64,2.52-11.67,1.77-12.7-5.22-11.58S98.52,26,98.52,26s-11.45,7-12,13.44S110.25,106.65,138.43,107Z" transform="translate(-11.84 -20.92)"/>
    <path class="f" d="M24.83,121.72S82.18,136,89.31,118.2c3.31-8.25,7.37-8.42,10.77-6.23a10.64,10.64,0,0,1,1.32,16.67c-3.61,3.4-9.15,6.09-17.22,4.1-17.1-4.21-40.9,13-40.9,13S25,132.37,24.83,121.72Z" transform="translate(-11.84 -20.92)"/>
    <path class="b" d="M121.72,146.17s13.15-14,19-4.84-9.5,26.57-9.5,26.57-27.09,24.38-50.61,6.19a29.44,29.44,0,0,1-5.31-5.51c-.94-1.24-2.73-2.47-5.49-.1a13.45,13.45,0,0,1-17.32.29,39.47,39.47,0,0,1-5.42-5.57L41,156.34a22.53,22.53,0,0,1-4.1-6.51,5.58,5.58,0,0,1-.62-3.2s-1.9,3.89-10.29.38l-4.54-2.43a8.58,8.58,0,0,1-4-10.7l.22-.51s4-11.26,7.21-11.64,9.59-2.67,9.59-2.67S85.38,162.58,121.72,146.17Z" transform="translate(-11.84 -20.92)"/>
    <path class="g" d="M56.33,127.2s4.75,3.62,6,1.78l.19-3.75.15-3.07-2.15-2.37L57,118s-.76-1.32-.83,3.16C56.13,122.52,56.18,124.47,56.33,127.2Z" transform="translate(-11.84 -20.92)"/>
    <path class="a" d="M30.77,126.34s-7.27.45-1.54-12.74l.56-1.7a1.41,1.41,0,0,1,2.23-.66l3.22,2.6S37.5,127.39,30.77,126.34Z" transform="translate(-11.84 -20.92)"/>
    <path class="a" d="M30.91,129.25c1.79,2.53,3.38,3.12,4.75,2.59,4.12-1.63,6.26-13.5,6.26-13.5a10.07,10.07,0,0,0-.49-3.11c-1.73-4.93-7.28-2.6-7.28-2.6Z" transform="translate(-11.84 -20.92)"/>
    <polygon class="a" points="32.18 100.09 34.31 94.82 40.83 96.19 36.88 103.84 32.18 100.09"/>
    <path class="a" d="M39.54,134.56c1.74,3.44,3.37,3.42,4.66,2.23,1.79-1.65,3-5.55,3-5.55l4.95-7.46a2.27,2.27,0,0,0,.08-2.34,2.2,2.2,0,0,0-.86-.86l-8.54-4.78C39,121.53,39.23,134,39.54,134.56Z" transform="translate(-11.84 -20.92)"/>
    <path class="e" d="M106.12,143.4l4.33,7.78.08,0c.92.48,9.61,4.75,11.19-5.06l2.29-5.74a14.49,14.49,0,0,0-8.52-2h0a11.45,11.45,0,0,0-3.32.82Z" transform="translate(-11.84 -20.92)"/>
    <path class="a" d="M93.34,151.47a7.44,7.44,0,0,0,2,5,6.15,6.15,0,0,0,3.81,1.4,8.54,8.54,0,0,0,8.4-5.74l3.44-9.61.06-.17s-9.74-9.59-15.35-2.69C95.7,139.67,93,146.18,93.34,151.47Z" transform="translate(-11.84 -20.92)"/>
    <path class="a" d="M80,148.53a13.67,13.67,0,0,0,3.08,5.75,3.4,3.4,0,0,0,5.35-.17,19,19,0,0,0,3.13-7.56,31.44,31.44,0,0,0,.59-4.85l-8.44-3S78.66,142.49,80,148.53Z" transform="translate(-11.84 -20.92)"/>
    <path class="a" d="M71.86,154.22c3.48,1.2,6.24-4.06,7.9-9.48a41.58,41.58,0,0,0,1.71-8.36c.38-5.43-8.89-5-8.89-5a24.83,24.83,0,0,0-3.78,11.34A17.61,17.61,0,0,0,71.86,154.22Z" transform="translate(-11.84 -20.92)"/>
    <path class="a" d="M57.41,145.94a3.76,3.76,0,0,0,.17.44c.66,1.63,3.37,6.89,8.71.41l4.55-9.72.13-.28-.18-.06-10-3.25-2-.64Z" transform="translate(-11.84 -20.92)"/>
    <path class="g" d="M40.69,108.94" transform="translate(-11.84 -20.92)"/>
    <path class="a" d="M74.49,118.82l1.51,9a29.11,29.11,0,0,0,4.14.18c2.9-.08,6.36-.7,6.88-3.12l-2.29-6.57a18,18,0,0,0-3.72-.81C78.89,117.22,76.31,117.35,74.49,118.82Z" transform="translate(-11.84 -20.92)"/>
    <path class="a" d="M64.16,118.73l1.48,8.94s.17.87,1.69.34l.19-.07s5.56,1.36,6.32,0v-7.23a13.66,13.66,0,0,0-3.29-2.57c-1.36-.72-2.92-1.08-4.21-.12Z" transform="translate(-11.84 -20.92)"/>
    <path class="a" d="M46.74,144.73c3,3.62,7.17-2.46,9-5.6.48-.82.79-1.45.89-1.64l.07-.13,3.91-6.41a1.81,1.81,0,0,0-.64-2.51l-.38-.22-5.26-3a1.81,1.81,0,0,0-2.41.57l-.45.67L49.11,130A13.39,13.39,0,0,0,47.68,134C46.67,138.38,46.3,144.2,46.74,144.73Z" transform="translate(-11.84 -20.92)"/>
    <path class="a" d="M76.06,49.4,91.18,41.8s2.92-3.5,2.2-6.57a4.22,4.22,0,0,0-1.56-2.36s-11.35,3.95-16,9.5l0,0a10.37,10.37,0,0,0-.9,1.24S73.95,48.14,76.06,49.4Z" transform="translate(-11.84 -20.92)"/>
    <path class="a" d="M71.25,52.88a6.25,6.25,0,0,0,1.51,1.78S83.86,45,89.29,45.2a18.88,18.88,0,0,0,2.95-3.42c1.31-2.11,1.42-4.29-4.47-3.62,0,0-9.52,2.67-16.39,8.77A6.46,6.46,0,0,0,71.25,52.88Z" transform="translate(-11.84 -20.92)"/>
    <path class="a" d="M70.09,61.05c.13.36.28.73.45,1.13,1,2.42,2.53,5.36,4.17,5.61,2.1.31,11.79-7,16.65-10.79a8.89,8.89,0,0,0,3.55-6.12c.19-2.65-.33-5.81-3.55-6.72a5.91,5.91,0,0,0-3.68.19,6,6,0,0,0-.58.25C83.6,46.3,74.41,51,69.83,55.67l-.15,1.14A8.76,8.76,0,0,0,70.09,61.05Z" transform="translate(-11.84 -20.92)"/>
    <path class="a" d="M103.2,96.46l1.73,3.36.14.18a3,3,0,0,0,1.28.94,7.29,7.29,0,0,1,3.94,3.05,3.75,3.75,0,0,0,1.9,1.81c2,.51,11-10.84,11-10.84,2-2.39.94-4.18-.85-5.43a7.86,7.86,0,0,0-8.79,0Z" transform="translate(-11.84 -20.92)"/>
    <path class="a" d="M79.43,75.09v0A23.6,23.6,0,0,0,82,79.3l0,0c.22.3.36.46.36.46a19.57,19.57,0,0,0,6,5.44l.38.22a2.69,2.69,0,0,0,3.09-.27l5.14-4.29h0l5.36-4.48.44-.37a11.08,11.08,0,0,0,3.73-9.48c-.23-3.38-1.68-6.95-6.45-8.16a11.35,11.35,0,0,0-6.84.42,11.82,11.82,0,0,0-2,.94l-7.21,4.88h0l-4.34,2.94C77.58,69.5,78.23,72.52,79.43,75.09Z" transform="translate(-11.84 -20.92)"/>
    <path class="a" d="M92.14,86.85l.61,3.35a7.48,7.48,0,0,0,3.59,5.14,6.41,6.41,0,0,0,.87.43c1.12.46,2.19.55,3-.2l9.18-9a5.65,5.65,0,0,0,.66-.78,5.44,5.44,0,0,0,.56-5.14l-.06-.12a5.42,5.42,0,0,0-8.45-1.92Z" transform="translate(-11.84 -20.92)"/>
    <path class="e" d="M80.42,74.1v0L83,78.31l0,0c.22.3.36.46.36.46a19.6,19.6,0,0,0,6,5.44l.38.22a2.69,2.69,0,0,0,3.09-.27L98,79.89h0l2.19-6.11c-1.81,4.46-8.85,7.18-8.85,7.18l1.73-3.46-8-1.21V71.95l.9-4.23s-2.54,3.08-3.25.9,2.35-5,2.35-5h0l-4.34,2.94C78.57,68.51,79.22,71.53,80.42,74.1Z" transform="translate(-11.84 -20.92)"/>
    <path class="e" d="M93.29,58.8a2.55,2.55,0,0,0,4.24,1.58c.24-.23,3.14,1.32,3.43,1.53a4.84,4.84,0,0,1,2.2,3.45,14.42,14.42,0,0,1-1,8.42,2.47,2.47,0,0,0,.24,2.62l.44-.37a11.08,11.08,0,0,0,3.73-9.48c-.23-3.38-1.68-6.95-6.45-8.16A11.35,11.35,0,0,0,93.29,58.8Z" transform="translate(-11.84 -20.92)"/>
    <path class="h" d="M84.08,71c1.11-.71,2.17-1.43,3.17-2.19l3-2.28c2-1.54,3.91-3,6-4.52l0-.1a25.38,25.38,0,0,0-6.63,3.79A45.77,45.77,0,0,0,84,70.91Z" transform="translate(-11.84 -20.92)"/>
    <path class="h" d="M74.85,56.74C76,56,77,55.31,78,54.54l3-2.28c2-1.54,3.91-3,6-4.52l0-.1a25.36,25.36,0,0,0-6.63,3.79,45.92,45.92,0,0,0-5.6,5.22Z" transform="translate(-11.84 -20.92)"/>
    <path class="h" d="M81,70.51c1.11-.71,2.17-1.43,3.17-2.19l3-2.28c2-1.54,3.91-3,6-4.52l0-.1a25.33,25.33,0,0,0-6.63,3.79,45.73,45.73,0,0,0-5.6,5.22Z" transform="translate(-11.84 -20.92)"/>
    <path class="e" d="M70.54,62.18c1,2.42,2.53,5.36,4.17,5.61,2.1.31,12.34-7.11,17.21-10.91a8,8,0,0,0,3-6c.19-2.65-.33-5.81-3.55-6.72a5.91,5.91,0,0,0-3.68.19,3.66,3.66,0,0,0-1.05,2.27,5.57,5.57,0,0,0,1,3.11c1.41,2.43,1.75,1.81-.28,3.1a44.19,44.19,0,0,1-3.84,2.72c-1.21.6-2.57.63-3.71,1.5-1,.72-1.35,1.82-2.23,2.56-.46.39-5.62,3.22-6.3,2.86A2.37,2.37,0,0,0,70.54,62.18Z" transform="translate(-11.84 -20.92)"/>
    <path class="h" d="M73.74,61.24c1.11-.71,2.17-1.43,3.17-2.19l3-2.28c2-1.54,3.91-3,6-4.52l0-.1a25.35,25.35,0,0,0-6.63,3.79,45.69,45.69,0,0,0-5.6,5.22Z" transform="translate(-11.84 -20.92)"/>
    <path class="e" d="M71.25,52.88a2.46,2.46,0,0,0,1.46-1.49C74,48.12,78.2,47.09,81,45.51c3.43-2,6.65-5,10.9-3.81l.37.08c1.31-2.11,1.42-4.29-4.47-3.62,0,0-9.52,2.67-16.39,8.77A6.46,6.46,0,0,0,71.25,52.88Z" transform="translate(-11.84 -20.92)"/>
    <path class="e" d="M75.85,42.37c1.84-1.48,4.44-2.31,6.34-3.39,3.43-2,6.65-5,10.91-3.81l.29.06a4.22,4.22,0,0,0-1.56-2.36S80.48,36.82,75.85,42.37Z" transform="translate(-11.84 -20.92)"/>
    <path class="h" d="M72.26,49.57c1.11-.71,2.16-1.43,3.16-2.19l3-2.27c2-1.54,3.91-3,6-4.52l0-.1a25.34,25.34,0,0,0-6.63,3.79,45.66,45.66,0,0,0-5.6,5.22Z" transform="translate(-11.84 -20.92)"/>
    <path class="h" d="M77.42,40.9c1.25-.41,2.45-.84,3.61-1.33l3.46-1.45c1.14-.5,2.29-1,3.43-1.45s2.31-.94,3.54-1.4v-.1a25.35,25.35,0,0,0-7.37,2,45.66,45.66,0,0,0-6.73,3.64Z" transform="translate(-11.84 -20.92)"/>
    <path class="e" d="M92.14,86.85l.61,3.35a7.48,7.48,0,0,0,3.59,5.14,2,2,0,0,0,.8-1.43,9.37,9.37,0,0,0-.81-5.16l4.45-4.22c1.41-1.34,6.87-6.56,7.42-1A2.54,2.54,0,0,0,110,85.74a5.44,5.44,0,0,0,.56-5.14l-.06-.12a5.42,5.42,0,0,0-8.45-1.92Z" transform="translate(-11.84 -20.92)"/>
    <path class="e" d="M105.07,100a3,3,0,0,0,1.28.94,7.29,7.29,0,0,1,3.94,3.05,3.75,3.75,0,0,0,1.9,1.81c2,.51,11-10.84,11-10.84,2-2.39.94-4.18-.85-5.43a7.67,7.67,0,0,0-6.78-1,2.42,2.42,0,0,0,2.39,2.66,2.44,2.44,0,0,1,1.67,1.22c.81.26.69.64-.35,1.15a21.53,21.53,0,0,1-2.55,2.59c-1.2,1.22-2.47,2.85-3.84,4.15a3,3,0,0,0-2.27-1.37,2.27,2.27,0,0,0-2.06-1.17l-1.1.06A2.44,2.44,0,0,0,105.07,100Z" transform="translate(-11.84 -20.92)"/>
    <path class="h" d="M108.54,97.82c1-.56,2-1.13,2.95-1.75s1.84-1.24,2.76-1.85c1.81-1.27,3.59-2.45,5.53-3.77l0-.1a22.36,22.36,0,0,0-6.08,3,37.55,37.55,0,0,0-5.2,4.39Z" transform="translate(-11.84 -20.92)"/>
    <path class="h" d="M120.8,93.94c-1,.58-2,1.17-2.91,1.81s-1.82,1.28-2.72,1.91c-1.79,1.3-3.54,2.53-5.45,3.88l0,.1a22.38,22.38,0,0,0,6-3.14,37.61,37.61,0,0,0,5.1-4.5Z" transform="translate(-11.84 -20.92)"/>
    <path class="e" d="M110.53,151.23c.92.48,9.61,4.75,11.19-5.06l2.29-5.74-8.52-2h0a2.51,2.51,0,0,0,3.06,2.85c1.12-.3-.78,3.76-.86,3.94-.38.76-1.94,4.6-3.39,3.89A2.66,2.66,0,0,0,110.53,151.23Z" transform="translate(-11.84 -20.92)"/>
    <path class="g" d="M93.34,151.47a7.44,7.44,0,0,0,2,5,6.15,6.15,0,0,0,3.81,1.4,8.54,8.54,0,0,0,8.4-5.74l3.44-9.61c-1.06-1.06-2.92-1.26-3.74.47a83,83,0,0,1-4,8.37c-2.22,3.58-5.5,2-8.51.42A2.44,2.44,0,0,0,93.34,151.47Z" transform="translate(-11.84 -20.92)"/>
    <path class="e" d="M80,148.53a13.67,13.67,0,0,0,3.08,5.75,3.4,3.4,0,0,0,5.35-.17,19,19,0,0,0,3.13-7.56,2.53,2.53,0,0,0-2,.59,10,10,0,0,0-2.27,3.42l-.28.54c-.16.54-.38.6-.65.19a8.94,8.94,0,0,1-1.89-1.4A5.71,5.71,0,0,0,80,148.53Z" transform="translate(-11.84 -20.92)"/>
    <path class="e" d="M71.86,154.22c3.48,1.2,6.24-4.06,7.9-9.48a2.19,2.19,0,0,0-2.69,1.11c-.54,1-1.87,3.85-3,4.25-.67.23,0,.32-.56-.44a8.58,8.58,0,0,1-1.06-2.31c-.11-1.11,1-2.65,1.44-3.9a22.08,22.08,0,0,0,.9-4.53c.38-3.17-4.58-3.13-5,0a14.89,14.89,0,0,1-1,3.81A17.61,17.61,0,0,0,71.86,154.22Z" transform="translate(-11.84 -20.92)"/>
    <path class="e" d="M57.58,146.37c.66,1.63,3.37,6.89,8.71.41l4.55-9.72a1.7,1.7,0,0,0-.05-.34l-10-3.25a2.66,2.66,0,0,0,1.44,3.61c.74.29,2.27.61,3.35,1.1-.87,2.65-3.53,8.69-4.95,7.61A2,2,0,0,0,57.58,146.37Z" transform="translate(-11.84 -20.92)"/>
    <path class="e" d="M46.74,144.73c3,3.62,7.17-2.46,9-5.6-1-1.2-3-1.53-4,.26a10.77,10.77,0,0,1-1.44,2.16c0-.44,0-.88.08-1.32a16.56,16.56,0,0,0,.09-3.76A2.54,2.54,0,0,0,48,134l-.32,0C46.67,138.38,46.3,144.2,46.74,144.73Z" transform="translate(-11.84 -20.92)"/>
    <path class="e" d="M51.44,126.43a3.42,3.42,0,0,0,3,2.55,10.51,10.51,0,0,0,4.6-.53,2.06,2.06,0,0,0,.47-.23l-5.26-3a1.81,1.81,0,0,0-2.41.57Z" transform="translate(-11.84 -20.92)"/>
    <path class="h" d="M48.12,143.13c.57-1.18,1.09-2.35,1.54-3.53L51,136.1c.42-1.17.88-2.32,1.33-3.48s.92-2.32,1.44-3.53L53.7,129A25.34,25.34,0,0,0,50,135.73a45.72,45.72,0,0,0-2,7.38Z" transform="translate(-11.84 -20.92)"/>
    <path class="e" d="M39.54,134.56c1.74,3.44,3.37,3.42,4.66,2.23a2.09,2.09,0,0,0-1.46-1c-2.61-.55,2.48-12.32,2.65-13.9,0,0,0-.2.06-.43A12.13,12.13,0,0,0,50,122.62a2,2,0,0,0,2.15-1.19,2.2,2.2,0,0,0-.86-.86l-8.54-4.78C39,121.53,39.23,134,39.54,134.56Z" transform="translate(-11.84 -20.92)"/>
    <path class="e" d="M30.91,129.25c1.79,2.53,3.38,3.12,4.75,2.59a1,1,0,0,0,.06-.24s0-.1,0-.14a2.69,2.69,0,0,0-1.59-2.83c-.66-1.31,1.6-7.12,1.8-8.14a30.42,30.42,0,0,0,.62-4.7,21.34,21.34,0,0,1,2.33.37,2.41,2.41,0,0,0,2.52-.94c-1.73-4.93-7.28-2.6-7.28-2.6Z" transform="translate(-11.84 -20.92)"/>
    <path class="h" d="M40,114.83c-.49,1.22-.93,2.42-1.29,3.63L37.62,122c-.34,1.2-.72,2.38-1.08,3.57s-.75,2.38-1.19,3.62l.09.06a25.35,25.35,0,0,0,3.18-6.95,45.6,45.6,0,0,0,1.5-7.5Z" transform="translate(-11.84 -20.92)"/>
    <g class="d">
      <path class="a" d="M56.16,121.12a3.05,3.05,0,0,0,.64.31A5.85,5.85,0,0,1,60,124.11a2.22,2.22,0,0,0,2.59,1.13l.15-3.07-2.15-2.37L57,118S56.23,116.64,56.16,121.12Z" transform="translate(-11.84 -20.92)"/>
    </g>
    <path class="e" d="M67.33,128l.19-.07s5.56,1.36,6.32,0v-7.23a13.66,13.66,0,0,0-3.29-2.57,2.22,2.22,0,0,0,0,.53c.1,1.92.2,3.85.3,5.78,0,.07,0,.66,0,1.21l-.39-.08A2.62,2.62,0,0,0,67.33,128Z" transform="translate(-11.84 -20.92)"/>
    <path class="e" d="M80.14,128c2.9-.08,6.36-.7,6.88-3.12l-2.29-6.57a18,18,0,0,0-3.72-.81,2.8,2.8,0,0,0,.58,2.58,15.86,15.86,0,0,1,2.23,4l0,.12a15.51,15.51,0,0,1-1.67.15C80,124.18,79.34,126.46,80.14,128Z" transform="translate(-11.84 -20.92)"/>
    <path class="h" d="M120.29,141.45a18.36,18.36,0,0,0-1.19,4,29.9,29.9,0,0,0-.53,4.07,6.88,6.88,0,0,0,1-1.87,13.68,13.68,0,0,0,.56-2A12.4,12.4,0,0,0,120.29,141.45Z" transform="translate(-11.84 -20.92)"/>
    <path class="h" d="M105.93,144.54a18.47,18.47,0,0,0-1.19,4,29.89,29.89,0,0,0-.53,4.07,7,7,0,0,0,1-1.87,13.66,13.66,0,0,0,.56-2A12.4,12.4,0,0,0,105.93,144.54Z" transform="translate(-11.84 -20.92)"/>
    <path class="h" d="M89.17,143.51a18.48,18.48,0,0,0-1.19,4,29.91,29.91,0,0,0-.53,4.07,6.94,6.94,0,0,0,1-1.87,13.55,13.55,0,0,0,.56-2A12.38,12.38,0,0,0,89.17,143.51Z" transform="translate(-11.84 -20.92)"/>
    <path class="h" d="M31.39,113.77a18.41,18.41,0,0,0-1.19,4,29.88,29.88,0,0,0-.53,4.07,6.94,6.94,0,0,0,1-1.87,13.53,13.53,0,0,0,.56-2A12.37,12.37,0,0,0,31.39,113.77Z" transform="translate(-11.84 -20.92)"/>
    <path class="h" d="M67.5,138.72A18.36,18.36,0,0,0,65,142a29.76,29.76,0,0,0-2,3.6,6.93,6.93,0,0,0,1.6-1.38,13.55,13.55,0,0,0,1.25-1.66A12.39,12.39,0,0,0,67.5,138.72Z" transform="translate(-11.84 -20.92)"/>
    <path class="h" d="M35.41,114.15a40.89,40.89,0,0,0-1.19,6.06c-.26,2-.45,4.06-.53,6.14a14.8,14.8,0,0,0,1-3,29.88,29.88,0,0,0,.56-3A27.37,27.37,0,0,0,35.41,114.15Z" transform="translate(-11.84 -20.92)"/>
    <path class="h" d="M44.4,119.6a40.62,40.62,0,0,0-1.75,5.92c-.45,2-.83,4-1.1,6.07a14.92,14.92,0,0,0,1.27-2.85,30.49,30.49,0,0,0,.84-3A27.39,27.39,0,0,0,44.4,119.6Z" transform="translate(-11.84 -20.92)"/>
    <path class="i" d="M73.92,44.14c.06-.42.12-.68.12-.68l0-.16.08-.14c2.71-4.44,9.77-8,14.11-9.84l.56-.25c1.61-.67,2.66-1,2.7-1l.47-.16.39.31c2.15,1.69,2.59,4.3,1.26,7.32l-.76,1.73L92,39.53c-.15-.28-.83-.59-2.3-.59a16.21,16.21,0,0,0-1.78.11c-.13,0-.48.14-1,.32A47.17,47.17,0,0,0,82,41.31L81,41.8c-.35.16-.7.34-1.08.54l-1,.56c-.76.4-1.54.85-2.39,1.39-.29.18-.58.37-.87.57l-2,1.3ZM92.4,37.59a3.58,3.58,0,0,0-.77-3.68l-1.55.6-.56.24a45,45,0,0,0-11.09,6.3l.64-.33c.39-.2.77-.39,1.13-.56l1.08-.5a49.14,49.14,0,0,1,5.09-2c.73-.25,1.16-.37,1.16-.37l.13,0a18.34,18.34,0,0,1,2.06-.13A6.54,6.54,0,0,1,92.4,37.59Z" transform="translate(-11.84 -20.92)"/>
    <path class="i" d="M71.2,54.4c-3.06-3.61-.72-7.75-.62-7.92l.18-.23a35.92,35.92,0,0,1,3.55-2.74l1.17-.77c.89-.55,1.7-1,2.48-1.44l1.1-.59c.39-.2.77-.39,1.13-.56l1.08-.5a48.85,48.85,0,0,1,5.09-2c.73-.25,1.16-.37,1.16-.37l.13,0c3.36-.38,5.26.07,6,1.44s-.12,3.39-2.47,5.91l-.31.33-.45-.05a5.17,5.17,0,0,0-2.54.36l-.35.16c-2.26,1.1-10,5-15,9.1l-.69.57ZM90.13,43.05c1.61-1.8,2.11-3.08,1.89-3.52-.15-.28-.83-.59-2.3-.59a16.21,16.21,0,0,0-1.78.11c-.13,0-.48.14-1,.32A47.08,47.08,0,0,0,82,41.31L81,41.8c-.35.16-.7.34-1.08.54l-1,.56c-.76.4-1.54.85-2.37,1.38L75.33,45a34.27,34.27,0,0,0-3.24,2.49,5.46,5.46,0,0,0,0,5A90.85,90.85,0,0,1,86.7,43.79l.26-.12.17-.08a7,7,0,0,1,2.7-.54Z" transform="translate(-11.84 -20.92)"/>
    <path class="i" d="M74.57,68.69C72.75,68.42,71,66,69.24,61.37a9.72,9.72,0,0,1-.46-4.67L69,55.25l.21-.22a26.08,26.08,0,0,1,2.13-1.92c5-4.12,12.44-7.9,15.38-9.33l.26-.12.17-.08a7,7,0,0,1,3.47-.5,6.26,6.26,0,0,1,1,.2c3,.85,4.5,3.57,4.21,7.66-.11,1.66-.63,4.73-2.75,6.66a2.06,2.06,0,0,1-.59.4l-.14.08C89.62,60.19,78,68.71,74.86,68.71ZM87.86,45.25l-.35.16c-2.26,1.1-10,5-15,9.1-.69.56-1.27,1.08-1.78,1.58l-.11.84a7.92,7.92,0,0,0,.36,3.8c1.63,4.36,3.12,6,3.9,6.16h0c1.78,0,10.4-5.61,16.36-10.25a2.59,2.59,0,0,1,.46-.27.62.62,0,0,0,.14-.08c1.75-1.58,2.11-4.35,2.19-5.47.23-3.23-.75-5.18-2.88-5.78a4.5,4.5,0,0,0-.73-.14,5.05,5.05,0,0,0-.57,0A5.16,5.16,0,0,0,87.86,45.25Z" transform="translate(-11.84 -20.92)"/>
    <g>
      <path class="i" d="M60.58,130.34l-.53-.1-.16-.52a.87.87,0,0,0-.4-.5l-4.09-2.36,0-.49c-.4-8.11.21-8.76.58-9.15a1.17,1.17,0,0,1,1.62,0l3.55,1.82,2.52,2.77-.37,7.46-.16.22a2.17,2.17,0,0,1-1.86.9A3.58,3.58,0,0,1,60.58,130.34Zm1.21-7.85-1.79-2-2.82-1.45a43.31,43.31,0,0,0,0,6.71l3.24,1.86a2.74,2.74,0,0,1,1,.93l.14,0Z" transform="translate(-11.84 -20.92)"/>
      <path class="i" d="M30.71,127.25h0a4.4,4.4,0,0,1-1.06-.14l-.14,0c-.17,0-.35-.11-.54-.18a4.06,4.06,0,0,1-.87-.48,4.77,4.77,0,0,1-.56-.48,5.49,5.49,0,0,1-1.38-3.66c0-.32,0-.66,0-1,0-.19,0-.39,0-.58s.08-.68.15-1,.1-.5.15-.75a19.66,19.66,0,0,1,.58-2.14l.06-.19c0-.12.08-.24.11-.33s.13-.37.18-.51.15-.43.22-.61c.22-.59.47-1.21.72-1.77l.56-1.71a2.08,2.08,0,0,1,.34-.65,2.39,2.39,0,0,1,3.31-.42l2.51,2L32.22,127.3h-.75A5.17,5.17,0,0,1,30.71,127.25Zm2.39-14-1.65-1.33a.52.52,0,0,0-.75.13.39.39,0,0,0,0,.1L30.06,114c-.27.62-.5,1.21-.73,1.8-.07.16-.13.33-.2.54s-.12.33-.19.54-.06.18-.09.27l-.07.21a18.07,18.07,0,0,0-.53,2c-.05.23-.1.45-.14.66s-.1.63-.13.93,0,.32,0,.49,0,.59,0,.85a3.75,3.75,0,0,0,.87,2.46,3,3,0,0,0,.34.29,2.18,2.18,0,0,0,.48.26l.24.09.12,0a2.68,2.68,0,0,0,.72.11h0Z" transform="translate(-11.84 -20.92)"/>
      <path class="i" d="M30.17,129.78l-.22-.32,3.26-16.73.16-.75.44-.18a9.16,9.16,0,0,1,3.21-.62c1.95,0,5.29.8,5.76,6.18,0,.31,0,.63.05,1v.09l0,.09a50.64,50.64,0,0,1-1.41,5.61l0,.12c-.09.28-.18.57-.28.86-.16.49-.35,1-.54,1.48-1.66,4.22-3.62,6.35-5.82,6.35C33.17,132.93,31.68,131.9,30.17,129.78ZM41,117.52c-.27-3-1.56-4.53-4-4.53a7.31,7.31,0,0,0-2.08.33L31.88,129c1,1.36,2,2.07,2.85,2.07,1.35,0,2.81-1.85,4.14-5.21.18-.46.35-.93.51-1.39.09-.28.18-.56.27-.83l0-.12a50.11,50.11,0,0,0,1.34-5.3C41,118,41,117.76,41,117.52Z" transform="translate(-11.84 -20.92)"/>
      <path class="i" d="M44.38,117.72l1.22-3L54,116.47l-2.66,5.15Zm2.33-.93-.05.13,3.95,2.21.71-1.37Z" transform="translate(-11.84 -20.92)"/>
      <path class="i" d="M38.73,135c-.38-.73-.34-5.19.07-8.83l.06-.23c.18-.46.35-.93.51-1.39.09-.28.18-.56.27-.83l0-.12a50.08,50.08,0,0,0,1.34-5.3c0-.26,0-.5,0-.74l0-.25.1-.23a13.08,13.08,0,0,1,1-1.77l.47-.7,8.92,5,.34.19a3.16,3.16,0,0,1,1.1,4.5L48,131.63c-.43,1.4-2.3,6.79-5.36,6.79C41.18,138.42,39.91,137.29,38.73,135ZM42.8,117.6c0,.23,0,.46,0,.71v.09l0,.09a50.64,50.64,0,0,1-1.41,5.61l0,.12c-.09.28-.18.57-.28.86-.15.45-.32.91-.5,1.37a39.5,39.5,0,0,0-.21,7.76c.78,1.52,1.6,2.38,2.24,2.38,1.35,0,3-3.36,3.66-5.63l5.06-7.7a1.35,1.35,0,0,0-.47-1.92L43.11,117C43,117.2,42.9,117.4,42.8,117.6Z" transform="translate(-11.84 -20.92)"/>
      <path class="i" d="M110,152l-.23-.13-1.88-3.38,2.1-5.85c-.25-.22-.59-.52-1-.85l-1-.76,3.65-2.5.17-.09a12.66,12.66,0,0,1,4.86-1,15.56,15.56,0,0,1,7.83,2.22l.62.41-2.53,6.34c-1,5.82-4.35,7.05-7,7.05A12.88,12.88,0,0,1,110,152Zm6.67-12.7a10.86,10.86,0,0,0-4.08.78L111,141.12c.41.35.64.59.65.6l.41.41-2.21,6.18,1.22,2.2a10.91,10.91,0,0,0,4.47,1.15c2.91,0,4.63-1.84,5.24-5.63l2-5.2A13.89,13.89,0,0,0,116.68,139.27Z" transform="translate(-11.84 -20.92)"/>
      <path class="i" d="M99.11,158.78a7.06,7.06,0,0,1-4.38-1.64c-1.81-1.71-2.57-4.48-2.27-8.25a35.56,35.56,0,0,1,2.41-9.57l.13-.22a7.16,7.16,0,0,1,5.77-2.83c3.5,0,7,2.21,9.33,4.07a18.9,18.9,0,0,1,1.6,1.38l.41.41-3.69,10.31a9.45,9.45,0,0,1-8.82,6.35Zm9.87-17c-1.72-1.37-5.07-3.68-8.21-3.68a5.33,5.33,0,0,0-4.28,2.06A34.09,34.09,0,0,0,94.27,149c-.25,3.19.32,5.47,1.72,6.79A5.3,5.3,0,0,0,99.21,157a7.65,7.65,0,0,0,7.49-5.14l3.3-9.21C109.76,142.39,109.41,142.09,109,141.76Z" transform="translate(-11.84 -20.92)"/>
      <path class="i" d="M82.43,154.87c-2.67-3.17-3.84-6.39-3.47-9.56A11.66,11.66,0,0,1,83.23,138l.39-.29,9.53,3.4,0,.67A30.17,30.17,0,0,1,92,148.8l-.19.65h0a18.3,18.3,0,0,1-2.58,5.2,4.26,4.26,0,0,1-3.47,1.76A4.32,4.32,0,0,1,82.43,154.87Zm8.83-12.54L84,139.72a9.82,9.82,0,0,0-3.19,5.81c-.31,2.65.72,5.4,3.05,8.17a2.51,2.51,0,0,0,1.92.9,2.47,2.47,0,0,0,2-1,17,17,0,0,0,2.5-5.29l.14-.45A28.23,28.23,0,0,0,91.26,142.33Z" transform="translate(-11.84 -20.92)"/>
      <path class="i" d="M71.57,155.08l-.25-.09-.16-.2a18.73,18.73,0,0,1-3.07-13.91l1.62-3.55-.74-.24.31-.88a27.83,27.83,0,0,1,1.75-3.9c.24-.44.5-.9.78-1.36l.25-.42.49,0h.54a17.49,17.49,0,0,1,5,.69l.15,0c3.64,1.21,4.26,3.51,4.14,5.23a42.68,42.68,0,0,1-1.93,9.15c-1.42,4.43-3.9,9.7-7.59,9.7A4,4,0,0,1,71.57,155.08Zm6.09-22.13a15.71,15.71,0,0,0-4.55-.65l-.49.87a26.68,26.68,0,0,0-1.3,2.77l.9.29-2.36,5a17.5,17.5,0,0,0,2.54,12.17,2.07,2.07,0,0,0,.44,0c2,0,4.17-3.16,5.87-8.44a41,41,0,0,0,1.85-8.72c0-.57.16-2.31-2.76-3.33Z" transform="translate(-11.84 -20.92)"/>
      <path class="i" d="M56.55,146.21l-.06-.18,1.32-12.27,1.12-1.85,13.3,4.33-5.11,10.93-.12.19c-1.9,2.31-3.75,3.48-5.49,3.48C58,150.84,56.61,146.4,56.55,146.21Zm13.17-8.89-10-3.25-.16.27-1.24,11.48c.26.67,1.34,3.2,3.17,3.2,1.14,0,2.53-.94,4-2.73Z" transform="translate(-11.84 -20.92)"/>
      <path class="j" d="M40.69,108.94" transform="translate(-11.84 -20.92)"/>
      <path class="i" d="M75.88,128.68l-.67-.09-1.7-10.13.41-.33a8.54,8.54,0,0,1,5.51-1.67,18.56,18.56,0,0,1,5.61,1l.41.15L88,124.77l-.05.25c-.54,2.52-3.5,3.85-8.54,3.85A29.5,29.5,0,0,1,75.88,128.68ZM84,119a16.79,16.79,0,0,0-4.6-.72,7.25,7.25,0,0,0-3.95,1l1.3,7.72c.59.05,1.53.12,2.58.12,1.81,0,6-.22,6.71-2.2Z" transform="translate(-11.84 -20.92)"/>
      <path class="i" d="M71.81,129.44a21.82,21.82,0,0,1-4.23-.55c-1.65.55-2.68-.23-2.84-1.07l-1.6-9.69,2.76-.95a3.85,3.85,0,0,1,2.21-.68c3.11,0,6.25,3.42,6.38,3.57l.24.26v7.81l-.11.2c-.6,1.1-2.26,1.11-2.82,1.11Zm1.11-8.4c-.93-.94-3.05-2.73-4.8-2.73a2,2,0,0,0-1.26.41l-1.68.62,1.31,7.94a2.17,2.17,0,0,0,.69-.18l.27-.11.28.07a21.25,21.25,0,0,0,4.07.57,3.83,3.83,0,0,0,1.12-.12Z" transform="translate(-11.84 -20.92)"/>
      <path class="i" d="M46,145.28a2.68,2.68,0,0,1-.36-1.68c-.09-2.95.84-11.34,2.71-14.17l2.76-4.18a2.78,2.78,0,0,1,3.62-.85l5.65,3.26a2.73,2.73,0,0,1,1,3.76l-3.93,6.44c-.05.12-.19.38-.39.75-1.63,3-4.86,8.14-8.2,8.14A3.63,3.63,0,0,1,46,145.28ZM53.84,126a.92.92,0,0,0-1.19.28l-2.73,4.14-.05.07c-1.51,2.28-2.49,10.07-2.4,13.1a4.51,4.51,0,0,0,0,.69,1.78,1.78,0,0,0,1.32.69c1.67,0,4.26-2.82,6.6-7.18.16-.31.29-.54.34-.67l4-6.62a.89.89,0,0,0,.08-.75.87.87,0,0,0-.4-.5l-2.54-1.46Z" transform="translate(-11.84 -20.92)"/>
    </g>
    <path class="i" d="M143.27,144.46a9.84,9.84,0,0,0-1.26-3.54l-.12-.2-.08-.13-.06-.08-.24-.34a9.39,9.39,0,0,0-.63-.76,7.75,7.75,0,0,0-1.49-1.27,7,7,0,0,0-3.75-1.13,10.49,10.49,0,0,0-3.62.64,22.62,22.62,0,0,0-6,3.39,39.53,39.53,0,0,0-5,4.53l-.19.21,0,.27h0a9.72,9.72,0,0,1-1.07,3.27,4.45,4.45,0,0,1-2.32,2,6.25,6.25,0,0,1-3.26.18,11.85,11.85,0,0,1-3.07-1l-.78-1.41-.3-.53-.63.07-1,.13-.56.07-.19.53c-.36,1-.72,2.07-1.08,3a7.89,7.89,0,0,1-1.59,2.38,7.52,7.52,0,0,1-5.1,2.29,6.69,6.69,0,0,1-2.76-.49,3.8,3.8,0,0,1-1.06-.64,5.49,5.49,0,0,1-.48-.53,4.24,4.24,0,0,1-.37-.55,10.12,10.12,0,0,1-.89-5.73l.06-.83-.83-.14q-1.1-.18-2.19-.41l-.1,0h-.79l-.19.66a17.45,17.45,0,0,1-2.14,4.77l-.34.49-.22.27c-.07.08-.11.1-.16.16a2.51,2.51,0,0,1-.85.5,2.47,2.47,0,0,1-2-.16,2.7,2.7,0,0,1-.79-.64c-.3-.36-.55-.68-.81-1a14,14,0,0,1-1.32-2.22,8.9,8.9,0,0,1-.88-4.87l.09-.72-.7-.24-.21-.07-.94-.33-.29.88a26.35,26.35,0,0,1-2.49,5.69,8,8,0,0,1-1.87,2.18,2.32,2.32,0,0,1-2,.5A14.05,14.05,0,0,1,71,150.85a17.23,17.23,0,0,1-1-3.14,18.79,18.79,0,0,1-.17-6.57l.89-6.1-2.61,5.59-2.64,5.65a11.87,11.87,0,0,1-1.91,1.88,3.65,3.65,0,0,1-2.18.87,2.64,2.64,0,0,1-1.9-1.07,7.34,7.34,0,0,1-1.21-2.14l1.1-10.15.07-.62-.57-.29-.52-.29-.77-.45-.46.76-1,1.72a9.2,9.2,0,0,0-.52.93l-.46.86a30.87,30.87,0,0,1-2.1,3.28,12.74,12.74,0,0,1-2.56,2.7,3.37,3.37,0,0,1-1.42.65,1.52,1.52,0,0,1-1.2-.34,3,3,0,0,1-.28-.25l-.07-.08a5.43,5.43,0,0,1-.06-.71c0-.62,0-1.28.05-1.93.08-1.31.23-2.62.41-3.92s.42-2.6.72-3.86a11.5,11.5,0,0,1,1.27-3.43l.53-.78-.77-.5-.77-.5-.75-.49-.5.75-1.25,1.88-.07.1,0,.14a16.35,16.35,0,0,1-2.09,4.43,2.73,2.73,0,0,1-1.45,1.18c-.37.09-.9-.23-1.38-.82a7.42,7.42,0,0,1-.66-1l-.29-.53,0-.06,0-.23c-.07-.79-.08-1.67-.07-2.52a51.16,51.16,0,0,1,.32-5.13l.77-6.8-2.51,6.36a19.57,19.57,0,0,1-1.33,2.78,6.33,6.33,0,0,1-1.82,2.1,1.79,1.79,0,0,1-2.08,0A6.83,6.83,0,0,1,31.88,129l.48-2.46.21-1.06-1.1,0a4.36,4.36,0,0,1-.56,0h-.35l-.19,0a3.44,3.44,0,0,1-.39-.08l-.13,0h-.29l-.16.06a3.58,3.58,0,0,1-1.71.21c-.29,0,.39-.69.1-.79-.13,0,.13-.67,0-.74l-1.17-2.45v-1l-1.48.16-.41.06-.3.05a2.63,2.63,0,0,0-.35.11,3.85,3.85,0,0,0-1,.61,8.52,8.52,0,0,0-1.38,1.49,23.8,23.8,0,0,0-2,3.22,59,59,0,0,0-3,6.76l0-.08a9.47,9.47,0,0,0-.89,3.48,9.27,9.27,0,0,0,.5,3.56A9.69,9.69,0,0,0,21,145.37l4.54,2.44,0,0,0,0a18.84,18.84,0,0,0,5.6,1.5,8.42,8.42,0,0,0,3.07-.27,6.43,6.43,0,0,0,1.16-.51s0,.09,0,.13a13.91,13.91,0,0,0,.62,1.84c.21.54.49,1.16.78,1.73s.6,1.12.93,1.66A24.73,24.73,0,0,0,40,157l2.37,2.77c1.56,1.84,3.19,3.67,4.69,5.52a34.52,34.52,0,0,0,5.43,5.28,14.6,14.6,0,0,0,7.51,2.7,15.2,15.2,0,0,0,7.84-1.57,13.58,13.58,0,0,0,1.75-1c.28-.19.55-.39.82-.6l.71-.58a4.09,4.09,0,0,1,1.09-.63,1.31,1.31,0,0,1,.81-.06,1.69,1.69,0,0,1,.75.51l.2.23.28.36.58.73a32.46,32.46,0,0,0,30.81,11.45,49,49,0,0,0,14.21-4.75c14.73-7.82,22.1-23.58,22.75-25.81A16.45,16.45,0,0,0,143.27,144.46Zm-95.74-.15h0Zm-7.16-10.12,0,0Zm99.52,16.53a32,32,0,0,1-2.52,5.72,62.28,62.28,0,0,1-7.29,10.31,59.31,59.31,0,0,1-11.71,7.62,45.61,45.61,0,0,1-13.25,4.34,31.29,31.29,0,0,1-13.62-.83,30,30,0,0,1-11.78-6.78,29.64,29.64,0,0,1-2.31-2.53l-.55-.69-.28-.36c-.12-.16-.25-.31-.39-.46a4.92,4.92,0,0,0-2.27-1.41,4.59,4.59,0,0,0-2.76.14,7.21,7.21,0,0,0-2,1.17l-.69.57c-.21.16-.42.33-.64.48a12.74,12.74,0,0,1-1.37.84,12.09,12.09,0,0,1-6.2,1.39,11.67,11.67,0,0,1-6-2,32.07,32.07,0,0,1-5.06-4.71c-1.58-1.88-3.27-3.58-4.9-5.38l-2.46-2.66a22.51,22.51,0,0,1-2.14-2.72c-.32-.48-.62-1-.9-1.48s-.53-1-.79-1.55a12.39,12.39,0,0,1-.62-1.56c-.12-.34-.27-.73-.34-1,0,0,0-.13,0-.13a.4.4,0,0,1,0-.13s-.39-1.29-1.17-.74l-.3.21s-.1,0-.11.08a7.1,7.1,0,0,1-1.59.86,6.65,6.65,0,0,1-2.41.2,17.06,17.06,0,0,1-5-1.35l-4.49-2.41a7.87,7.87,0,0,1-3.71-4.35,7.43,7.43,0,0,1-.41-2.86,7.58,7.58,0,0,1,.72-2.81l0,0,0,0a57.78,57.78,0,0,1,2.85-6.53,22.11,22.11,0,0,1,1.82-3A6.8,6.8,0,0,1,24.22,123l.25-.18,2.47.2.61,1.14.28,1.35c.44.29.66.18,1.07.34s-.19.19.25.25c.77.1.06.88.8.64.12,0,.06.46.18.47l.26,0L30,129.08l-.08.39.23.31a9.14,9.14,0,0,0,2.52,2.53,3.93,3.93,0,0,0,2,.61,3.66,3.66,0,0,0,2-.6,6.82,6.82,0,0,0,1.81-1.82c0,.32,0,.63,0,.95,0,.9,0,1.77.08,2.71,0,.12,0,.24.05.4a1.64,1.64,0,0,0,.13.4l.08.15.34.61a9.43,9.43,0,0,0,.83,1.19A4.79,4.79,0,0,0,41.18,138a2.76,2.76,0,0,0,1.86.38,4.35,4.35,0,0,0,2.63-1.89,13.86,13.86,0,0,0,.86-1.4q-.22,1.16-.39,2.33c-.19,1.35-.34,2.7-.43,4.07,0,.69-.07,1.37-.06,2.09a5.65,5.65,0,0,0,.13,1.22,1.41,1.41,0,0,0,.13.33l.07.11.07.09h0l0,0,.2.22a4.56,4.56,0,0,0,.47.42,3.36,3.36,0,0,0,2.56.71,5.1,5.1,0,0,0,2.22-1,14.43,14.43,0,0,0,3-3.09,32.71,32.71,0,0,0,2.23-3.48l.49-.91.13-.26-.85,7.84,0,.2.06.17a9.09,9.09,0,0,0,1.62,2.92,4.44,4.44,0,0,0,3.22,1.7,5.4,5.4,0,0,0,3.32-1.23A13.79,13.79,0,0,0,67,147.36l.07-.09,0-.11.82-1.75a19.69,19.69,0,0,0,.35,2.67,19.13,19.13,0,0,0,1.07,3.47,15.16,15.16,0,0,0,1.8,3.24l.15.2.26.09a3.92,3.92,0,0,0,2.07.13,4.63,4.63,0,0,0,1.8-.84,9.73,9.73,0,0,0,2.33-2.68,22.48,22.48,0,0,0,1.44-2.79,11.79,11.79,0,0,0,.8,2.26,15.85,15.85,0,0,0,1.5,2.51c.27.38.6.79.88,1.14a4.52,4.52,0,0,0,1.33,1.09,4.3,4.3,0,0,0,4.9-.61c.11-.11.25-.24.33-.33l.22-.27c.21-.28.3-.42.45-.65a18.75,18.75,0,0,0,2.11-4.48l.68.13a11.05,11.05,0,0,0,1.17,6,5.78,5.78,0,0,0,.53.78,7,7,0,0,0,.59.66,5.37,5.37,0,0,0,1.65,1.05,8.47,8.47,0,0,0,3.52.63,9.33,9.33,0,0,0,6.34-2.84,9.73,9.73,0,0,0,2-2.94c.34-.86.61-1.64.9-2.44l.58,1,.13.24.22.11a13.59,13.59,0,0,0,3.85,1.34,8,8,0,0,0,4.21-.26,6.28,6.28,0,0,0,3.26-2.84,11.16,11.16,0,0,0,1.23-3.58,39.18,39.18,0,0,1,4.72-3.91,20.48,20.48,0,0,1,5.47-2.88,5.82,5.82,0,0,1,5.23.4,5.28,5.28,0,0,1,1,.89c.15.18.28.35.4.51l.22.34.06.09,0,0,.08.15a7.23,7.23,0,0,1,.86,2.61A13.76,13.76,0,0,1,139.89,150.71Z" transform="translate(-11.84 -20.92)"/>
    <path class="i" d="M58,133.5l1.85-3a.89.89,0,0,0,.09-.74l-.48-1.46,1.51.29a1.33,1.33,0,0,0,.57,0l.11-2.38.88,0,2.24,0h1.6l.17,1.07a2.17,2.17,0,0,0,.69-.18l.27-.11.28.07a21.21,21.21,0,0,0,4.07.57,3.83,3.83,0,0,0,1.12-.12v-1.69l.8-.1c.64-.08,1.27-.18,1.89-.27l.89-.14.27,1.65c.59.05,1.53.12,2.58.12,1.81,0,6-.22,6.71-2.2l-1-2.85.51-.4a9,9,0,0,0,2.88-3.75c2.13-5.3,4.84-8,8.07-8a7.49,7.49,0,0,1,4,1.34,11.18,11.18,0,0,1,5.1,8.44,11.69,11.69,0,0,1-3.65,9.65c-4.86,4.56-11,6.05-18.06,4.31a22.86,22.86,0,0,0-5.48-.63h-.54l-.29,0a15.71,15.71,0,0,0-4.55-.65l-.49.88-.21.38-.42.08a52,52,0,0,0-7.1,1.93l-.29.1Zm13.84-2.55.25-.42.49,0h.54a17.47,17.47,0,0,1,5,.69h.4a24.66,24.66,0,0,1,5.92.69c6.42,1.58,12,.26,16.38-3.87a9.89,9.89,0,0,0,3.09-8.16,9.38,9.38,0,0,0-4.27-7.09,5.74,5.74,0,0,0-3.05-1c-2.41,0-4.56,2.3-6.39,6.85a10.64,10.64,0,0,1-2.94,4.08l.75,2.15-.05.25c-.54,2.52-3.5,3.85-8.54,3.85a29.5,29.5,0,0,1-3.49-.2l-.67-.09-.2-1.22-.27,0v.72l-.11.2c-.6,1.11-2.27,1.11-2.82,1.11a21.82,21.82,0,0,1-4.23-.55c-1.51.51-2.51-.1-2.78-.86H63.33l-.06,1.27-.16.22a2.1,2.1,0,0,1-1.39.86,2.75,2.75,0,0,1-.37,1.05l-.65,1.06,3.88,1.27a54.07,54.07,0,0,1,6.64-1.82Z" transform="translate(-11.84 -20.92)"/>
    <polygon class="i" points="86.23 117.24 90.98 121.34 90.84 120.8 89.52 126.32 89.6 126.21 86.86 128.42 89.84 126.55 89.89 126.52 89.92 126.44 91.88 121.11 91.98 120.83 91.73 120.56 87.49 115.94 86.23 117.24"/>
    <polygon class="i" points="48.34 112.38 48.29 117.31 48.29 117.44 48.32 117.49 49.86 120.01 48.94 117.21 48.97 117.39 50.14 112.61 48.34 112.38"/>
    <path class="i" d="M80.53,74.28l1.9-3.39-.58.4,5.7-1.59-.31,0a17.06,17.06,0,0,0,2.4.49,16.5,16.5,0,0,0,2.41.15,8.94,8.94,0,0,0,4.6-1.17,8.67,8.67,0,0,1-4.57.6,15.72,15.72,0,0,1-2.28-.42,16.18,16.18,0,0,1-2.17-.72l-.12-.05-.19,0-5.85.9-.32,0-.26.35L78.59,73Z" transform="translate(-11.84 -20.92)"/>
    <path class="i" d="M54.15,140.19,56.73,139c.64-.31,1.31-.62,2-.92l.48-.21.81-7.67-4.23,6.94c-.06.13-.18.35-.34.67Z" transform="translate(-11.84 -20.92)"/>
    <path class="i" d="M88.37,86.22,88,86c-1.21-.69-3.69-3.32-5.75-6.11A29.9,29.9,0,0,1,78.73,74c-1.7-4-.71-6.09.42-7.1L90.85,59A13.68,13.68,0,0,1,92.71,58a12.43,12.43,0,0,1,7.65-.54c4.35,1.1,6.82,4.21,7.14,9a12,12,0,0,1-4,10.23L92.5,85.86a3.59,3.59,0,0,1-4.13.36Zm5-26.49a11.75,11.75,0,0,0-1.56.76l-11.5,7.79c-1.2,1.12-.62,3.33.09,5a27.43,27.43,0,0,0,3.3,5.54,26.93,26.93,0,0,0,5.2,5.61l.38.22a1.82,1.82,0,0,0,2.05-.18l10.36-8.65.59-.5a10.23,10.23,0,0,0,3.4-8.72c-.27-4-2.21-6.44-5.77-7.34A10.14,10.14,0,0,0,97.4,59,10.81,10.81,0,0,0,93.38,59.74Z" transform="translate(-11.84 -20.92)"/>
    <path class="i" d="M89.84,43.37l-1.25,1.33,1.81.19a4.43,4.43,0,0,1,.72.14c2.14.6,3.11,2.55,2.88,5.78a8.41,8.41,0,0,1-2.34,5.43l-.48.43.25.59c.14.34.23.59.32.83a11.76,11.76,0,0,0,.46,1.16l.36.78.8-.32a10.6,10.6,0,0,1,6.53-.47c3.56.9,5.51,3.37,5.77,7.34a10.23,10.23,0,0,1-3.4,8.72l-1.18,1,.39.66.36.59c-.13.09-.26.18-.38.29l-9.93,8.29-.41.34.71,3.87a8.36,8.36,0,0,0,5,6.25,5,5,0,0,0,1.89.42,2.83,2.83,0,0,0,2-.81L109,88.11q.84,1.1,1.71,2.18L102,96.16l2.19,4.21a4,4,0,0,0,1.85,1.43,6.34,6.34,0,0,1,3.45,2.67,4.39,4.39,0,0,0,2.45,2.22,1.45,1.45,0,0,0,.36,0c.59,0,2,0,7.81-6.73.75.63,1.5,1.23,2.25,1.78a5,5,0,0,0-1.56,3.65,5.13,5.13,0,0,0,2.87,4.62,5.42,5.42,0,0,0,4.81,2.92,5.31,5.31,0,0,0,2.72-.75c.54-.32,1.13-.71,1.78-1.15l3.21,2.08a6.32,6.32,0,0,0,8.81.69l2.36-2a37.94,37.94,0,0,0,11.81,2.51c6.55,0,8.15-3.73,8.35-6.86.66-10.68-12.15-14.71-18.62-16.06,1.14-6.63,1-18.07-9.94-26.57-.78-1.64-5.91-12-14.17-19.12a6.88,6.88,0,0,1,.6-1.79l.1-.25c1.26-5.69.79-10-1.4-12.68a8.31,8.31,0,0,0-6.38-3h-.2l-8.24.83c0-2.74,0-5.33-1.47-6.84-1-1-2.52-1.35-4.56-1-3.24.52-5.12,1.49-5.73,3a2.63,2.63,0,0,0-.12,1.64,41.4,41.4,0,0,0-8.92,7.68l-2.26,2.78,3.31-1.37c.92-.38,1.66-.66,2.11-.83,1.14,1.15,1.26,2.78.36,4.84l-.17.39.19.38C92.25,40,91.67,41.41,89.84,43.37Zm33.9-.15a8.22,8.22,0,0,0-.5,1.27l-.4-.29-.79-.58c-.35-.25-.7-.48-1-.71l-.8-.5c-.35-.21-.7-.41-1-.6l-.8-.43c-.36-.18-.71-.34-1.07-.5l-.79-.34c-.37-.15-.74-.27-1.1-.4l-.76-.26c-.39-.12-.79-.21-1.18-.3l-.69-.17c-.48-.1-1-.16-1.43-.22l-.44-.06c-.61-.06-1.21-.1-1.82-.1,0-.16.06-.3.1-.46s.1-.46.15-.68c.08-.38.14-.74.19-1.1,0-.2.06-.4.08-.6,0-.37,0-.71.05-1.05,0-.15,0-.31,0-.46a8.58,8.58,0,0,0-.14-1.35,10.61,10.61,0,0,1-.15-1.1c0-.08,0-.16,0-.25,0-.38,0-.78-.05-1.21,0,0,0,0,0,0l8.38-.85a6.62,6.62,0,0,1,5,2.31C124.48,34.45,124.84,38.16,123.74,43.22Zm23.38,47.89h0l-.89-.14-.2,0-.71-.1c.2-1.65.29-5-1.72-7.54-1.63-2.07-4.25-3.12-7.79-3.12s-4.38-.5-4.55-.65l0-.05a13.57,13.57,0,0,0,.94-11,64.2,64.2,0,0,0-4.27-9.36c-4.61-8.23-10.24-13.29-16.73-15a14.9,14.9,0,0,0-2.83-.31,8.05,8.05,0,0,0-1,.05l.28-.7.09-.22.22-.56.12-.33.19-.52.15-.41.07-.2H109c4.76,0,9.56,2,14.26,6,8.73,7.35,14.13,18.93,14.18,19l.09.2.18.14C148.07,74.11,148.18,84.87,147.12,91.12Zm-12.54,18.81.22-.17.87-.67.37-.29.86-.7.24-.2c.36,0,.71,0,1.06.06.77.39,3.6,1.79,7.2,3.18l-1.56,1.31a4.5,4.5,0,0,1-6.34-.57l-.21-.18Zm-11.95-4.5a3.24,3.24,0,0,1,1.06-2.41l.19-.18a34.3,34.3,0,0,0,5.36,3l.19.08,1.09.44.27.1,1,.35.29.09,1.06.3.23.06c.42.11.85.2,1.27.29l-.15.12-.74.57-.31.24-1,.73c-.83.59-1.54,1.06-2.18,1.43a3.5,3.5,0,0,1-1.79.5,3.61,3.61,0,0,1-3.3-2.16l-.15-.34-.34-.14A3.32,3.32,0,0,1,122.63,105.43Zm-18.26-8.67L114,90.28a7,7,0,0,1,7.77,0,3.16,3.16,0,0,1,1.54,2,2.85,2.85,0,0,1-.86,2.12s-1.39,1.74-3.12,3.77c-5.17,6-6.7,6.68-7,6.76s-.66-.35-1.29-1.39a8.25,8.25,0,0,0-4.42-3.44,2.17,2.17,0,0,1-.94-.75Zm-1.72-17.52a4.1,4.1,0,0,1,.84-.56h0a4.58,4.58,0,0,1,2.06-.49,4.45,4.45,0,0,1,4.1,2.65l.08.17a4.48,4.48,0,0,1-1,4.87l-.22.21h0l-.57.55h0l-8.39,8.28c-.41.4-1,.39-2,0A6.53,6.53,0,0,1,93.64,90l-.52-2.83ZM92.15,43.47c1.39-1.75,1.94-3.2,1.64-4.33,1.15-2.88.66-5.35-1.4-7l-.2-.16A46.34,46.34,0,0,1,99,26.79l.84-.51s5.14-4.84,6.69-2.94c.88,1.08,1,3.33.94,5.59v.15h0v.82a19.61,19.61,0,0,0,.26,3.77,12.75,12.75,0,0,1-.74,6h0c-.44,1.39-1,2.68-1.36,3.61-.23.56-.41,1-.51,1.3l-.1.31v0a1,1,0,0,0,.14.85l.27.38h.5a1.17,1.17,0,0,0,.74-.3c.1-.09.48-.34,1.67-.34a13.37,13.37,0,0,1,2.4.26c6,1.61,11.21,6.38,15.57,14.17a62.52,62.52,0,0,1,4.15,9.1,11.77,11.77,0,0,1-.84,9.58,2,2,0,0,0-.24.86,1.67,1.67,0,0,0,.17.81l.07.13c.66,1.08,2.49,1.55,6.14,1.56a13.42,13.42,0,0,1,1.69.11l.37,0c.22,0,.43.09.64.13l.28.06c.24.06.47.14.7.22l.14,0c.2.08.39.17.58.26l.17.08c.17.09.33.2.49.3l.19.12c.15.11.29.23.42.35l.18.14a5.18,5.18,0,0,1,.38.41l.14.15c2,2.56,1.34,6.41,1.23,6.94v.06l-.24,1,1,.09s1.44.13,3.53.52c5.62,1.06,18.63,4.59,18,14.34-.22,3.52-2.29,5.16-6.54,5.15-6,0-14.31-3.49-18.18-5.28l-.06,0-.32-.15-.19-.09-.21-.1-.23-.11-.15-.07-.24-.11-.09,0-.23-.12,0,0-.23-.12-.18-.09-.17-.09h-.23c-.59,0-1.19-.06-1.79-.12l-.66-.09q-.65-.09-1.3-.23l-.61-.13c-.6-.15-1.21-.31-1.82-.52l-.49-.18q-.7-.25-1.4-.54l-.76-.34c-.4-.18-.79-.38-1.19-.58l-.77-.4q-.85-.47-1.71-1c-.35-.22-.7-.46-1-.7a43.66,43.66,0,0,1-3.57-2.67l0,0,.21-.25.36-.44.19-.23.32-.39.18-.22.28-.34.16-.19.23-.29.12-.14.17-.21.11-.13.08-.1.08-.1.05-.07a4.52,4.52,0,0,0,1.26-3.5,4.83,4.83,0,0,0-2.3-3.24,8.81,8.81,0,0,0-9.82,0l-.75.5c-.66-.81-1.3-1.63-1.93-2.46.06-.06.1-.14.15-.2l.25-.33c.1-.14.19-.28.27-.42l.2-.36c.08-.15.14-.3.2-.45s.1-.25.15-.38.09-.32.13-.48.07-.26.09-.39,0-.33.07-.5,0-.26,0-.39,0-.35,0-.53,0-.25,0-.37-.06-.39-.1-.58,0-.21-.06-.31a6.31,6.31,0,0,0-.29-.88l-.9.23.83-.36a6.26,6.26,0,0,0-5.77-3.74,6.36,6.36,0,0,0-1,.08l-.25,0a6.61,6.61,0,0,0-.79.2l-.12,0v0a12,12,0,0,0,4-10.23c-.32-4.77-2.79-7.87-7.14-9a12.35,12.35,0,0,0-6.8.24l-.08-.24-.13-.36a10.35,10.35,0,0,0,2.47-6.2C96.09,47.11,94.79,44.48,92.15,43.47Z" transform="translate(-11.84 -20.92)"/>
    <path class="i" d="M126.19,80.19A10.45,10.45,0,0,0,123,80a15.07,15.07,0,0,0-3.12.54,13.75,13.75,0,0,0-2.95,1.19,9,9,0,0,0-2.55,2c1.09-.17,2.08-.41,3.06-.65s2-.49,2.93-.77,1.94-.56,2.9-.9A23,23,0,0,0,126.19,80.19Z" transform="translate(-11.84 -20.92)"/>
    <path class="i" d="M130.33,96.62a6,6,0,0,0,.2,3.39,4.42,4.42,0,0,0,2.58,2.58,7.41,7.41,0,0,0,3.6.32,16.48,16.48,0,0,0,3.34-.87c2-.78,4.05-1.52,6.1-2.21,1-.33,2.05-.66,3.1-.91a9.55,9.55,0,0,1,3.19-.4,7.14,7.14,0,0,0-3.32-.48,22.05,22.05,0,0,0-3.33.42,41,41,0,0,0-6.38,1.88,16.68,16.68,0,0,1-3,.88,6.85,6.85,0,0,1-2.9,0,3.6,3.6,0,0,1-2.22-1.63A7.28,7.28,0,0,1,130.33,96.62Z" transform="translate(-11.84 -20.92)"/>
    <path class="i" d="M109.09,71.21c2.19-.62,4.14-1.28,6.16-1.78,1-.26,2-.48,3-.69l3.21-.56a8,8,0,0,0-3.3-.85,10.87,10.87,0,0,0-3.4.34A11.77,11.77,0,0,0,111.65,69,8.59,8.59,0,0,0,109.09,71.21Z" transform="translate(-11.84 -20.92)"/>
    <path class="i" d="M101,30.65c.49,2.61.75,5.09,0,7.23a8,8,0,0,1-1.81,2.89,22.69,22.69,0,0,1-2.93,2.41,7.72,7.72,0,0,0,3.84-1.32,6.7,6.7,0,0,0,2.62-3.38,7.5,7.5,0,0,0,.14-4.23A8,8,0,0,0,101,30.65Z" transform="translate(-11.84 -20.92)"/>
    <path class="i" d="M100.27,53.82a35,35,0,0,1,6.64-2.18,13.52,13.52,0,0,1,3.3-.21,16.59,16.59,0,0,1,3.45.69A6.42,6.42,0,0,0,110.48,50a8.17,8.17,0,0,0-3.89-.19,10.15,10.15,0,0,0-3.56,1.4A8.92,8.92,0,0,0,100.27,53.82Z" transform="translate(-11.84 -20.92)"/>
    <path class="i" d="M22.53,128.17a11.11,11.11,0,0,0-2.87,3.25,9.86,9.86,0,0,0-1.43,4.26,6.94,6.94,0,0,0,.26,2.37,5.55,5.55,0,0,0,1.18,2.08,6.45,6.45,0,0,0,3.93,2,11.19,11.19,0,0,1-2.8-2.87A5.74,5.74,0,0,1,20,135.8a14,14,0,0,1,.89-3.78C21.39,130.76,21.95,129.49,22.53,128.17Z" transform="translate(-11.84 -20.92)"/>
    <path class="i" d="M85,169.48a31.37,31.37,0,0,0,12.42,5.58,29,29,0,0,0,13.79-.38A31,31,0,0,0,123.3,168a42.06,42.06,0,0,0,8.57-10.6,60.39,60.39,0,0,1-9.47,9.51,33.66,33.66,0,0,1-11.65,6,31.06,31.06,0,0,1-13.06.74,38.94,38.94,0,0,1-6.48-1.56A36.59,36.59,0,0,1,85,169.48Z" transform="translate(-11.84 -20.92)"/>
    <path class="h" d="M148.32,176c-1.81,2.75-3.26,5.45-4.69,8.13l-4.23,8-4.17,8c-1.4,2.7-2.81,5.43-4.05,8.46l.23.21a72,72,0,0,0,17.21-32.69Z" transform="translate(-11.84 -20.92)"/>
    <path class="h" d="M159.18,208.61a9.89,9.89,0,0,0-3.71,2,11.93,11.93,0,0,0-2.42,2.81,12.13,12.13,0,0,0-1.46,3.41,10,10,0,0,0-.19,4.21l.26.16c1.41-2,2.68-4.09,4-6.14s2.57-4.16,3.76-6.3Z" transform="translate(-11.84 -20.92)"/>
    <path class="i" d="M90.84,162.68a3.65,3.65,0,0,0-1.7-1.4,11.55,11.55,0,0,0-2.12-.72,27.23,27.23,0,0,0-4.41-.63c-3-.18-5.93-.06-8.87-.07s-5.94.27-8.84.25a17.91,17.91,0,0,1-4.27-.45,12.38,12.38,0,0,1-3.82-1.81c-1.21-.79-2.36-1.69-3.5-2.61a25.63,25.63,0,0,1-3.25-2.9c-2-2.1-3.72-4.57-6.05-6.51a13.9,13.9,0,0,0-3.86-2.38,37,37,0,0,0-4.29-1.23,15,15,0,0,1-4.09-1.49,3.55,3.55,0,0,1-1.51-1.48,12.77,12.77,0,0,1-.58-2.12,12.8,12.8,0,0,0,.43,2.19A3.76,3.76,0,0,0,31.61,141a15.41,15.41,0,0,0,4.11,1.76,37.75,37.75,0,0,1,4.17,1.35,13.17,13.17,0,0,1,3.57,2.37c2.14,1.95,3.85,4.35,5.88,6.56a26.67,26.67,0,0,0,3.32,3,44.31,44.31,0,0,0,3.56,2.72,13.49,13.49,0,0,0,4.17,1.91,18.82,18.82,0,0,0,4.52.43c3,0,5.91-.38,8.85-.4s5.9-.31,8.84-.24a26.86,26.86,0,0,1,4.38.38,11.57,11.57,0,0,1,2.11.59A3.58,3.58,0,0,1,90.84,162.68Z" transform="translate(-11.84 -20.92)"/>
    <ellipse class="k" cx="104.48" cy="141" rx="2.64" ry="2.81"/>
    <circle class="k" cx="109.08" cy="136.06" r="1.45"/>
    <ellipse class="k" cx="98.09" cy="139.29" rx="1.36" ry="1.45"/>
    <circle class="k" cx="95.87" cy="145.85" r="1.87"/>
    <ellipse class="k" cx="89.99" cy="144.15" rx="1.28" ry="1.36"/>
    <path class="h" d="M111.11,187.37a21.5,21.5,0,0,1-8.32,3.54,41.21,41.21,0,0,1-4.5.54c-1.54.14-3.06.28-4.57.33a24.73,24.73,0,0,1-8.82-.86,22.39,22.39,0,0,1-7.76-4.63,16.18,16.18,0,0,0,7.15,6.22A17.45,17.45,0,0,0,89,193.81a29.56,29.56,0,0,0,4.82.16q2.38-.15,4.7-.47a29.3,29.3,0,0,0,4.68-.94A15.82,15.82,0,0,0,111.11,187.37Z" transform="translate(-11.84 -20.92)"/>
    <path class="h" d="M114.85,191.65a8.11,8.11,0,0,1-2.52,2.71,18.76,18.76,0,0,1-3.15,1.74c-1.11.5-2.27.94-3.45,1.35s-2.4.79-3.72,1.16a8.71,8.71,0,0,0,4.07.52,12.4,12.4,0,0,0,4-1,9.75,9.75,0,0,0,3.42-2.48A5.06,5.06,0,0,0,114.85,191.65Z" transform="translate(-11.84 -20.92)"/>
    <path class="h" d="M173.85,73.73c1.34,1.64,3.11,2.76,4.51,4.5a22.27,22.27,0,0,1,3,5.76,47.4,47.4,0,0,1,2.38,12.62,31.65,31.65,0,0,1-2.26,12.72A23.91,23.91,0,0,1,178.3,115a14.51,14.51,0,0,1-4.85,4.15c3.27-2.71,5.16-6.51,6.42-10.37a36.59,36.59,0,0,0,1.34-6,32.22,32.22,0,0,0,.33-6.08c-.08-2-.34-4.12-.61-6.15a47.82,47.82,0,0,0-1.2-6,25.52,25.52,0,0,0-2.25-5.67C176.49,77.12,174.8,75.65,173.85,73.73Z" transform="translate(-11.84 -20.92)"/>
    <path class="h" d="M192.33,88.2c.51,2,1,3.86,1.39,5.83a19.64,19.64,0,0,1,.39,6.16,15.84,15.84,0,0,1-2,5.9,37.91,37.91,0,0,1-3.4,5,45.31,45.31,0,0,1,1.84-5.7,25.27,25.27,0,0,0,1.38-5.46,39.65,39.65,0,0,0,.09-5.72A26.84,26.84,0,0,1,192.33,88.2Z" transform="translate(-11.84 -20.92)"/>
    <ellipse class="e" cx="65.89" cy="116.44" rx="1.14" ry="1.75"/>
  </g>
</svg>
