<svg xmlns="http://www.w3.org/2000/svg" width="369.09" height="369.09" viewBox="0 0 369.09 369.09">
  <defs>
    <style>
      .a {
        fill: #6d6e71;
      }
    </style>
  </defs>
  <title>squig-2</title>
  <path class="a" d="M69.57,235.67l.06.44-19.27,5.48L52.74,232l-1-.24L49,243l20.8-5.92a50.54,50.54,0,0,0,5.49,17.32L69.86,270l1.39-1.18c2.92-2.47,6-5.05,9.21-7.5,5.92,5.78,14.1,8.4,21.09,6.55a19,19,0,0,0,6-2.8,42.66,42.66,0,0,0,1.76,6,47.23,47.23,0,0,0,1.94,4.48,28.15,28.15,0,0,0,6.31,11.28,31.6,31.6,0,0,0,7.07,5.66,66.35,66.35,0,0,0,12.07,8.26,84.57,84.57,0,0,0,18.1,7l-2.12,1.76,2.89-1.13.68-.25a130.17,130.17,0,0,0,19.87,3.3c2.52.23,5.28.43,8.17.49,9.49,8.7,23.3,13.29,34.32,16.2a60.52,60.52,0,0,0,15,2.35c5.38,0,10.54-1.25,14.54-4.94,6-5.56,6.88-14.67,7-21,0-.75,0-1.5,0-2.24a91.77,91.77,0,0,0,13.44-7.22c14.14-9.24,24.24-22.15,28.44-36.34.43-1.46.79-2.92,1.1-4.38,12.85.48,25.67-.34,32.72-9.33,7.43-9.47,4.56-22.65.35-35.48l-7.87-24a82.94,82.94,0,0,0,.46-10.93c-.31-19.81-3.83-36-10.77-49.42a70.29,70.29,0,0,0-11.77-16.55q1.22-.35,2.4-.79c7.23-2.74,14.71-9.47,15.11-18.32a15.11,15.11,0,0,0-5.94-12.16,11.46,11.46,0,0,0-10.42-2.24c-6,1.85-9.05,8.15-9.49,13.59-.4,5,.93,9.94,2.37,14.48a54.11,54.11,0,0,0-20.1-10.28,46,46,0,0,0-16-1.26A66.67,66.67,0,0,1,249,72.57a27.18,27.18,0,0,0,13.72-6.9c5.52-5.42,7.31-13.8,4.27-19.93a13.56,13.56,0,0,0-9.17-6.89,11.08,11.08,0,0,0-9.41,1.94c-4.54,3.67-5.81,10.38-3.76,19.94a99.21,99.21,0,0,0,3,11.07c-.9.16-1.78.28-2.63.37-.74-.95-1.49-1.88-2.23-2.8C224.6,47,207.5,37.14,190.52,39.24c-16.25,2-28.62,15.09-37.57,26.26q-2.53,3.15-5,6.38A259.42,259.42,0,0,0,75.92,94.44c-6.4,3.1-21,11.64-18.43,23.83A15.71,15.71,0,0,0,63,127l-.74.38A52.76,52.76,0,0,0,41,148.36c-8.87,16.08-9.84,35.87-2.54,51.66A50.91,50.91,0,0,0,68.82,226.8Q69,231.24,69.57,235.67Zm2.78-.34a35.7,35.7,0,0,1-1.71-8,43.9,43.9,0,0,0,10,1.56l1.5,0A43.39,43.39,0,0,0,97.57,226a23.85,23.85,0,0,0,7,3.42,22.12,22.12,0,0,0,11.85,0,38.24,38.24,0,0,0-9.23,19.4,35.61,35.61,0,0,0-9.35,1.69A49.39,49.39,0,0,0,89,254.44a32,32,0,0,1-7.53-5,31,31,0,0,1-2.52-2.58L84.1,232Zm10.18-1.86L78.19,246a33.9,33.9,0,0,1-5.51-9.71Zm29.78,27.13a29.31,29.31,0,0,0,5.2-9.59h0a21.9,21.9,0,0,1,10.14,6.34c6.28,7.07,6.86,18.92,1.59,27.69l-.95,1.45.83.56q.54-.76,1-1.55l28.81-44.16.58.12a5.14,5.14,0,0,0,.76,1.08c2.8,3,7.22,3.35,11.51,3.43l7,.13,1.67,7.18,1-.18q-.49-3.47-.78-7l21.5.38q3.82.13,7.64.14v-1l-7.63-.14q-10.89-.36-21.69-1.65a123.43,123.43,0,0,1,.11-16.8,182.87,182.87,0,0,1,36.47,13l-.65,1.25c-3,5.7-6.72,12.7-4.83,19.24l-3.32,2.76a22.75,22.75,0,0,0-13.22-1.79,22.29,22.29,0,0,0-2.83.72,11.4,11.4,0,0,0-1.63-2.76l-.38-.46-.39.45c-2.17,2.51-4.32,5.08-6.25,7.72a28.79,28.79,0,0,0-5.64,6.69,30.13,30.13,0,0,0-4.46,15.18c-9.37,4.89-18.06,7.47-26.44,7.83a39.67,39.67,0,0,1-21.82-5.19,53.65,53.65,0,0,1-13.08-16.57A24.77,24.77,0,0,1,112.31,260.61Zm62.22,36.24a31.16,31.16,0,0,0,2.1,5.22A90.56,90.56,0,0,0,158,306.48l15.81-13.13A24.64,24.64,0,0,0,174.53,296.85Zm.14-4.25,1.79-1.48A23.36,23.36,0,0,0,182,301.53c-1.44.1-2.87.24-4.3.41a30.12,30.12,0,0,1-2.21-5.37A23.83,23.83,0,0,1,174.67,292.6Zm72.69,11.71a126.51,126.51,0,0,1-14,4c-6.13,0-12.59-1.65-18.93-3.25l-1.75-.44c5.53-4.09,9.37-9.66,10.56-15.72,1.33-6.78-1.17-14.18-6.71-19.79a27.13,27.13,0,0,0-7.26-5.26l2.66-2.21c.06.17.11.34.19.51,2.58,5.93,9.65,9.3,20.46,9.76a97.82,97.82,0,0,0,17.15-.69A114,114,0,0,1,254,296.28,20.76,20.76,0,0,1,247.36,304.31Zm6.74-6q.06,1.66.08,3.33c-1.3.56-2.62,1.11-4,1.63A22.23,22.23,0,0,0,254.1,298.32Zm.05-27.15a31.11,31.11,0,0,1,.73,23.14,115,115,0,0,0-4.11-23.25c1-.15,2.06-.34,3.07-.53C253.95,270.74,254.06,270.95,254.16,271.16Zm43.21-17.83-12.11-.47a47.34,47.34,0,0,0,10.52-30.63c0-.05,0-.11,0-.16C298.25,231.32,299.56,242.19,297.37,253.33ZM284,252.81l-42.1-1.64.38.76q1.09,2.19,2.09,4.43a76.42,76.42,0,0,0-10.56-8.13c2.3-.63,4.65-1.09,7-1.51,9.25,2.59,19.24,3.5,26-2.88a17.9,17.9,0,0,0,5.42-11.57A58.69,58.69,0,0,0,285,208.91a22.23,22.23,0,0,0,2.53,1.38,22.65,22.65,0,0,0,4.84,1.56c.69,1.75,1.37,3.61,2,5.56a44.15,44.15,0,0,1,.39,4.84A46.34,46.34,0,0,1,284,252.81Zm2.4-57.42a47.34,47.34,0,0,0-3.48-4.16c-4.81-7.83-10.08-15.12-14.89-21.63,4.18,3.11,8.81,6.2,14,7.72a22.86,22.86,0,0,0,4.42.85A105.66,105.66,0,0,1,286.4,195.39ZM293.58,134a113.75,113.75,0,0,0-14.06,1.77c-.42-1.07-.88-2.12-1.39-3.16-3.61-7.44-9.09-12.83-15.42-15.17-7.33-2.7-16.27-1.27-24.06,3.58-2.72-4.36-6.84-7.68-12-8.35-4.49-.58-8.72.87-12.67,3.17q-1.7-1.74-3.54-3.34a11.59,11.59,0,0,0,4.62-4.25,15.62,15.62,0,0,0,1.47-13.84,21.71,21.71,0,0,0-7.12-9c7.06-1.9,14.42-.54,20.06.87a100.8,100.8,0,0,1,20.14,7.4,39.14,39.14,0,0,0-20.16,14.51l-.19.27.18.28a11.39,11.39,0,0,0,8.49,5.09,14.86,14.86,0,0,0,11.86-3.71,19.33,19.33,0,0,0,5.54-13.41A107,107,0,0,1,293.58,134ZM254.3,96.15c-.08,5.25-1.9,10.06-5.24,13.24a13.82,13.82,0,0,1-11,3.44,10.48,10.48,0,0,1-7.59-4.35c4.79-6.72,12.2-11.6,20.58-14.1C252.11,94.94,253.21,95.54,254.3,96.15ZM252.39,94q.9-.24,1.81-.44c0,.49.07,1,.09,1.45ZM95.08,126.41a40.06,40.06,0,0,1,15.41,12.87q-1.32,3.66-2.24,6.92c-4-1.5-7.93-3.06-11.86-4.64a16.55,16.55,0,0,1-1-2.21A21.59,21.59,0,0,1,95.08,126.41Zm-.65,13.29c.16.44.35.87.55,1.29-6.45-2.6-12.83-5.27-19.15-7.92a51.54,51.54,0,0,1-10.94-5.84c8.9-4,18.19-4.68,25.62-2.53a33.75,33.75,0,0,1,3.66,1.3A22.63,22.63,0,0,0,94.42,139.7Zm64.49,99.87-.43.66a252.55,252.55,0,0,1-25.67-6.85,33.62,33.62,0,0,1-11.31-6,24.67,24.67,0,0,0,2.15-1.28,19.78,19.78,0,0,0,9.07-13.94,18.07,18.07,0,0,0,.08-3.1A33.3,33.3,0,0,1,137,210c-.91,2.3-1.65,4.56-1,6.75,1.34,4.4,7,5.19,11.13,5.41A180.71,180.71,0,0,1,174,225.6l4.18,18q-9.06-1.17-18-3a5.15,5.15,0,0,1-.25-.8l4.42-6.78-.81-.08a4,4,0,0,0-4.05,2.45A7.18,7.18,0,0,0,158.91,239.57Zm1.5-3.75a3.31,3.31,0,0,1,2.16-1.86l-2.75,4.21A6,6,0,0,1,160.41,235.83Zm19.11,7.92-.23,0-4.16-17.89q2.27.48,4.53,1A124.54,124.54,0,0,0,179.52,243.75Zm.07,1,0,.33-.08-.34Zm38.41-4.2q4.17,2,8.24,4.3c1.63.91,3.38,1.92,5.19,3q-1.11.37-2.2.8c-6.33,2.56-11.63,6.94-16.75,11.19-1.49-6,2-12.65,4.86-18.06Zm27.37,18.16a113.45,113.45,0,0,1,4.13,11.5,96.8,96.8,0,0,1-16.83.66c-7.25-.31-16.54-2.15-19.59-9.16-.11-.26-.2-.52-.29-.79l.19-.15c5.1-4.24,10.38-8.63,16.63-11.15,1-.39,1.94-.73,2.93-1A73.36,73.36,0,0,1,245.37,258.73Zm-26.91-19,.31-.6L234,244.54c1.51.54,3.06,1.07,4.65,1.56-2,.39-4,.83-6,1.41-2.08-1.31-4.09-2.48-6-3.52C224,242.48,221.25,241,218.46,239.68Zm22.39,6c-2.22-.63-4.4-1.36-6.48-2.1l-15.14-5.42a214.83,214.83,0,0,0,15.46-40.35c.18-.07.36-.14.53-.22,4.25-2.06,6.52-6.38,7-10.93,11.65,7.72,20.42,17.26,25.58,28.1,2.35,4.95,4,11.24,3.49,17.06a40.12,40.12,0,0,1-16.34,10.79,76.09,76.09,0,0,1-11.9,2.69Zm2.36.61a76.85,76.85,0,0,0,12.06-2.72,40.78,40.78,0,0,0,15.81-10.08,16.54,16.54,0,0,1-4.93,9.61c-6,5.59-14.62,5.26-23,3.2Zm40.9-37.95a58.23,58.23,0,0,1-11.75,22.3,36.28,36.28,0,0,0-3.66-16.3c-5.3-11.15-14.36-20.94-26.4-28.81a17.1,17.1,0,0,0-1.25-7.24,21,21,0,0,0-1.53-2.92c.75-4.66,1.35-9.34,1.78-14a32.44,32.44,0,0,0-.24-9.69,114.48,114.48,0,0,1,37.84-14.81,96.22,96.22,0,0,1,4.17,16.92c1.37,7.62,2.67,15.47,3.31,23.37a22,22,0,0,1-4.06-.79c-6.19-1.82-11.64-6-16.45-9.67L263,164.54l2.12,2.85c5.47,7.37,10.41,14.16,14.78,20.92a45.35,45.35,0,0,0-5.67-4.31l-.65-.42-.12.76A25.33,25.33,0,0,0,284.11,208.36ZM156.42,161.26l-8.14,20.47a17.37,17.37,0,0,1-7.91-2.28,16.74,16.74,0,0,1-4.69-4.19c4.75-1,10.06-2.1,14.17-5.36a13.65,13.65,0,0,0,5-8.95Zm-2.47-1.52c-3.18-.65-6.36-1.33-9.5-2.09-4.47-1.08-8.91-2.3-13.33-3.63,1-.32,1.94-.64,2.94-.95a33,33,0,0,1,9.29-1.58c3.82,0,7.61,1,9.59,4.54A7.81,7.81,0,0,1,153.95,159.74Zm-24.45-6.23c-2-.6-3.92-1.22-5.86-1.86a32.41,32.41,0,0,0,7.11-3.42q-.52,2.31-.84,4.67c0,.17,0,.33-.07.5Zm-11.42-2.68,2.13.71c-.58.12-1.15.22-1.73.3C118.34,151.51,118.22,151.17,118.08,150.83Zm3.91,1.31q3,1,5.93,1.92c-2.72,1-5.28,2-7.7,3-.39-1.41-.85-2.84-1.38-4.29A27.49,27.49,0,0,0,122,152.15Zm-16.35,14.24a33.08,33.08,0,0,0,3.2,12.29,34,34,0,0,0,7.29,9.95,33.1,33.1,0,0,0-19-.09,38,38,0,0,0-10.36,4.72c2-8.68,7.24-17.08,15-23.81Q103.61,167.87,105.64,166.39Zm17.13,27.45.59.37a35,35,0,0,1-.9,4.18Q122.63,196.12,122.77,193.84Zm2.75,1.64a23,23,0,0,1,1.74,2c-1.75,1.64-3.45,3.34-5.1,5v-.09q.24-.62.47-1.24a36.73,36.73,0,0,0,1.66-6.41Zm114.77-34.2c-.39,4.3-.94,8.6-1.61,12.89a31,31,0,0,0-9.07-8.13,35.29,35.29,0,0,0,3.49-5.28c1-1.92,2.11-3.9,3.13-5.94,1.28-.88,2.59-1.73,3.91-2.56A32.56,32.56,0,0,1,240.29,161.28ZM227.88,143q.33,1.47.57,3a50.24,50.24,0,0,1,.32,13.27,55.63,55.63,0,0,0-4.39,4,50.66,50.66,0,0,0-10.83-3.81,33.86,33.86,0,0,1,3.3-8.14c.94-1.84,1.92-3.74,2.93-5.65a20.23,20.23,0,0,1,3.3-1.65A15.81,15.81,0,0,1,227.88,143Zm-5.15.06a20.25,20.25,0,0,0-2.05.93c1.52-2.79,3.16-5.58,5-8.26a51.37,51.37,0,0,1,2,6.3A16.75,16.75,0,0,0,222.73,143ZM163.47,162.6c3.12.57,6.22,1.13,9.29,1.66l3.38.6a66.37,66.37,0,0,1-9.44,10,11.7,11.7,0,0,1-4-8.24A10.4,10.4,0,0,1,163.47,162.6Zm13.79,2.46q5,.88,10,1.85c-3.16,3.84-5,8.67-4.23,13.66-4.4-.55-8.92-1.19-12.88-3.28a16.16,16.16,0,0,1-2.68-1.76A69.32,69.32,0,0,0,177.26,165.06Zm11.09,2.06c3.29.64,6.59,1.32,9.87,2.07A128.53,128.53,0,0,0,183,205.56a77.16,77.16,0,0,1-12.68.51c-2.1-7-5.27-13.71-11.47-17.15a19.48,19.48,0,0,0-11.54-2.11l1.61-4.06a25.83,25.83,0,0,0,12.85-3.33,35.65,35.65,0,0,0,4.87-3.25,17.1,17.1,0,0,0,3,2c4.33,2.27,9.41,2.91,13.9,3.47l.69.09-.14-.68C183.1,176,185,171,188.35,167.12Zm-58.64-12.5c-1.34,13.77,4.27,22.28,10.15,25.69a18.52,18.52,0,0,0,8,2.38L146.2,187a27.66,27.66,0,0,0-8.42,2.79,44.35,44.35,0,0,0-9,6.34c-.92-.45-1.79-.93-2.65-1.41q-.77-.78-1.62-1.49A29.63,29.63,0,0,0,123.18,180a90.59,90.59,0,0,0-2.7-22c2.81-1.22,5.81-2.39,9-3.5Zm-6.83,37.31c.15-2.7.26-5.41.3-8.12a29.6,29.6,0,0,1,.39,8.63C123.33,192.28,123.11,192.1,122.88,191.94Zm18.79,9.12,5.25-13.2a22.08,22.08,0,0,1,2.82-.18,17.77,17.77,0,0,1,8.65,2.12c5.85,3.24,8.86,9.4,10.91,16.22a116.84,116.84,0,0,1-22.74-3.61Q144,201.77,141.67,201.06Zm4.65,2.32A117.42,117.42,0,0,0,169.6,207c.54,1.9,1,3.83,1.46,5.76l2.07,8.9L143.19,211c-1.54-.55-3.16-1.12-4.82-1.63L141.3,202Q143.72,202.72,146.32,203.38Zm-5.6-2.62a83.09,83.09,0,0,1-11-4.21,42.88,42.88,0,0,1,8.49-5.92,26.87,26.87,0,0,1,7.53-2.59ZM227.82,165c-.77-.44-1.56-.87-2.4-1.28l-.09,0c1.07-1.08,2.17-2.07,3.26-3C228.39,162.1,228.13,163.55,227.82,165Zm1.9-5.28c.94-.77,1.87-1.5,2.75-2.16q1-.75,2-1.49c-.75,1.44-1.51,2.85-2.26,4.23a34.52,34.52,0,0,1-3.47,5.23l0,0A54,54,0,0,0,229.71,159.71Zm-5.12,4.7.38.19c.91.46,1.77.93,2.61,1.4-.09.39-.19.78-.29,1.16-2.11,2.14-4.7,3.82-7.51,3.56A34.84,34.84,0,0,1,224.59,164.41Zm-5.86,6.13a6.88,6.88,0,0,1-1-.33c-3.4-1.45-4.73-5.55-4.53-8.75q0-.55.12-1.1A49.44,49.44,0,0,1,223.65,164,35.22,35.22,0,0,0,218.74,170.54Zm8-1.54a54.52,54.52,0,0,1-2.68,7.05c-1.9-.78-3.86-1.51-5.85-2.22.27-.65.56-1.29.89-1.92l.13-.24C222,172.1,224.6,170.84,226.77,169Zm-3.11,8a53.6,53.6,0,0,1-6.54,10.32,20.69,20.69,0,0,1,.76-12.51C219.84,175.46,221.78,176.18,223.66,177Zm-7.31,11.23a48.3,48.3,0,0,1-14.49,11.68,55.14,55.14,0,0,1-17.76,5.55,127.47,127.47,0,0,1,15.15-36c4.78,1.11,9.52,2.37,14.17,3.83,1.19.38,2.34.78,3.51,1.18A21.48,21.48,0,0,0,216.35,188.19Zm-27.2-21.92a21.52,21.52,0,0,1,9.12-5.68,26.13,26.13,0,0,1,6.55-1c-2.13,2.83-4.16,5.75-6,8.75C195.58,167.56,192.36,166.9,189.15,166.26Zm16.94-6.74a34.05,34.05,0,0,1,6.3.64c-.06.41-.11.82-.13,1.24-.22,3.54,1.29,8.09,5.13,9.73a8.23,8.23,0,0,0,.85.31h0c-.35.68-.67,1.37-1,2.07-1.18-.41-2.36-.82-3.57-1.2-4.58-1.44-9.23-2.68-13.91-3.78C201.76,165.43,203.87,162.43,206.09,159.52Zm.76-1c1.24-1.6,2.51-3.17,3.84-4.7a45.38,45.38,0,0,1,7.35-7.07c-.71,1.36-1.4,2.71-2.08,4a34.56,34.56,0,0,0-3.39,8.39A35.58,35.58,0,0,0,206.85,158.53Zm22-15.6a11.43,11.43,0,0,1,8.65,3.66,10.24,10.24,0,0,1,.82,1.11c-.87,2.2-1.86,4.35-2.91,6.43q-1.83,1.26-3.6,2.6c-.65.49-1.33,1-2,1.56a51,51,0,0,0-.42-12.55Q229.21,144.34,228.9,142.93ZM239,148.81a12.78,12.78,0,0,1,.9,2.42c-.93.58-1.86,1.17-2.77,1.78C237.8,151.63,238.43,150.23,239,148.81Zm-.54,26.79c-.37,2.29-.77,4.57-1.21,6.85a112.35,112.35,0,0,0-12.25-6,55.5,55.5,0,0,0,3.18-8.77c.27-.28.53-.56.78-.85A29.17,29.17,0,0,1,238.47,175.6Zm.8,1.34c.31.58.6,1.16.85,1.76a16.06,16.06,0,0,1,1.21,6.22c-1-.66-2.08-1.31-3.15-1.93C238.57,181,238.93,179,239.27,176.94Zm2,9.14c-.31,4.33-2.34,8.48-6.26,10.51q1.66-6.24,2.95-12.57C239.09,184.68,240.19,185.37,241.28,186.07Zm-7.43,11c-5.37,1.93-12.34-.92-15.39-6.48a15.18,15.18,0,0,1-1-2.22,54.57,54.57,0,0,0,7.11-11.06A111.09,111.09,0,0,1,237,183.49Q235.67,190.34,233.84,197.1Zm-.31,1.14a213.76,213.76,0,0,1-15.25,39.6l-37.44-13.39a127.54,127.54,0,0,1,3-18,56.32,56.32,0,0,0,18.48-5.71,49.17,49.17,0,0,0,14.41-11.48,16,16,0,0,0,.84,1.82C220.74,196.86,227.82,199.88,233.53,198.24ZM179.86,224.1l-5.61-2L172,212.57c-.42-1.81-.87-3.66-1.4-5.49a78.2,78.2,0,0,0,12.14-.48A128.57,128.57,0,0,0,179.86,224.1Zm-6.07.42a181.69,181.69,0,0,0-26.56-3.35c-3.83-.2-9.07-.9-10.22-4.7-.58-1.92.13-4,1-6.18,1.67.51,3.3,1.08,4.85,1.64l30.55,10.93Zm-41.07-16.45a22.36,22.36,0,0,0-4.13-10.49l.34-.31a83.26,83.26,0,0,0,11.41,4.42l-2.93,7.38A33.81,33.81,0,0,0,132.73,208.07Zm-14-18.44A32.67,32.67,0,0,1,106.59,166c6.55,1.33,12.46,6.44,15.21,13.26q.2.49.37,1c0,3.7-.08,7.4-.27,11.1l-.44-.29A25.74,25.74,0,0,0,118.74,189.63Zm-11.32-24.49a79.21,79.21,0,0,1,12.14-6.67,86.59,86.59,0,0,1,2.57,19A22.67,22.67,0,0,0,107.41,165.14Zm46.5-4.38a12.58,12.58,0,0,1-4.69,8.36c-4,3.21-9.44,4.3-14.19,5.25v0c-3-4.33-5.14-10.84-4.36-19.48,4.48,1.35,9,2.59,13.53,3.69C147.42,159.4,150.67,160.09,153.91,160.76Zm3.5.71,5,1a11.33,11.33,0,0,0-.79,4.22,12.66,12.66,0,0,0,4.25,8.86,34.53,34.53,0,0,1-4.59,3,25.56,25.56,0,0,1-12,3.22Zm.38-.94,2-5.12c1.71-4.29,3.64-9.15,7.24-12.49,3.26-3,8.89-4.77,12.92-2.07a7.82,7.82,0,0,1,1.88,1.78l-11.14,9.7c-3,2.64-6.2,5.63-7.87,9.15C161.17,161.16,159.48,160.85,157.79,160.52Zm24.64-17.06a12.29,12.29,0,0,1,1.16,8.65c-1,4.18-3.61,7.84-6.25,11.23l-.5.64-3.91-.69c-3-.53-6-1.07-9-1.62,1.63-3.26,4.63-6.08,7.5-8.59Zm.76-.66,22-19.16a66.35,66.35,0,0,1,8.56-6.55,57.24,57.24,0,0,1,11.43,17.47A108.46,108.46,0,0,0,219,144.86a41.67,41.67,0,0,0-9.11,8.31c-1.5,1.74-2.93,3.53-4.33,5.34a27.42,27.42,0,0,0-7.62,1.11A22.58,22.58,0,0,0,188,166q-5-1-10-1.86l.17-.22c2.71-3.48,5.44-7.25,6.44-11.62A13.27,13.27,0,0,0,183.2,142.79Zm31.45-26.23c3.73-2.14,7.69-3.46,11.84-2.93,4.88.63,8.76,3.77,11.33,7.89a37.05,37.05,0,0,0-4.37,3.4,53,53,0,0,0-7.57,8.66A58.36,58.36,0,0,0,214.65,116.56Zm23.68,5.82a23.75,23.75,0,0,1,3,11.64,37.34,37.34,0,0,1-2.56,12.56c-.16-.21-.32-.43-.5-.63a12.5,12.5,0,0,0-9.64-4,52.44,52.44,0,0,0-2.33-7.27,52.73,52.73,0,0,1,7.78-9A36.09,36.09,0,0,1,238.33,122.38Zm.83-.54c7.52-4.7,16.15-6.1,23.2-3.5,6.09,2.25,11.37,7.46,14.87,14.67q.7,1.44,1.29,2.92a115.51,115.51,0,0,0-37.72,14.75,13.06,13.06,0,0,0-1.31-3.09A38.92,38.92,0,0,0,242.36,134,24.74,24.74,0,0,0,239.16,121.85Zm-21.6,117.38c-1.86-.9-3.74-1.76-5.63-2.59l5.88,2.1Zm-30.8-11.6q-3-.84-6.06-1.57c0-.19,0-.39,0-.58Zm-7-1.81q-2.42-.57-4.85-1.07l-.35-1.5,5.24,1.88C179.75,225.36,179.74,225.59,179.72,225.82Zm-1.14,19.28-6.76-.12c-4.07-.07-8.26-.37-10.79-3.11l-.11-.12q8.72,1.74,17.55,2.87Zm-58.9-18,.08.07-.08,0Zm-2.51-9.92c1-4.91,6.31-7.87,11-8.26a19.84,19.84,0,0,1,3.66.06,17.2,17.2,0,0,1-.06,3.12,18.78,18.78,0,0,1-8.63,13.22,23.7,23.7,0,0,1-2.39,1.39C118,224,116.4,220.82,117.18,217.16Zm40.72,24-25.18,38.59c2.49-8.07,1-17-4.32-23a22.89,22.89,0,0,0-10.6-6.63c2.1-7.1,2-14.55,1.9-21.8l.85-.38a34,34,0,0,0,11.95,6.44A253.47,253.47,0,0,0,157.9,241.13Zm-41.05,8.66a31.67,31.67,0,0,0-8.63-1,36.74,36.74,0,0,1,10.24-20l.26-.1C118.85,235.72,118.86,243,116.84,249.79Zm-12-21.33a22.74,22.74,0,0,1-6.19-2.9,43.05,43.05,0,0,0,22.27-20.38v0l1-1c1.93-2,3.9-4,6-5.94a21.35,21.35,0,0,1,3.85,9.68,20.65,20.65,0,0,0-3.65,0c-5,.42-10.71,3.66-11.86,9-.79,3.69.55,6.95,3.07,9.68l-.41.36c-.33.3-.66.6-1,.91A21.43,21.43,0,0,1,104.86,228.45Zm-7.14-3.57A30.09,30.09,0,0,1,85.83,200.8a34.33,34.33,0,0,1,.6-6.14,37.08,37.08,0,0,1,10.92-5.15,34.5,34.5,0,0,1,9.35-1.32,28.86,28.86,0,0,1,11.53,2.32c1.12.93,2.3,1.84,3.58,2.7-.18,3-.4,6-.63,9C117,212.52,108.25,220.72,97.72,224.89Zm-1.11.43a42.11,42.11,0,0,1-16,2.56,43,43,0,0,1-10.1-1.62A34,34,0,0,1,71.67,215a36.86,36.86,0,0,1,13.6-19.46,35.15,35.15,0,0,0-.44,5.3A31.21,31.21,0,0,0,96.61,225.31Zm-26.72-6.68A92.5,92.5,0,0,1,76,190c5.11-13.16,16-25.57,28.86-24.25q-2,1.44-3.75,3c-8.28,7.14-13.75,16.13-15.59,25.38a38,38,0,0,0-14.82,20.61A34,34,0,0,0,69.88,218.63Zm37.88-66.74a23.67,23.67,0,0,0,8.53,1.18c.51,0,1-.07,1.52-.13.57,1.54,1.07,3.06,1.48,4.55a79.83,79.83,0,0,0-12.77,7A52.32,52.32,0,0,1,107.77,151.89Zm.22-1c.26-1.15.54-2.29.86-3.42q4,1.48,8,2.89c.22.52.43,1,.64,1.57-.4,0-.8.09-1.2.11A22.65,22.65,0,0,1,108,150.92Zm1.13-4.39c.62-2.15,1.32-4.25,2.06-6.3a54.83,54.83,0,0,1,5.08,8.9Q112.67,147.87,109.12,146.53Zm-2,4.07A20.73,20.73,0,0,1,97.25,143c3.56,1.42,7.13,2.83,10.73,4.18C107.65,148.36,107.38,149.49,107.12,150.6ZM95.34,125.43a45.6,45.6,0,0,1,4.6-10.33,82,82,0,0,1,42-35,279.34,279.34,0,0,0-29.29,53.46q-1,2.37-1.8,4.59A40.76,40.76,0,0,0,95.34,125.43Zm48.26-45.87a82.05,82.05,0,0,1,54,.7A44.71,44.71,0,0,1,207.18,85c-5.67,2.12-11.35,6.94-12.42,13.73a12.18,12.18,0,0,0,.05,3.9,54.35,54.35,0,0,0-7.24-2.49c-20.9-5.55-44.47,1.12-60,17l.71.7c15.32-15.64,38.51-22.21,59.07-16.75a53.56,53.56,0,0,1,7.76,2.73,14,14,0,0,0,3.08,5.78,10.66,10.66,0,0,0,8.43,3.81,9.66,9.66,0,0,0,2.79-.56c1.28,1.09,2.51,2.24,3.69,3.44a68.27,68.27,0,0,0-8.51,6.53L182.63,142a8.78,8.78,0,0,0-2.08-2,9.11,9.11,0,0,0-5.13-1.49,13.85,13.85,0,0,0-9,3.66c-3.77,3.49-5.75,8.46-7.49,12.85l-2.1,5.29-1.85-.37a8.8,8.8,0,0,0-1.11-4.4c-4.19-7.42-15.42-4.87-20.05-3.43l-2.88.92h0a54.45,54.45,0,0,1,1.06-5.61,39.23,39.23,0,0,0,7.57-7c6.28-7.48,9.83-16.69,12.21-23.88l.52-1.58L151,116a57.18,57.18,0,0,0-19.88,30.79,31.24,31.24,0,0,1-9.06,4.29c-1.49-.5-3-1-4.46-1.51a55.93,55.93,0,0,0-6-10.49c.66-1.77,1.34-3.49,2-5.14A278.35,278.35,0,0,1,143.61,79.56Zm6.64,38.33c-2.35,6.83-5.77,15.12-11.47,21.91a38.62,38.62,0,0,1-6.42,6.09A56.24,56.24,0,0,1,150.24,117.9Zm56.3-5.42A9.63,9.63,0,0,1,198.9,109a13,13,0,0,1-2.64-4.58,57.68,57.68,0,0,1,12.21,7.73A8.65,8.65,0,0,1,206.54,112.47Zm1.64-26.73a21.1,21.1,0,0,1,7.38,9,14.6,14.6,0,0,1-1.38,12.93,10.45,10.45,0,0,1-4.6,4.07,58.64,58.64,0,0,0-13.65-8.59,11.38,11.38,0,0,1-.18-4.24C196.79,92.27,202.58,87.62,208.18,85.75Zm86,49.19A99.75,99.75,0,0,1,300.63,148c2.55,6.28,5.85,17.85-.78,24.85-2.93,3.09-7.52,4.64-12.47,4.4-.64-8-1.94-15.92-3.33-23.62a97.94,97.94,0,0,0-4.16-16.93A112.85,112.85,0,0,1,294.16,134.93Zm-12,57c1.36,2.21,2.66,4.42,3.89,6.66q-.39,3-1,6-.29,1.37-.66,2.78a24.36,24.36,0,0,1-10-22A44.9,44.9,0,0,1,282.18,191.89ZM286,204.75q.5-2.35.84-4.71c1.69,3.18,3.25,6.42,4.66,9.77l.39.93a21.62,21.62,0,0,1-4-1.35,21.37,21.37,0,0,1-2.67-1.47C285.56,206.84,285.81,205.79,286,204.75Zm1.09-6.6a46.81,46.81,0,0,1,5.72,12.2l-.38-.93a122.48,122.48,0,0,0-5.36-11C287.1,198.31,287.11,198.22,287.12,198.14Zm-4,55.64a44.77,44.77,0,0,1-7.6,6.86,54.63,54.63,0,0,1-21.16,8.76,45,45,0,0,0-8.19-11.23c-.84-2-1.72-4-2.67-5.93Zm-29.78,15.81c-1,.18-1.91.35-2.9.49q-1.39-4.72-3.19-9.3A42.52,42.52,0,0,1,253.39,269.59Zm-23.81,39.5q-2.44.48-5,.9c-7.12,1.19-16,2.2-24.6.43a41,41,0,0,0,4.37-1.34,34.29,34.29,0,0,0,7.24-3.73l2.59.65A105.34,105.34,0,0,0,229.58,309.09Zm-31.8.81c-.82-.22-1.64-.46-2.45-.74a31,31,0,0,1-11.1-6.76,89.61,89.61,0,0,1,23.32,2c.9.2,1.83.42,2.75.64a33.48,33.48,0,0,1-6.26,3.11A41.44,41.44,0,0,1,197.78,309.9Zm-14.5-8.45a22.45,22.45,0,0,1-6-11.05l31.14-25.87a26.11,26.11,0,0,1,7.39,5.26c5.3,5.38,7.71,12.44,6.44,18.9-1.19,6.06-5.16,11.62-10.86,15.59-1.23-.3-2.46-.6-3.66-.86A90.4,90.4,0,0,0,183.28,301.45Zm8.39-37.91c1.39,4.2.29,9.06-1.73,12.44-3.05,5.09-8.21,8.5-12.85,11.16l-.13.08c-.25-6.92,3-13.29,7.37-19.29A24,24,0,0,1,191.67,263.54ZM186.58,265c1.17-1.47,2.39-2.92,3.63-4.35a10.62,10.62,0,0,1,1.11,2A24.27,24.27,0,0,0,186.58,265Zm-9,23c1.32-.76,2.69-1.58,4-2.48l-4.49,3.73q-.06-.44-.1-.89v0Zm15-24.78a21.29,21.29,0,0,1,2.66-.67,19.32,19.32,0,0,1,3.47-.31,22.59,22.59,0,0,1,8.72,1.83L187.91,280.3a23.09,23.09,0,0,0,2.89-3.82A16.36,16.36,0,0,0,192.6,263.22Zm-18,28.17c0-.56-.07-1.12-.07-1.68l1.59-.86q.06.58.16,1.14Zm-.05-2.82a29.18,29.18,0,0,1,4.3-14.13c.44-.72.92-1.42,1.42-2.09-2.8,4.84-4.56,9.94-4.24,15.41Zm8.71-43.39-2.61,0,0-.25Zm-69.93,11.15a31.52,31.52,0,0,1-5.68,1.21,42.11,42.11,0,0,1,.43-7.76,30.75,30.75,0,0,1,8.5,1,29.52,29.52,0,0,1-2.32,5.3Zm-6.67,1.32A33.87,33.87,0,0,1,90.14,255a47.63,47.63,0,0,1,8-3.52,34.64,34.64,0,0,1,8.88-1.63A43.18,43.18,0,0,0,106.62,257.65ZM63.85,127.71A50.78,50.78,0,0,0,75.43,134c6.68,2.8,13.43,5.61,20.24,8.36a21.48,21.48,0,0,0,11.23,9.22,55.25,55.25,0,0,0-1.36,13.21,19.55,19.55,0,0,0-2.59-.17c-12.54,0-22.91,12.16-27.89,25a93.55,93.55,0,0,0-6.29,36.13,49.89,49.89,0,0,1-29.4-26.14c-7.18-15.5-6.22-34.95,2.5-50.75A49.58,49.58,0,0,1,63.85,127.71ZM147.12,73Q145,75.84,143,78.72l-.88.29a83,83,0,0,0-43,35.59A46.81,46.81,0,0,0,94.41,125a34.71,34.71,0,0,0-3.64-1.29c-8.44-2.45-17.88-1.45-26.78,2.8a15,15,0,0,1-5.54-8.48C56,106.57,70.17,98.35,76.35,95.34A258.42,258.42,0,0,1,147.12,73Zm96.73-.74-.8.05c-5.92.33-11.94-.48-17.77-1.27l-3.2-.43a259.28,259.28,0,0,0-72.66,1q2.12-2.79,4.32-5.52c8.84-11,21-23.92,36.92-25.89C207.25,38.18,224.06,47.92,242,70Q242.93,71.13,243.84,72.28ZM253.34,89a25.52,25.52,0,0,1,.73,3.45c-1.05.23-2.09.5-3.12.79a101.94,101.94,0,0,0-21.28-7.95c-5.8-1.44-13.4-2.84-20.73-.82l-.59.17a44.59,44.59,0,0,0-10.41-5.31,83.11,83.11,0,0,0-53.35-1.15q1.94-2.71,3.95-5.39a258.31,258.31,0,0,1,73.41-1.17l3.19.43c5.87.8,11.94,1.62,18,1.28l1.48-.11C248.27,78,251.67,83.14,253.34,89Zm-4.68-17.37a98.1,98.1,0,0,1-3-11.09c-2-9.16-.82-15.54,3.41-19a9.52,9.52,0,0,1,6-2,11.86,11.86,0,0,1,2.53.28,12.54,12.54,0,0,1,8.49,6.35c2.86,5.75,1.14,13.64-4.07,18.77A26.26,26.26,0,0,1,248.65,71.62ZM258,91.78q-1.49.18-3,.47a26.47,26.47,0,0,0-.75-3.53c-1.65-5.81-4.95-10.9-8.55-15.61.73-.09,1.48-.2,2.24-.34A68.21,68.21,0,0,0,258,91.78Zm5.89,6.5c9.44,8.79,22.2,12.91,33.48,11.21l25,76.17c-.77,6.29-2.62,12.62-6.81,17.56a24.27,24.27,0,0,1-21.43,7.94,47.81,47.81,0,0,0-6.83-14.52,104.78,104.78,0,0,0,.16-18.39c5.18.22,10-1.44,13.12-4.72,7-7.4,3.63-19.41,1-25.91a100.68,100.68,0,0,0-6.27-12.74q2.14-.1,4.29-.12v-1q-2.43,0-4.85.15A108,108,0,0,0,255.3,95.56c0-.74,0-1.48-.12-2.23q1.79-.35,3.62-.56A52.3,52.3,0,0,0,263.9,98.27Zm33.47,8q1,.91,2,1.86l-1.28.26ZM295.9,105l.18.55,1,3c-10.94,1.6-23.31-2.44-32.48-11a51.18,51.18,0,0,1-4.6-4.89,44.17,44.17,0,0,1,15,1.22A53.51,53.51,0,0,1,295.9,105Zm4.59,2.87q-1.81-1.81-3.73-3.45c-1.58-4.84-3.24-10.25-2.81-15.59.41-5.1,3.28-11,8.79-12.71a9.11,9.11,0,0,1,2.7-.41,11.21,11.21,0,0,1,6.81,2.48,14.08,14.08,0,0,1,5.55,11.32c-.38,8.4-7.54,14.81-14.47,17.43A28.84,28.84,0,0,1,300.49,107.82Zm22.11,75.37-24.22-73.88q.91-.17,1.8-.38a69.15,69.15,0,0,1,12,16.72c6.87,13.3,10.35,29.32,10.66,49C322.87,177.33,322.84,180.23,322.6,183.19Zm-24.22,70.18c2.55-13.16.32-25.92-3-36.14a46.22,46.22,0,0,0-1-5,25.3,25.3,0,0,0,21.91-8.33c3.89-4.58,5.82-10.29,6.75-16.05l7.23,22.06c4.12,12.57,6.95,25.45-.19,34.55C323.36,253,310.9,253.83,298.38,253.37Zm-43.2,47.86c0-1.55-.06-3.11-.15-4.66a27.37,27.37,0,0,0,2.08-6,32.23,32.23,0,0,0-2-19.77l-.21-.42a55.46,55.46,0,0,0,21.29-8.87,45.82,45.82,0,0,0,8.3-7.63l12.71.49c-.3,1.38-.64,2.76-1,4.14-4.13,14-14.09,26.68-28,35.79A90.47,90.47,0,0,1,255.18,301.22ZM185.81,312a61.93,61.93,0,0,0,12-1.07A48.51,48.51,0,0,0,210,312.39,90.27,90.27,0,0,0,224.78,311q4.49-.75,8.69-1.69h0a25.28,25.28,0,0,0,12.75-3.1q.8-.45,1.55-1c2.19-.77,4.3-1.6,6.36-2.47,0,.6,0,1.2,0,1.79-.11,6.19-.92,15-6.67,20.32-7.42,6.83-19.21,4.85-28.66,2.36C208.28,324.42,195.11,320.07,185.81,312Zm-7.6-9.11c1.56-.17,3.12-.32,4.68-.42A31.88,31.88,0,0,0,195,310.11l.59.19a64.72,64.72,0,0,1-10.91.7A34.41,34.41,0,0,1,178.21,302.89Zm-20.29,4.69A89.5,89.5,0,0,1,177.13,303,34.71,34.71,0,0,0,183.2,311c-2.46-.08-4.81-.26-7-.46A131.52,131.52,0,0,1,157.92,307.58ZM129,294.75a42,42,0,0,0,18.1,3.18c8.4-.37,17.08-2.9,26.41-7.71q0,1,.12,1.94L155.74,307a84.09,84.09,0,0,1-18.58-7.12A66.88,66.88,0,0,1,129,294.75Zm-10.72-8.56-.1-.12.14.16Zm-2.6-3.31c.74,1,1.5,2,2.32,3A26.74,26.74,0,0,1,115.69,282.88Zm-7.27-18.47a23.56,23.56,0,0,0,2.39-2.15,25.36,25.36,0,0,0-.51,8.67l-.07-.18A41.72,41.72,0,0,1,108.42,264.41Zm-.21-1.11a42.36,42.36,0,0,1-.55-4.77,32.66,32.66,0,0,0,4.79-.92,21.67,21.67,0,0,0-1,2.45A23.47,23.47,0,0,1,108.21,263.31Zm-26.93-2.6A78.49,78.49,0,0,1,89,255.57a34.9,34.9,0,0,0,17.61,3.08,43.32,43.32,0,0,0,.65,5.34,18.19,18.19,0,0,1-6,2.91C94.68,268.65,86.93,266.18,81.28,260.71Zm-1.92-2.07a31.32,31.32,0,0,1-3-4.32l2.22-6.39c.71.78,1.44,1.54,2.23,2.24A32.84,32.84,0,0,0,88,255a81.26,81.26,0,0,0-7.4,4.94Q79.94,259.34,79.36,258.64Zm-3.43-3.08a32,32,0,0,0,2.66,3.72q.57.68,1.17,1.32c-2.7,2.05-5.28,4.2-7.76,6.28Zm-5.19-18.73,1-.28a34.81,34.81,0,0,0,6.09,10.52l-2.11,6.07A50.81,50.81,0,0,1,70.74,236.83Zm-.18-1.29c-.24-1.78-.4-3.56-.53-5.34a36.73,36.73,0,0,0,1.37,5.4l-.8.23Z"/>
</svg>
