<svg xmlns="http://www.w3.org/2000/svg" width="369.09" height="369.09" viewBox="0 0 369.09 369.09">
  <defs>
    <style>
      .a {
        fill: #6d6e71;
      }
    </style>
  </defs>
  <title>Artboard 1</title>
  <path class="a" d="M300.27,226.8A50.91,50.91,0,0,0,330.61,200c7.31-15.79,6.33-35.58-2.54-51.66a52.76,52.76,0,0,0-21.26-20.94l-.74-.38a15.71,15.71,0,0,0,5.53-8.76c2.57-12.19-12-20.73-18.43-23.83A259.42,259.42,0,0,0,221.1,71.87q-2.43-3.22-5-6.37c-9-11.17-21.32-24.25-37.57-26.26-17-2.1-34.08,7.76-52.27,30.14-.75.92-1.49,1.85-2.23,2.8-.85-.09-1.73-.21-2.63-.37a99.21,99.21,0,0,0,3-11.07c2-9.56.78-16.27-3.76-19.94a11.08,11.08,0,0,0-9.41-1.94,13.56,13.56,0,0,0-9.17,6.89c-3,6.13-1.25,14.51,4.27,19.93a27.18,27.18,0,0,0,13.72,6.9,66.67,66.67,0,0,1-10.2,19.07,46,46,0,0,0-16,1.26,54.11,54.11,0,0,0-20.1,10.28c1.44-4.54,2.77-9.51,2.37-14.48C75.7,83.27,72.6,77,66.65,75.12a11.46,11.46,0,0,0-10.42,2.24,15.11,15.11,0,0,0-5.94,12.16c.4,8.86,7.88,15.58,15.11,18.32q1.18.45,2.4.79A70.29,70.29,0,0,0,56,125.19c-6.94,13.44-10.46,29.61-10.77,49.42a82.94,82.94,0,0,0,.46,10.93l-7.87,24c-4.21,12.83-7.08,26,.35,35.48,7,9,19.87,9.81,32.72,9.33.31,1.46.67,2.92,1.1,4.38,4.2,14.19,14.3,27.1,28.44,36.34a91.77,91.77,0,0,0,13.44,7.22c0,.75,0,1.5,0,2.24.11,6.37,1,15.48,7,21,4,3.69,9.16,4.94,14.54,4.94a60.52,60.52,0,0,0,15-2.35c11-2.91,24.83-7.5,34.32-16.2,2.89-.06,5.64-.26,8.17-.49a130.17,130.17,0,0,0,19.87-3.3l.68.25,2.89,1.13-2.12-1.76a84.57,84.57,0,0,0,18.1-7,66.35,66.35,0,0,0,12.07-8.26,31.6,31.6,0,0,0,7.07-5.66,28.15,28.15,0,0,0,6.31-11.28,47.23,47.23,0,0,0,1.94-4.48,42.66,42.66,0,0,0,1.76-6,19,19,0,0,0,6,2.8c7,1.85,15.17-.77,21.09-6.55,3.24,2.45,6.3,5,9.21,7.5l1.39,1.18-5.4-15.58a50.54,50.54,0,0,0,5.49-17.32l20.8,5.92-2.81-11.24-1,.24,2.39,9.57-19.27-5.48.06-.44Q300.11,231.25,300.27,226.8ZM285,232l5.16,14.86a31,31,0,0,1-2.52,2.58,32,32,0,0,1-7.53,5,49.39,49.39,0,0,0-8.84-3.95,35.61,35.61,0,0,0-9.35-1.69,38.24,38.24,0,0,0-9.23-19.4,22.12,22.12,0,0,0,11.85,0,23.85,23.85,0,0,0,7-3.42A43.39,43.39,0,0,0,287,228.9l1.5,0a43.9,43.9,0,0,0,10-1.56,35.7,35.7,0,0,1-1.71,8Zm11.42,4.29A33.9,33.9,0,0,1,290.9,246l-4.34-12.51Zm-39.47,38.9a53.65,53.65,0,0,1-13.08,16.57A39.67,39.67,0,0,1,222,296.93c-8.39-.36-17.07-2.94-26.44-7.83a30.13,30.13,0,0,0-4.46-15.18,28.79,28.79,0,0,0-5.64-6.69c-1.94-2.64-4.08-5.21-6.25-7.72l-.39-.45-.38.46a11.4,11.4,0,0,0-1.63,2.76,22.29,22.29,0,0,0-2.83-.72,22.75,22.75,0,0,0-13.22,1.79l-3.32-2.76c1.89-6.53-1.81-13.53-4.83-19.24l-.65-1.25a182.87,182.87,0,0,1,36.47-13,123.43,123.43,0,0,1,.11,16.8q-10.79,1.29-21.69,1.65l-7.63.14v1q3.83,0,7.64-.14l21.5-.38q-.29,3.49-.78,7l1,.18,1.67-7.18,7-.12c4.29-.08,8.71-.4,11.51-3.43a5.14,5.14,0,0,0,.76-1.08l.58-.12L239,285.51q.47.79,1,1.55l.83-.56-.95-1.45c-5.28-8.77-4.69-20.62,1.59-27.69A21.9,21.9,0,0,1,251.58,251h0a29.31,29.31,0,0,0,5.2,9.59A24.77,24.77,0,0,1,256.94,275.18Zm-61.62,18.17,15.81,13.13a90.56,90.56,0,0,0-18.67-4.42,31.16,31.16,0,0,0,2.1-5.22A24.64,24.64,0,0,0,195.32,293.35Zm-1.72,3.21a30.12,30.12,0,0,1-2.21,5.37c-1.43-.17-2.86-.31-4.3-.41a23.36,23.36,0,0,0,5.54-10.41l1.79,1.48A23.83,23.83,0,0,1,193.6,296.56Zm-78.54-.28a114,114,0,0,1,4.25-25.09,97.82,97.82,0,0,0,17.15.69c10.81-.46,17.89-3.83,20.46-9.76.07-.17.12-.34.19-.51l2.66,2.21a27.13,27.13,0,0,0-7.26,5.26c-5.53,5.61-8,13-6.71,19.79,1.19,6.06,5,11.64,10.56,15.72l-1.75.44c-6.33,1.6-12.79,3.23-18.93,3.25a126.51,126.51,0,0,1-14-4A20.76,20.76,0,0,1,115.06,296.28Zm3.82,7c-1.36-.52-2.67-1.07-4-1.63q0-1.66.08-3.33A22.23,22.23,0,0,0,118.88,303.27Zm-3.64-32.75c1,.19,2,.38,3.07.53a115,115,0,0,0-4.11,23.25,31.11,31.11,0,0,1,.73-23.14C115,270.95,115.14,270.74,115.24,270.52ZM73.32,222.07c0,.05,0,.11,0,.16a47.34,47.34,0,0,0,10.52,30.63l-12.11.47C69.53,242.19,70.83,231.32,73.32,222.07Zm1,.18a44.15,44.15,0,0,1,.39-4.84c.64-2,1.32-3.81,2-5.56a22.65,22.65,0,0,0,4.84-1.56,22.23,22.23,0,0,0,2.53-1.38,58.69,58.69,0,0,0,12.75,23.36,17.9,17.9,0,0,0,5.42,11.57c6.8,6.38,16.78,5.47,26,2.88,2.34.41,4.69.87,7,1.51a76.42,76.42,0,0,0-10.56,8.13q1-2.23,2.09-4.43l.38-.76-42.1,1.64A46.34,46.34,0,0,1,74.31,222.25Zm8.33-44.07a22.86,22.86,0,0,0,4.42-.85c5.18-1.53,9.81-4.61,14-7.72-4.81,6.51-10.09,13.8-14.89,21.63a47.34,47.34,0,0,0-3.48,4.16A105.66,105.66,0,0,1,82.64,178.18Zm31.16-81.48a19.33,19.33,0,0,0,5.54,13.41,14.86,14.86,0,0,0,11.86,3.71,11.39,11.39,0,0,0,8.49-5.09l.18-.28-.19-.27a39.14,39.14,0,0,0-20.16-14.51,100.8,100.8,0,0,1,20.14-7.4c5.64-1.4,13-2.77,20.06-.87a21.71,21.71,0,0,0-7.12,9,15.62,15.62,0,0,0,1.47,13.84,11.59,11.59,0,0,0,4.62,4.25q-1.83,1.6-3.54,3.34c-3.95-2.31-8.19-3.75-12.67-3.17-5.19.67-9.32,4-12,8.35-7.78-4.85-16.73-6.28-24.06-3.58C100,119.74,94.57,125.13,91,132.58c-.51,1-1,2.09-1.39,3.16A113.75,113.75,0,0,0,75.51,134,107,107,0,0,1,113.81,96.69Zm4.28-2.32c8.38,2.5,15.79,7.38,20.58,14.1a10.48,10.48,0,0,1-7.59,4.35,13.82,13.82,0,0,1-11-3.44c-3.34-3.17-5.17-8-5.24-13.24C115.88,95.54,117,94.94,118.09,94.37ZM114.8,95c0-.48,0-1,.09-1.45q.91.2,1.81.44Zm158.92,44.37a16.55,16.55,0,0,1-1,2.21c-3.93,1.58-7.88,3.14-11.86,4.64q-.93-3.27-2.24-6.92A40.06,40.06,0,0,1,274,126.41,21.59,21.59,0,0,1,273.72,139.36ZM274.94,126a33.75,33.75,0,0,1,3.66-1.3c7.43-2.16,16.72-1.45,25.62,2.53a51.54,51.54,0,0,1-10.94,5.84c-6.32,2.65-12.71,5.31-19.15,7.92.2-.43.38-.85.55-1.29A22.63,22.63,0,0,0,274.94,126ZM209.57,235.38a4,4,0,0,0-4.05-2.45l-.81.08,4.42,6.78a5.15,5.15,0,0,1-.25.8q-9,1.82-18,3l4.18-18a180.71,180.71,0,0,1,26.87-3.43c4.14-.21,9.79-1,11.13-5.41.67-2.19-.07-4.45-1-6.75a33.3,33.3,0,0,1,4.21-.91,18.07,18.07,0,0,0,.08,3.1,19.78,19.78,0,0,0,9.07,13.94,24.67,24.67,0,0,0,2.15,1.28,33.62,33.62,0,0,1-11.31,6,252.55,252.55,0,0,1-25.67,6.85l-.43-.66A7.18,7.18,0,0,0,209.57,235.38Zm-.3,2.8L206.52,234a3.31,3.31,0,0,1,2.16,1.86A6,6,0,0,1,209.26,238.18Zm-19.83-11.34q2.26-.53,4.53-1l-4.16,17.89-.23,0A124.54,124.54,0,0,0,189.44,226.84Zm.12,17.92-.08.34,0-.33Zm-37.81-2.92c2.87,5.41,6.35,12,4.86,18.06-5.12-4.25-10.42-8.63-16.75-11.19q-1.09-.44-2.2-.8c1.81-1.12,3.56-2.13,5.19-3q4.06-2.26,8.24-4.3Zm-15.19,6.76c1,.31,2,.65,2.93,1,6.24,2.52,11.52,6.91,16.63,11.15l.19.15c-.09.26-.18.53-.29.79-3,7-12.33,8.85-19.59,9.16a96.8,96.8,0,0,1-16.83-.66,113.45,113.45,0,0,1,4.13-11.5A73.36,73.36,0,0,1,136.56,248.59Zm5.81-4.61c-1.87,1-3.88,2.21-6,3.52-2-.58-4-1-6-1.41,1.59-.49,3.15-1,4.65-1.56l15.26-5.46.31.6C147.84,241,145.08,242.48,142.37,244ZM126,245.32a76.09,76.09,0,0,1-11.9-2.69A40.12,40.12,0,0,1,97.8,231.84c-.52-5.82,1.14-12.11,3.49-17.06,5.15-10.84,13.92-20.38,25.58-28.1.48,4.55,2.74,8.87,7,10.93.17.08.35.15.53.22a214.83,214.83,0,0,0,15.46,40.35l-15.14,5.42c-2.08.74-4.26,1.47-6.48,2.1Zm-.12,1c-8.36,2.06-17,2.39-23-3.2A16.54,16.54,0,0,1,98,233.5a40.78,40.78,0,0,0,15.81,10.08,76.85,76.85,0,0,0,12.06,2.72Zm-30.32-62-.12-.76-.65.42a45.35,45.35,0,0,0-5.67,4.31c4.37-6.76,9.31-13.55,14.78-20.92l2.12-2.85-2.82,2.16c-4.81,3.68-10.26,7.85-16.45,9.67a22,22,0,0,1-4.06.79c.64-7.9,1.93-15.75,3.31-23.37a96.22,96.22,0,0,1,4.17-16.92A114.48,114.48,0,0,1,128,151.69a32.44,32.44,0,0,0-.24,9.69c.43,4.68,1,9.36,1.78,14a21,21,0,0,0-1.53,2.92,17.1,17.1,0,0,0-1.25,7.24c-12,7.87-21.1,17.66-26.4,28.81a36.28,36.28,0,0,0-3.66,16.3A58.23,58.23,0,0,1,85,208.36,25.33,25.33,0,0,0,95.6,184.35ZM214.2,161a13.65,13.65,0,0,0,5,8.95c4.11,3.26,9.42,4.4,14.17,5.36a16.74,16.74,0,0,1-4.69,4.19,17.37,17.37,0,0,1-7.91,2.28l-8.14-20.47Zm1.93-4.91c2-3.5,5.78-4.54,9.59-4.54a33,33,0,0,1,9.29,1.58c1,.31,2,.63,2.94.95-4.41,1.33-8.85,2.55-13.33,3.63-3.14.76-6.31,1.44-9.5,2.09A7.81,7.81,0,0,1,216.13,156Zm23.12-2.65c0-.17,0-.33-.07-.5q-.32-2.35-.84-4.67a32.41,32.41,0,0,0,7.11,3.42c-1.95.64-3.9,1.26-5.86,1.86Zm11.37-1.55c-.58-.08-1.15-.18-1.73-.3l2.13-.71C250.87,151.17,250.75,151.51,250.61,151.85Zm-.36,1c-.53,1.45-1,2.88-1.38,4.29-2.42-1.05-5-2.06-7.7-3q3-.93,5.93-1.92A27.49,27.49,0,0,0,250.25,152.8Zm17.07,16.65c7.81,6.74,13.06,15.13,15,23.81A38,38,0,0,0,272,188.55a33.1,33.1,0,0,0-19,.09,34,34,0,0,0,7.29-9.95,33.08,33.08,0,0,0,3.2-12.29Q265.48,167.87,267.32,169.45Zm-20.69,28.94a35,35,0,0,1-.9-4.18l.59-.37Q246.46,196.12,246.62,198.39Zm-1.82-3.61a36.73,36.73,0,0,0,1.66,6.41q.22.63.47,1.24v.09c-1.65-1.71-3.35-3.41-5.1-5a23,23,0,0,1,1.74-2ZM128.94,152.26c1.32.83,2.62,1.68,3.91,2.56,1,2,2.1,4,3.13,5.94a35.29,35.29,0,0,0,3.49,5.28,31,31,0,0,0-9.07,8.13c-.66-4.29-1.21-8.58-1.61-12.89A32.56,32.56,0,0,1,128.94,152.26ZM146,143.94a20.23,20.23,0,0,1,3.3,1.65c1,1.91,2,3.8,2.93,5.65a33.86,33.86,0,0,1,3.3,8.14,50.66,50.66,0,0,0-10.83,3.81,55.63,55.63,0,0,0-4.39-4,50.24,50.24,0,0,1,.32-13.27q.24-1.49.57-3A15.81,15.81,0,0,1,146,143.94Zm-4.56-2a51.37,51.37,0,0,1,2-6.3c1.81,2.68,3.45,5.47,5,8.26a20.25,20.25,0,0,0-2.05-.93A16.75,16.75,0,0,0,141.44,142Zm65,24.66a11.7,11.7,0,0,1-4,8.24,66.37,66.37,0,0,1-9.44-10l3.38-.6c3.07-.54,6.18-1.1,9.29-1.66A10.4,10.4,0,0,1,206.42,166.63Zm-4.8,8.9a16.16,16.16,0,0,1-2.68,1.76c-4,2.08-8.48,2.72-12.88,3.28.77-5-1.07-9.82-4.23-13.66q5-1,10-1.85A69.32,69.32,0,0,0,201.62,175.53ZM185,181l-.14.68.69-.09c4.48-.56,9.57-1.19,13.9-3.47a17.1,17.1,0,0,0,3-2,35.65,35.65,0,0,0,4.87,3.25,25.83,25.83,0,0,0,12.85,3.33l1.61,4.06a19.48,19.48,0,0,0-11.54,2.11c-6.2,3.43-9.38,10.12-11.47,17.15a77.16,77.16,0,0,1-12.68-.51,128.53,128.53,0,0,0-15.19-36.37c3.28-.75,6.58-1.42,9.87-2.07C184.07,171,186,176,185,181Zm54.62-26.49c3.23,1.11,6.23,2.27,9,3.5a90.59,90.59,0,0,0-2.7,22,29.63,29.63,0,0,0-1.32,13.15q-.85.71-1.62,1.49c-.86.48-1.74,1-2.65,1.41a44.35,44.35,0,0,0-9-6.34,27.66,27.66,0,0,0-8.42-2.79l-1.69-4.25a18.52,18.52,0,0,0,8-2.38c5.88-3.42,11.49-11.92,10.15-25.69Zm6,37.88a29.6,29.6,0,0,1,.39-8.63c0,2.71.15,5.41.3,8.12C246,192.1,245.75,192.28,245.53,192.45Zm-23,10A116.84,116.84,0,0,1,199.78,206c2.05-6.82,5.06-13,10.91-16.22a17.77,17.77,0,0,1,8.65-2.12,22.08,22.08,0,0,1,2.82.18l5.25,13.2Q225.05,201.77,222.52,202.41Zm5.26-.42,2.93,7.36c-1.66.51-3.28,1.08-4.82,1.63L195.95,221.7l2.07-8.9c.45-1.93.92-3.87,1.46-5.76a117.42,117.42,0,0,0,23.29-3.65Q225.37,202.72,227.79,202ZM223.32,188a26.87,26.87,0,0,1,7.53,2.59,42.88,42.88,0,0,1,8.49,5.92,83.09,83.09,0,0,1-11,4.21Zm-82.82-27.4c1.09.93,2.19,1.93,3.26,3l-.09,0c-.84.42-1.63.85-2.4,1.28C141,163.55,140.7,162.1,140.5,160.65Zm-.14,4.85,0,0a34.52,34.52,0,0,1-3.47-5.23c-.74-1.38-1.51-2.79-2.26-4.23q1,.73,2,1.49c.88.66,1.81,1.4,2.75,2.16A54,54,0,0,0,140.36,165.5Zm8.94,5.22c-2.81.26-5.4-1.42-7.51-3.56-.1-.39-.19-.77-.29-1.16.83-.48,1.7-.94,2.61-1.4l.38-.19A34.84,34.84,0,0,1,149.3,170.72ZM145.44,164a49.44,49.44,0,0,1,10.28-3.59q.08.54.12,1.1c.2,3.2-1.13,7.3-4.53,8.75a6.88,6.88,0,0,1-1,.33A35.22,35.22,0,0,0,145.44,164Zm4.39,7.72.13.24c.33.63.62,1.28.89,1.92-2,.7-3.95,1.44-5.85,2.22a54.52,54.52,0,0,1-2.68-7.05C144.48,170.84,147,172.1,149.83,171.67Zm1.38,3.1a20.69,20.69,0,0,1,.76,12.51A53.6,53.6,0,0,1,145.43,177C147.31,176.18,149.25,175.46,151.21,174.76Zm.95-.32c1.16-.4,2.32-.81,3.51-1.18,4.66-1.47,9.4-2.72,14.17-3.83a127.47,127.47,0,0,1,15.15,36,55.14,55.14,0,0,1-17.76-5.55,48.3,48.3,0,0,1-14.49-11.68A21.48,21.48,0,0,0,152.16,174.44Zm18.15-6.15c-1.88-3-3.9-5.92-6-8.75a26.13,26.13,0,0,1,6.55,1,21.52,21.52,0,0,1,9.12,5.68C176.72,166.9,173.51,167.56,170.31,168.29Zm-1,.24c-4.69,1.1-9.34,2.33-13.91,3.78-1.21.38-2.39.8-3.57,1.2-.29-.7-.6-1.39-1-2.07h0a8.23,8.23,0,0,0,.85-.31c3.85-1.64,5.36-6.2,5.13-9.73,0-.42-.07-.83-.13-1.24a34.05,34.05,0,0,1,6.3-.64C165.22,162.43,167.33,165.43,169.28,168.53Zm-12.76-9.36a34.56,34.56,0,0,0-3.39-8.39c-.68-1.32-1.37-2.67-2.08-4a45.38,45.38,0,0,1,7.35,7.07c1.32,1.53,2.59,3.11,3.84,4.7A35.58,35.58,0,0,0,156.52,159.17Zm-16.87-13.42a51,51,0,0,0-.42,12.55c-.69-.55-1.36-1.07-2-1.56q-1.77-1.34-3.6-2.6c-1-2.09-2-4.24-2.91-6.43a10.24,10.24,0,0,1,.82-1.11,11.43,11.43,0,0,1,8.65-3.66Q139.88,144.34,139.65,145.76ZM132,153c-.91-.61-1.84-1.2-2.77-1.78a12.78,12.78,0,0,1,.9-2.42C130.66,150.23,131.29,151.63,132,153Zm8.17,13.81c.25.29.51.57.78.85a55.5,55.5,0,0,0,3.18,8.77,112.35,112.35,0,0,0-12.25,6c-.45-2.28-.84-4.57-1.21-6.85A29.17,29.17,0,0,1,140.12,166.81ZM130.92,183c-1.07.63-2.12,1.28-3.15,1.93a16.06,16.06,0,0,1,1.21-6.22c.25-.6.54-1.18.85-1.76C130.16,179,130.52,181,130.92,183Zm.21,1q1.28,6.32,2.95,12.57c-3.92-2-5.95-6.18-6.26-10.51C128.89,185.37,130,184.68,131.13,184Zm.91-.53a111.09,111.09,0,0,1,12.47-6.15,54.57,54.57,0,0,0,7.11,11.06,15.18,15.18,0,0,1-1,2.22c-3.05,5.57-10,8.41-15.39,6.48Q133.42,190.34,132,183.49Zm19.47,7.61a16,16,0,0,0,.84-1.82,49.17,49.17,0,0,0,14.41,11.48,56.32,56.32,0,0,0,18.48,5.71,127.54,127.54,0,0,1,3,18l-37.44,13.39a213.76,213.76,0,0,1-15.25-39.6C141.26,199.88,148.35,196.86,151.51,191.1Zm34.8,15.5a78.2,78.2,0,0,0,12.14.48c-.52,1.84-1,3.68-1.4,5.49l-2.22,9.53-5.61,2A128.57,128.57,0,0,0,186.31,206.6Zm9.37,16.26,30.55-10.93c1.55-.56,3.18-1.13,4.85-1.64.86,2.16,1.58,4.27,1,6.18-1.16,3.8-6.39,4.5-10.22,4.7a181.69,181.69,0,0,0-26.56,3.35Zm36-13.78-2.93-7.38a83.26,83.26,0,0,0,11.41-4.42l.34.31a22.36,22.36,0,0,0-4.13,10.49A33.81,33.81,0,0,0,231.68,209.07Zm15.94-18-.44.29c-.19-3.69-.31-7.4-.27-11.1q.18-.5.37-1c2.75-6.81,8.66-11.93,15.21-13.26a32.67,32.67,0,0,1-12.14,23.66A25.74,25.74,0,0,0,247.62,191ZM247,177.47a86.59,86.59,0,0,1,2.57-19,79.21,79.21,0,0,1,12.14,6.67A22.67,22.67,0,0,0,247,177.47Zm-22.1-18.84c4.54-1.1,9.05-2.34,13.53-3.69.78,8.63-1.31,15.14-4.36,19.48v0c-4.75-1-10.14-2-14.19-5.25a12.58,12.58,0,0,1-4.69-8.36C218.42,160.09,221.66,159.4,224.87,158.62Zm-5.12,23.14a25.56,25.56,0,0,1-12-3.22,34.53,34.53,0,0,1-4.59-3,12.66,12.66,0,0,0,4.25-8.86,11.33,11.33,0,0,0-.79-4.22l5-1Zm-13.52-20.29c-1.67-3.52-4.84-6.51-7.87-9.15l-11.14-9.7a7.82,7.82,0,0,1,1.88-1.78c4-2.7,9.66-.95,12.92,2.07,3.6,3.34,5.54,8.2,7.24,12.49l2,5.12C209.6,160.85,207.91,161.16,206.22,161.47Zm-8.53-8.4c2.88,2.5,5.88,5.33,7.5,8.59-3,.55-6.06,1.09-9,1.62l-3.91.69-.5-.64c-2.64-3.39-5.3-7.05-6.25-11.23a12.29,12.29,0,0,1,1.16-8.65Zm-13.18-.75c1,4.38,3.73,8.14,6.44,11.62l.17.22q-5,.89-10,1.86a22.58,22.58,0,0,0-10-6.41,27.42,27.42,0,0,0-7.62-1.11c-1.4-1.82-2.83-3.61-4.33-5.34a41.67,41.67,0,0,0-9.11-8.31,108.46,108.46,0,0,0-6.16-10.31,57.24,57.24,0,0,1,11.43-17.47,66.35,66.35,0,0,1,8.56,6.55l22,19.16A13.27,13.27,0,0,0,184.51,152.33Zm-41.3-18.75a53,53,0,0,0-7.57-8.66,37.05,37.05,0,0,0-4.37-3.4c2.57-4.12,6.45-7.26,11.33-7.89,4.14-.53,8.11.79,11.84,2.93A58.36,58.36,0,0,0,143.21,133.58ZM135,125.66a52.73,52.73,0,0,1,7.78,9,52.44,52.44,0,0,0-2.33,7.27,12.5,12.5,0,0,0-9.64,4c-.18.21-.34.42-.5.63A37.34,37.34,0,0,1,127.73,134a23.75,23.75,0,0,1,3-11.64A36.09,36.09,0,0,1,135,125.66ZM126.73,134a38.92,38.92,0,0,0,2.88,13.56,13.06,13.06,0,0,0-1.31,3.09,115.51,115.51,0,0,0-37.72-14.75q.59-1.48,1.29-2.92c3.5-7.21,8.78-12.42,14.87-14.67,7.05-2.6,15.67-1.2,23.2,3.5A24.74,24.74,0,0,0,126.73,134Zm24.54,104.71,5.88-2.1c-1.89.84-3.77,1.7-5.63,2.59Zm37.08-13.26c0,.19,0,.39,0,.58q-3,.74-6.06,1.57Zm1-.35,5.24-1.87-.35,1.5q-2.43.5-4.85,1.07C189.35,225.59,189.34,225.36,189.32,225.13Zm1.3,19.49q8.82-1.13,17.55-2.87l-.11.12c-2.53,2.74-6.72,3-10.79,3.11l-6.76.12Zm58.78-17.44-.08,0,.08-.07Zm-1-.49a23.7,23.7,0,0,1-2.39-1.39,18.78,18.78,0,0,1-8.63-13.22,17.2,17.2,0,0,1-.06-3.12,19.84,19.84,0,0,1,3.66-.06c4.66.39,9.92,3.35,11,8.26C252.68,220.82,251.14,224,248.37,226.7Zm-11.79,7.63a34,34,0,0,0,11.95-6.44l.85.38c-.14,7.25-.19,14.7,1.9,21.8a22.89,22.89,0,0,0-10.6,6.63c-5.33,6-6.8,15-4.32,23l-25.18-38.59A253.47,253.47,0,0,0,236.58,234.33Zm13.79-5.66.26.1a36.74,36.74,0,0,1,10.24,20,31.67,31.67,0,0,0-8.63,1C250.22,243,250.24,235.72,250.37,228.67Zm.84-.76c-.32-.31-.65-.62-1-.91l-.41-.36c2.52-2.73,3.85-6,3.07-9.68-1.15-5.39-6.83-8.63-11.86-9a20.65,20.65,0,0,0-3.65,0,21.35,21.35,0,0,1,3.85-9.68c2.05,1.92,4,3.94,6,5.94l1,1v0a43.05,43.05,0,0,0,22.27,20.38,22.74,22.74,0,0,1-6.19,2.9A21.43,21.43,0,0,1,251.2,227.91Zm-3.29-25.71c-.23-3-.45-6-.63-9,1.27-.86,2.45-1.76,3.58-2.7a28.86,28.86,0,0,1,11.53-2.32,34.5,34.5,0,0,1,9.35,1.32,37.08,37.08,0,0,1,10.92,5.15,34.33,34.33,0,0,1,.6,6.14,30.09,30.09,0,0,1-11.89,24.09C260.84,220.72,252.06,212.52,247.91,202.2Zm36.34-1.41a35.15,35.15,0,0,0-.44-5.3A36.86,36.86,0,0,1,297.42,215a34,34,0,0,1,1.12,11.3,43,43,0,0,1-10.1,1.62,42.11,42.11,0,0,1-16-2.56A31.21,31.21,0,0,0,284.26,200.79Zm14.12,13.89a38,38,0,0,0-14.82-20.61c-1.85-9.25-7.31-18.24-15.59-25.38q-1.79-1.54-3.75-3C277.13,164.4,288,176.81,293.09,190a92.5,92.5,0,0,1,6.12,28.66A34,34,0,0,0,298.38,214.69Zm-35.82-50.15a79.83,79.83,0,0,0-12.77-7c.41-1.49.91-3,1.48-4.55.51.06,1,.1,1.52.13a23.67,23.67,0,0,0,8.53-1.18A52.32,52.32,0,0,1,262.56,164.54Zm-9.72-12.47c-.4,0-.8-.07-1.2-.11.2-.52.41-1,.64-1.57q4-1.4,8-2.89c.31,1.13.6,2.27.86,3.42A22.65,22.65,0,0,1,252.84,152.07Zm0-2.93a54.83,54.83,0,0,1,5.08-8.9c.74,2,1.44,4.15,2.06,6.3Q256.41,147.86,252.83,149.14Zm8.28-2c3.6-1.35,7.17-2.76,10.73-4.18A20.73,20.73,0,0,1,262,150.6C261.71,149.49,261.44,148.36,261.11,147.17Zm-2.92-9q-.82-2.22-1.8-4.59A279.34,279.34,0,0,0,227.1,80.12a82,82,0,0,1,42,35,45.6,45.6,0,0,1,4.6,10.33A40.76,40.76,0,0,0,258.19,138.17ZM255.47,134c.69,1.66,1.37,3.38,2,5.14a55.93,55.93,0,0,0-6,10.49c-1.48.52-3,1-4.46,1.51a31.24,31.24,0,0,1-9.06-4.29A57.18,57.18,0,0,0,218.13,116l-1.31-1,.52,1.58c2.38,7.19,5.93,16.41,12.21,23.88a39.23,39.23,0,0,0,7.57,7,54.45,54.45,0,0,1,1.06,5.61h0l-2.88-.92c-4.63-1.44-15.86-4-20.05,3.43a8.8,8.8,0,0,0-1.11,4.4l-1.85.37-2.1-5.29c-1.75-4.39-3.72-9.36-7.49-12.85a13.85,13.85,0,0,0-9-3.66,9.11,9.11,0,0,0-5.13,1.49,8.78,8.78,0,0,0-2.08,2l-21.93-19.09a68.27,68.27,0,0,0-8.51-6.53c1.18-1.2,2.41-2.34,3.69-3.44a9.66,9.66,0,0,0,2.79.56,10.66,10.66,0,0,0,8.43-3.81,14,14,0,0,0,3.08-5.78,53.56,53.56,0,0,1,7.76-2.73c20.56-5.46,43.75,1.11,59.07,16.75l.71-.7c-15.57-15.89-39.14-22.57-60-17a54.35,54.35,0,0,0-7.24,2.49,12.18,12.18,0,0,0,.05-3.9C173.26,92,167.58,87.16,161.91,85a44.71,44.71,0,0,1,9.58-4.77,82.05,82.05,0,0,1,54-.7A278.35,278.35,0,0,1,255.47,134ZM236.73,145.9a38.62,38.62,0,0,1-6.42-6.09c-5.71-6.79-9.13-15.08-11.47-21.91A56.24,56.24,0,0,1,236.73,145.9Zm-76.12-33.75a57.68,57.68,0,0,1,12.21-7.73,13,13,0,0,1-2.64,4.58,9.63,9.63,0,0,1-7.64,3.48A8.65,8.65,0,0,1,160.61,112.15Zm12.73-13.22a11.38,11.38,0,0,1-.18,4.24,58.64,58.64,0,0,0-13.65,8.59,10.45,10.45,0,0,1-4.6-4.07,14.6,14.6,0,0,1-1.38-12.93,21.1,21.1,0,0,1,7.38-9C166.51,87.62,172.29,92.27,173.34,98.93ZM89.21,136.68A97.94,97.94,0,0,0,85,153.61c-1.39,7.7-2.69,15.63-3.33,23.62-4.95.24-9.54-1.31-12.47-4.4-6.63-7-3.34-18.57-.78-24.85a99.75,99.75,0,0,1,6.47-13.06A112.85,112.85,0,0,1,89.21,136.68Zm5.51,48.59a24.36,24.36,0,0,1-10,22q-.37-1.4-.66-2.78-.63-3-1-6c1.23-2.24,2.53-4.45,3.89-6.66A44.9,44.9,0,0,1,94.72,185.28Zm-10.9,22.63a21.37,21.37,0,0,1-2.67,1.47,21.62,21.62,0,0,1-4,1.35l.39-.93c1.41-3.35,3-6.59,4.66-9.77q.35,2.36.84,4.71C83.28,205.79,83.53,206.84,83.82,207.91ZM82,198.39a122.48,122.48,0,0,0-5.36,11l-.38.93A46.81,46.81,0,0,1,82,198.14C82,198.22,82,198.31,82,198.39Zm43.54,53.85c-1,1.95-1.83,3.93-2.67,5.93a45,45,0,0,0-8.19,11.23,54.63,54.63,0,0,1-21.16-8.76,44.77,44.77,0,0,1-7.6-6.86Zm-3.75,8.55q-1.79,4.58-3.19,9.3c-1-.14-1.94-.32-2.9-.49A42.52,42.52,0,0,1,121.79,260.79ZM154.87,306l2.59-.65a34.29,34.29,0,0,0,7.24,3.73,41,41,0,0,0,4.37,1.34c-8.57,1.77-17.48.75-24.6-.43q-2.53-.42-5-.9A105.34,105.34,0,0,0,154.87,306Zm10.18,2.14a33.48,33.48,0,0,1-6.26-3.11c.92-.22,1.85-.44,2.75-.64a89.61,89.61,0,0,1,23.32-2,31,31,0,0,1-11.1,6.76c-.81.28-1.63.52-2.45.74A41.44,41.44,0,0,1,165.05,308.15Zm-3.73-4.74c-1.21.27-2.44.56-3.66.86-5.7-4-9.67-9.53-10.86-15.59-1.27-6.46,1.13-13.52,6.44-18.9a26.11,26.11,0,0,1,7.39-5.26l31.14,25.87a22.45,22.45,0,0,1-6,11.05A90.4,90.4,0,0,0,161.32,303.41Zm23.43-35.49c4.38,6,7.62,12.37,7.37,19.29l-.13-.08c-4.64-2.66-9.79-6.07-12.85-11.16-2-3.37-3.12-8.24-1.73-12.44A24,24,0,0,1,184.75,267.92Zm-7-5.31a10.62,10.62,0,0,1,1.11-2c1.23,1.43,2.45,2.88,3.63,4.35A24.27,24.27,0,0,0,177.77,262.6Zm14.28,25.72v0q0,.45-.1.89l-4.49-3.73c1.35.9,2.71,1.72,4,2.48Zm-13.77-11.83a23.09,23.09,0,0,0,2.89,3.82l-19.54-16.24a22.59,22.59,0,0,1,8.72-1.83,19.32,19.32,0,0,1,3.47.31,21.29,21.29,0,0,1,2.66.67A16.36,16.36,0,0,0,178.29,276.49ZM192.85,290q.1-.57.16-1.14l1.59.86c0,.56,0,1.12-.07,1.68Zm.25-2.24c.33-5.47-1.44-10.58-4.24-15.41.5.67,1,1.36,1.42,2.09a29.18,29.18,0,0,1,4.3,14.13Zm-4.61-42.88,0,.25-2.61,0ZM254.86,256a29.52,29.52,0,0,1-2.32-5.3,30.75,30.75,0,0,1,8.5-1,42.11,42.11,0,0,1,.43,7.76,31.52,31.52,0,0,1-5.68-1.21Zm7.19-6.22a34.64,34.64,0,0,1,8.88,1.63,47.63,47.63,0,0,1,8,3.52,33.87,33.87,0,0,1-16.49,2.68A43.18,43.18,0,0,0,262,249.81Zm65.15-101c8.72,15.81,9.68,35.25,2.5,50.75a49.89,49.89,0,0,1-29.4,26.14A93.55,93.55,0,0,0,294,189.61c-5-12.84-15.35-25-27.89-25a19.55,19.55,0,0,0-2.59.17,55.25,55.25,0,0,0-1.36-13.21,21.48,21.48,0,0,0,11.23-9.22c6.82-2.74,13.57-5.56,20.24-8.36a50.78,50.78,0,0,0,11.58-6.29A49.58,49.58,0,0,1,327.2,148.84Zm-34.46-53.5c6.19,3,20.31,11.22,17.89,22.73a15,15,0,0,1-5.54,8.48c-8.9-4.25-18.34-5.24-26.78-2.8a34.71,34.71,0,0,0-3.64,1.29A46.81,46.81,0,0,0,270,114.6,83,83,0,0,0,227,79l-.88-.29q-2-2.87-4.13-5.69A258.42,258.42,0,0,1,292.73,95.34ZM127.07,70c18-22.1,34.77-31.83,51.37-29.78,15.89,2,28.08,14.87,36.92,25.89q2.19,2.74,4.32,5.52a259.28,259.28,0,0,0-72.66-1l-3.2.43C138,71.86,132,72.67,126,72.34l-.8-.05Q126.15,71.13,127.07,70Zm-2.56,3.21,1.48.11c6,.34,12.09-.48,18-1.28l3.19-.43a258.31,258.31,0,0,1,73.41,1.17q2,2.67,3.95,5.39a83.11,83.11,0,0,0-53.35,1.15,44.59,44.59,0,0,0-10.41,5.31l-.59-.17c-7.33-2-14.93-.63-20.73.82a101.94,101.94,0,0,0-21.28,7.95c-1-.3-2.07-.57-3.12-.79a25.52,25.52,0,0,1,.73-3.45C117.42,83.14,120.82,78,124.51,73.23ZM107.08,65c-5.22-5.13-6.93-13-4.07-18.77a12.54,12.54,0,0,1,8.49-6.35,11.86,11.86,0,0,1,2.53-.28,9.52,9.52,0,0,1,6,2c4.23,3.42,5.37,9.79,3.41,19a98.1,98.1,0,0,1-3,11.09A26.26,26.26,0,0,1,107.08,65Zm14,7.81c.77.14,1.52.25,2.24.34-3.61,4.71-6.9,9.81-8.55,15.61a26.47,26.47,0,0,0-.75,3.53q-1.47-.28-3-.47A68.21,68.21,0,0,0,121.1,72.77Zm-10.81,20q1.82.21,3.62.56c-.07.75-.11,1.49-.12,2.23A108,108,0,0,0,74.38,133.9q-2.42-.13-4.85-.15v1q2.15,0,4.29.12a100.68,100.68,0,0,0-6.27,12.74c-2.64,6.5-6,18.51,1,25.91,3.1,3.27,7.93,4.93,13.12,4.72a104.78,104.78,0,0,0,.16,18.39A47.81,47.81,0,0,0,75,211.15a24.27,24.27,0,0,1-21.43-7.94c-4.19-4.94-6-11.28-6.81-17.56l25-76.17c11.27,1.7,24-2.42,33.48-11.21A52.3,52.3,0,0,0,110.29,92.77ZM71,108.36l-1.28-.26q1-1,2-1.86ZM94.11,93.88a44.17,44.17,0,0,1,15-1.22,51.18,51.18,0,0,1-4.6,4.89c-9.17,8.54-21.55,12.57-32.48,11l1-3,.18-.55A53.51,53.51,0,0,1,94.11,93.88Zm-28.35,13c-6.93-2.62-14.09-9-14.47-17.43a14.08,14.08,0,0,1,5.55-11.32,11.21,11.21,0,0,1,6.81-2.48,9.11,9.11,0,0,1,2.7.41c5.5,1.71,8.38,7.62,8.79,12.71.43,5.33-1.23,10.74-2.81,15.59q-1.92,1.63-3.73,3.45A28.84,28.84,0,0,1,65.76,106.91Zm-19.5,67.72c.3-19.66,3.79-35.68,10.66-49a69.15,69.15,0,0,1,12-16.72q.89.22,1.8.38L46.49,183.19C46.25,180.23,46.22,177.33,46.26,174.63ZM39,244.42c-7.14-9.1-4.31-22-.19-34.55L46,187.8c.93,5.77,2.86,11.47,6.75,16.05a25.3,25.3,0,0,0,21.91,8.33,46.22,46.22,0,0,0-1,5c-3.33,10.22-5.56,23-3,36.14C58.19,253.83,45.73,253,39,244.42Zm62,49.83c-13.94-9.11-23.9-21.82-28-35.79-.41-1.38-.75-2.76-1-4.14l12.71-.49a45.82,45.82,0,0,0,8.3,7.63,55.46,55.46,0,0,0,21.29,8.87l-.21.42a32.23,32.23,0,0,0-2,19.77,27.37,27.37,0,0,0,2.08,6c-.08,1.55-.13,3.1-.15,4.66A90.47,90.47,0,0,1,101,294.25Zm49.22,33c-9.45,2.49-21.24,4.48-28.66-2.36-5.75-5.29-6.56-14.13-6.67-20.32,0-.6,0-1.2,0-1.79,2.06.88,4.18,1.7,6.36,2.47q.75.52,1.55,1a25.28,25.28,0,0,0,12.75,3.1h0q4.21.94,8.69,1.69a90.27,90.27,0,0,0,14.78,1.41,48.51,48.51,0,0,0,12.23-1.46,61.93,61.93,0,0,0,12,1.07C174,320.07,160.81,324.42,150.23,327.21ZM184.4,311a64.72,64.72,0,0,1-10.91-.7l.59-.19a31.88,31.88,0,0,0,12.12-7.64c1.56.09,3.12.24,4.68.42A34.41,34.41,0,0,1,184.4,311Zm8.48-.5c-2.18.2-4.53.38-7,.46A34.71,34.71,0,0,0,192,303a89.5,89.5,0,0,1,19.21,4.56A131.52,131.52,0,0,1,192.88,310.5Zm39.05-10.58A84.09,84.09,0,0,1,213.35,307l-17.89-14.86q.1-1,.12-1.94c9.33,4.81,18,7.34,26.41,7.71a42,42,0,0,0,18.1-3.18A66.88,66.88,0,0,1,231.93,299.91Zm18.84-13.69.14-.16-.1.12Zm.31-.36c.82-1,1.58-2,2.32-3A26.74,26.74,0,0,1,251.09,285.86Zm7.77-15.11-.07.18a25.36,25.36,0,0,0-.51-8.67,23.56,23.56,0,0,0,2.39,2.15A41.72,41.72,0,0,1,258.86,270.75Zm-1.22-10.68a21.67,21.67,0,0,0-1-2.45,32.66,32.66,0,0,0,4.79.92,42.36,42.36,0,0,1-.55,4.77A23.47,23.47,0,0,1,257.64,260.07Zm10.15,6.83a18.19,18.19,0,0,1-6-2.91,43.32,43.32,0,0,0,.65-5.34A34.9,34.9,0,0,0,280,255.57a78.49,78.49,0,0,1,7.77,5.14C282.15,266.18,274.4,268.65,267.79,266.9ZM288.52,260a81.26,81.26,0,0,0-7.4-4.94,32.84,32.84,0,0,0,7.16-4.88c.78-.71,1.52-1.46,2.23-2.24l2.22,6.39a31.32,31.32,0,0,1-3,4.32Q289.15,259.34,288.52,260Zm8.56,6.89c-2.48-2.09-5.06-4.23-7.76-6.28q.6-.64,1.17-1.32a32,32,0,0,0,2.66-3.72Zm-3.71-13.74-2.11-6.07a34.81,34.81,0,0,0,6.09-10.52l1,.28A50.81,50.81,0,0,1,293.38,253.14Zm5.11-17.31-.8-.23a36.73,36.73,0,0,0,1.37-5.4c-.13,1.78-.3,3.56-.53,5.34Z"/>
</svg>
